<svg width="646" height="922" viewBox="0 0 646 922" fill="none" xmlns="http://www.w3.org/2000/svg">
<mask id="mask0_710_2339" style="mask-type:alpha" maskUnits="userSpaceOnUse" x="0" y="0" width="646" height="922">
<path d="M-4.03019e-05 0L0 922L645.703 922L645.703 -2.82246e-05L-4.03019e-05 0Z" fill="white"/>
</mask>
<g mask="url(#mask0_710_2339)">
<path d="M-1.29789 -0.0108643L-1.29785 921.989L645.702 921.989L645.702 -0.0108925L-1.29789 -0.0108643Z" fill="#6600FF"/>
<g filter="url(#filter0_f_710_2339)">
<path d="M579.884 -2.804C637.395 -241.605 538.139 -470.324 358.189 -513.662C178.239 -557 -14.2611 -398.545 -71.7723 -159.744C-129.283 79.057 -30.0272 307.776 149.923 351.114C329.873 394.452 522.373 235.997 579.884 -2.804Z" fill="#00CC99"/>
<path d="M719.565 1159.97C777.076 921.173 677.82 692.454 497.87 649.117C317.92 605.779 125.42 764.233 67.9089 1003.03C10.3978 1241.84 109.654 1470.55 289.604 1513.89C469.554 1557.23 662.054 1398.78 719.565 1159.97Z" fill="#6600FF"/>
<path d="M356.677 923.871C414.188 685.07 314.932 456.351 134.982 413.013C-44.9675 369.675 -237.468 528.13 -294.979 766.931C-352.49 1005.73 -253.234 1234.45 -73.2841 1277.79C106.666 1321.13 299.166 1162.67 356.677 923.871Z" fill="#00CC99"/>
<path d="M451.548 368.27C509.059 129.469 409.803 -99.2503 229.853 -142.588C49.9034 -185.926 -142.597 -27.4716 -200.108 211.33C-257.619 450.131 -158.363 678.85 21.587 722.188C201.537 765.525 394.037 607.071 451.548 368.27Z" fill="#00CC99"/>
<path d="M666.249 651.861C723.76 413.059 624.504 184.34 444.554 141.003C264.604 97.6647 72.1037 256.119 14.5926 494.92C-42.9186 733.722 56.3375 962.441 236.287 1005.78C416.237 1049.12 608.738 890.662 666.249 651.861Z" fill="#6600FF"/>
<path d="M852.061 605.873C909.572 367.072 810.316 138.353 630.366 95.0152C450.416 51.6774 257.916 210.132 200.405 448.933C142.894 687.734 242.15 916.453 422.1 959.791C602.05 1003.13 794.55 844.675 852.061 605.873Z" fill="#00CC99"/>
</g>
</g>
<defs>
<filter id="filter0_f_710_2339" x="-815.499" y="-1024.99" width="2188.08" height="3050.22" filterUnits="userSpaceOnUse" color-interpolation-filters="sRGB">
<feFlood flood-opacity="0" result="BackgroundImageFix"/>
<feBlend mode="normal" in="SourceGraphic" in2="BackgroundImageFix" result="shape"/>
<feGaussianBlur stdDeviation="252.096" result="effect1_foregroundBlur_710_2339"/>
</filter>
</defs>
</svg>
