<svg viewBox="0 0 1921 4532" fill="none" xmlns="http://www.w3.org/2000/svg">

    <g id="svgBackgroundNoBlur" clip-path="url(#clip0_0_1)">
        
        <path id="backgroundBlue" d="M-0.0001981 0L0 4532L1921 4532L1921 -8.39696e-05L-0.0001981 0Z" fill="#6600FF"/>

        <g id="blurredLayer">
            <path id="ovalG1" d="M1401.43 -38.147C1401.43 -976.469 828.232 -1737.13 121.155 -1737.13C-585.923 -1737.13 -1159.12 -976.469 -1159.12 -38.1469C-1159.12 900.175 -585.922 1660.84 121.155 1660.84C828.233 1660.84 1401.43 900.175 1401.43 -38.147Z" fill="#00CC99"/>
            <path id="ovalB1" d="M2960.34 4155.48C2960.34 3217.16 2387.14 2456.5 1680.06 2456.5C972.983 2456.5 399.783 3217.16 399.783 4155.48C399.783 5093.81 972.983 5854.47 1680.06 5854.47C2387.14 5854.47 2960.34 5093.81 2960.34 4155.48Z" fill="#6600FF"/>
            <path id="ovalG2" d="M1401.43 3603.2C1401.43 2664.88 828.232 1904.22 121.155 1904.22C-585.923 1904.22 -1159.12 2664.88 -1159.12 3603.2C-1159.12 4541.52 -585.922 5302.18 121.155 5302.18C828.233 5302.18 1401.43 4541.52 1401.43 3603.2Z" fill="#00CC99"/>
            <path id="ovalG3" d="M1256.83 1454.9C1256.83 516.576 683.628 -244.084 -23.4496 -244.084C-730.527 -244.084 -1303.73 516.576 -1303.73 1454.9C-1303.73 2393.22 -730.527 3153.88 -23.4495 3153.88C683.628 3153.88 1256.83 2393.22 1256.83 1454.9Z" fill="#00CC99"/>
            <path id="ovalB2" d="M2307.85 2316.09C2307.85 1377.77 1734.65 617.108 1027.58 617.108C320.499 617.108 -252.7 1377.77 -252.7 2316.09C-252.7 3254.41 320.499 4015.07 1027.58 4015.07C1734.65 4015.07 2307.85 3254.41 2307.85 2316.09Z" fill="#6600FF"/>
            <path id="ovalG4" d="M3354.55 2456.98C3354.55 1518.66 2781.35 758 2074.28 758C1367.2 758 794 1518.66 794 2456.98C794 3395.3 1367.2 4155.97 2074.28 4155.97C2781.35 4155.97 3354.55 3395.3 3354.55 2456.98Z" fill="#00CC99"/>
        </g>
    </g>
</svg>
