<svg viewBox="0 0 21 21" xmlns="http://www.w3.org/2000/svg">
    <path fillRule="evenodd" clipRule="evenodd" d="M3.96471 3.58409C4.62599 2.59804 5.96538 1.38815 6.94123 0.895895C7.91709 0.403127 9.51854 0 10.5 0C12.9616 0 15.6036 1.44911 17.0353 3.58409C18.4415 5.68117 18.3155 8.30022 16.6238 12.142C15.4415 14.8286 11.1745 21 10.5 21C9.82547 21 5.55851 14.8286 4.37617 12.142C2.68448 8.30022 2.55854 5.68117 3.96471 3.58409ZM10.6478 10.2446C12.3373 10.2446 13.7069 8.86862 13.7069 7.17124C13.7069 5.47385 12.3373 4.09784 10.6478 4.09784C8.9583 4.09784 7.58868 5.47385 7.58868 7.17124C7.58868 8.86862 8.9583 10.2446 10.6478 10.2446Z"/>
</svg>
