<svg viewBox="0 0 27 27" xmlns="http://www.w3.org/2000/svg">
    <path d="M25.3006 19.3723C26.4445 20.5689 27.2764 21.9737 25.3526 24.3149C23.5329 26.5 22.1811 26.5 20.5693 26.5C16.6178 26.5 10.7946 21.5054 7.93499 18.5919C5.17936 15.7304 0.5 9.74737 0.5 5.53319C0.5 3.97239 1.17591 2.46361 2.94367 1.31902C4.76342 0.122406 6.47919 0.174433 7.883 1.89132C9.02684 3.29604 12.0944 6.67778 10.1707 9.27912C8.87086 10.996 9.02684 10.944 10.2747 12.3487C11.5745 13.8055 12.9263 15.2102 14.902 16.9791C15.9939 17.8115 15.7859 17.9676 17.7617 16.6149C20.0493 15.0541 24.1568 18.3318 25.3006 19.3723Z"/>
</svg>
