<svg viewBox="0 0 59 59" fill='white' xmlns="http://www.w3.org/2000/svg">
<path fillRule="evenodd" clipRule="evenodd" d="M5.83333 52.4167V0.888916H0V58.25H57.3611V52.4167H5.83333ZM55.4328 10.9271C56.1532 12.3679 55.5692 14.1199 54.1284 14.8403C50.6792 16.5649 49.3024 19.5312 47.8901 23.2033C47.8172 23.3927 47.7433 23.5867 47.6681 23.7842C47.0616 25.3758 46.367 27.1985 45.425 28.7434C44.2976 30.5924 42.6766 32.2995 40.1353 33.1466C36.0924 34.4943 32.624 33.6415 29.9917 32.9942C29.8086 32.9492 29.6295 32.9052 29.4545 32.863C26.7044 32.1991 24.7396 31.8722 22.3081 33.018C20.1917 34.0154 19.1964 36.3491 17.8703 40.0523C17.8521 40.1033 17.8337 40.1545 17.8152 40.2061C17.2447 41.8006 16.5629 43.7063 15.5724 45.2759C14.485 46.9991 12.845 48.6131 10.29 49.1202C8.71 49.4337 7.17494 48.4071 6.86136 46.8271C6.54777 45.2471 7.57442 43.712 9.15443 43.3984C9.64341 43.3014 10.0925 43.0292 10.6392 42.1629C11.2507 41.1936 11.7362 39.8792 12.3785 38.0857C12.42 37.9698 12.4622 37.8514 12.5052 37.7306C13.6252 34.5867 15.3059 29.8692 19.8215 27.7413C24.1955 25.68 27.9021 26.4874 30.8232 27.1925C30.9105 27.2135 30.9969 27.2344 31.0824 27.2551C33.9225 27.9418 35.8818 28.4156 38.2906 27.6127C39.1521 27.3255 39.7996 26.7642 40.4445 25.7066C41.0891 24.6495 41.5838 23.358 42.2324 21.665C42.3016 21.4844 42.3725 21.2992 42.4456 21.1093C43.8689 17.4087 45.8949 12.4352 51.5197 9.62276C52.9605 8.90238 54.7124 9.48637 55.4328 10.9271Z" />
</svg>
