<svg viewBox="0 0 22 22" fill="white" xmlns="http://www.w3.org/2000/svg">
<path d="M21.6562 11C21.6562 16.8867 16.8867 21.6562 11 21.6562C5.11328 21.6562 0.34375 16.8867 0.34375 11C0.34375 5.11328 5.11328 0.34375 11 0.34375C16.8867 0.34375 21.6562 5.11328 21.6562 11ZM9.7668 16.6418L17.673 8.73555C17.9395 8.46914 17.9395 8.03086 17.673 7.76445L16.702 6.79336C16.4355 6.52695 15.9973 6.52695 15.7309 6.79336L9.28125 13.2387L6.26914 10.2266C6.00273 9.96016 5.56445 9.96016 5.29805 10.2266L4.32695 11.1977C4.06055 11.4641 4.06055 11.9023 4.32695 12.1688L8.7957 16.6375C9.06211 16.9125 9.50039 16.9125 9.7668 16.6418Z"/>
</svg>
