<svg  viewBox="0 0 44 44" fill="white" xmlns="http://www.w3.org/2000/svg">
  <path d="M38.989 9.50364C38.989 8.68302 38.3336 7.78687 37.2597 7.78687H6.13124C5.05904 7.78687 4.40189 8.67787 4.40189 9.50364V33.5385C4.40189 34.6046 5.30115 35.2553 6.13124 35.2553H37.2597C38.0863 35.2553 38.989 34.6046 38.989 33.5385V9.50364ZM36.395 32.6801H6.99592V10.362H36.395V32.6801ZM25.9064 15.5501L15.6738 25.7152V23.5812C15.6738 22.8705 15.0928 22.2936 14.3768 22.2936C13.6591 22.2936 13.0798 22.8705 13.0798 23.5812V28.8174C13.0798 29.5281 13.6591 30.105 14.3768 30.105H19.6219C20.3379 30.105 20.919 29.5281 20.919 28.8174C20.919 28.1066 20.3379 27.5298 19.6219 27.5298H17.5139L27.7482 17.363V19.4987C27.7482 20.2095 28.3293 20.7863 29.0452 20.7863C29.7612 20.7863 30.3422 20.2095 30.3422 19.4987C30.3422 18.2712 30.3422 15.49 30.3422 14.2625C30.3422 13.5518 29.7612 12.975 29.0452 12.975C27.8087 12.975 25.0366 12.975 23.8001 12.975C23.0841 12.975 22.5031 13.5518 22.5031 14.2625C22.5031 14.9733 23.0841 15.5501 23.8001 15.5501H25.9064Z"/>
</svg>
