<svg width="15" height="15" viewBox="0 0 24 24" fill="none" xmlns="http://www.w3.org/2000/svg">
    <path fillRule="evenodd" clipRule="evenodd" d="M22.8966 0H12.9655C12.3561 0 11.8621 0.49403 11.8621 1.10345C11.8621 1.71287 12.3561 2.2069 12.9655 2.2069H20.2326L9.42664 13.0128C8.99572 13.4438 8.99572 14.1424 9.42664 14.5734C9.85756 15.0043 10.5562 15.0043 10.9872 14.5734L21.7931 3.76741L21.7931 11.0345C21.7931 11.6439 22.2871 12.1379 22.8965 12.1379C23.506 12.1379 24 11.6439 24 11.0345L24 1.10345C24 0.49403 23.506 0 22.8966 0ZM2.75862 7.72414C2.75862 6.96237 3.37616 6.34483 4.13793 6.34483H10.2069C10.9687 6.34483 11.5862 5.72729 11.5862 4.96552C11.5862 4.20374 10.9687 3.58621 10.2069 3.58621H4.13793C1.85261 3.58621 0 5.43882 0 7.72414V19.8621C0 22.1474 1.85261 24 4.13793 24H16.2759C18.5612 24 20.4138 22.1474 20.4138 19.8621V13.7931C20.4138 13.0313 19.7963 12.4138 19.0345 12.4138C18.2727 12.4138 17.6552 13.0313 17.6552 13.7931V19.8621C17.6552 20.6238 17.0376 21.2414 16.2759 21.2414H4.13793C3.37616 21.2414 2.75862 20.6238 2.75862 19.8621V7.72414Z" fill="black"/>
</svg>
