<svg viewBox="0 0 72 72" fill='white' xmlns="http://www.w3.org/2000/svg">
    <path d="M54.4894 1.45C53.9864 1.95 53.3827 3.25 53.2318 4.35C52.427 8.8 49.2076 12 44.7306 12.8C42.9197 13.1 40.8573 14.45 40.8573 15.4C40.8573 16.55 42.4167 17.6 45.133 18.3C50.113 19.6 51.9742 21.6 53.433 27.35C54.0367 29.8 55.3949 30.8 56.9542 30C57.8597 29.55 58.2118 28.6 59.2682 24.3C59.8718 21.8 62.9906 19.2 66.3106 18.45C69.0773 17.85 71.0391 16.6 71.0391 15.5C71.0391 14.4 69.0773 13.15 66.3106 12.55C62.2864 11.65 59.8215 9.2 58.9161 5.2C58.3124 2.45 57.0549 0.5 55.9482 0.5C55.6967 0.5 54.9924 0.95 54.4894 1.45Z" />
    <path d="M24.6094 11.1C24.1064 11.5 23.05 14.15 22.1949 17.25C19.1767 27.7 17.9191 28.95 7.40576 31.95C-1.74939 34.5 -1.74939 36.5 7.40576 39.05C17.9191 42.05 19.1767 43.3 22.1949 53.75C24.7603 62.85 26.7724 62.85 29.3379 53.75C32.3561 43.3 33.6136 42.05 44.127 39.05C53.2821 36.5 53.2821 34.5 44.127 31.95C33.6136 28.95 32.3561 27.7 29.3379 17.25C27.9797 12.45 26.9736 10.5 25.7664 10.5C25.6155 10.5 25.0621 10.8 24.6094 11.1Z" />
    <path d="M49.8112 46.05C49.3585 46.3 48.5536 47.75 48.0506 49.3C46.9439 52.8 45.6864 54.05 42.1652 55.15C37.0845 56.75 37.2858 59.25 42.5676 61C44.3785 61.55 46.0385 62.35 46.3403 62.7C46.6421 63 47.3967 64.75 48.0003 66.55C49.107 69.65 49.2076 69.75 50.9179 69.75C52.6282 69.75 52.7288 69.65 53.7349 66.8C55.0427 63.05 55.9985 62.1 59.7712 60.8C62.6385 59.8 62.7391 59.7 62.7391 58C62.7391 56.3 62.6385 56.2 59.7712 55.2C55.9985 53.9 54.8415 52.75 53.7852 49.3C53.2821 47.75 52.4773 46.3 51.9239 46C50.8173 45.4 50.8676 45.4 49.8112 46.05Z" />
</svg>
