<svg  viewBox="0 0 42 35" fill="none" xmlns="http://www.w3.org/2000/svg">
  <path d="M26.4658 10.6338L13.6995 23.0972V20.4808C13.6995 19.6093 12.9745 18.9021 12.0813 18.9021C11.1859 18.9021 10.4631 19.6093 10.4631 20.4808V26.9009C10.4631 27.7723 11.1859 28.4796 12.0813 28.4796H18.6252C19.5184 28.4796 20.2434 27.7723 20.2434 26.9009C20.2434 26.0294 19.5184 25.3222 18.6252 25.3222H15.9951L28.7636 12.8567V15.4752C28.7636 16.3467 29.4886 17.0539 30.3818 17.0539C31.2751 17.0539 32 16.3467 32 15.4752V9.05512C32 8.18367 31.2751 7.47641 30.3818 7.47641H23.8379C22.9447 7.47641 22.2197 8.18367 22.2197 9.05512C22.2197 9.92657 22.9447 10.6338 23.8379 10.6338H26.4658Z" fill="white"/>
  <path fillRule="evenodd" clipRule="evenodd" d="M35 0.512817H7C3.41723 0.512817 0.512817 3.41723 0.512817 7V28.0256C0.512817 31.6084 3.41723 34.5128 7 34.5128H35C38.5828 34.5128 41.4872 31.6084 41.4872 28.0256V7C41.4872 3.41723 38.5828 0.512817 35 0.512817ZM4 7C4 5.34314 5.34314 4 7 4H35C36.6568 4 38 5.34314 38 7V28.0256C38 29.6825 36.6568 31.0256 35 31.0256H7C5.34314 31.0256 4 29.6825 4 28.0256V7Z" fill="white"/>
</svg>
