<svg viewBox="0 0 143 86" fill='white' xmlns="http://www.w3.org/2000/svg">
<path d="M33.724 22.8298H60.5729V24.9353H36.1852V40.782H59.1186V42.8876H36.1852V60.2857H60.8526V62.3912H33.724V22.8298ZM62.9782 22.8298H65.8308L78.4722 40.228L91.3933 22.8298L108.968 0.730103L80.0943 42.0564L94.9731 62.3912H92.0086L78.4722 43.8849L64.88 62.3912H61.9713L76.962 42.0564L62.9782 22.8298ZM96.0359 24.9353V22.8298H126.632V24.9353H112.537V62.3912H110.076V24.9353H96.0359ZM0.134888 22.8298H3.21133L45.6336 85.4636L28.1025 62.3912L2.70791 25.8218L2.59604 62.3912H0.134888V22.8298ZM126.385 59.6503C125.882 59.6503 125.505 59.2659 125.505 58.7692C125.505 58.2724 125.882 57.888 126.385 57.888C126.893 57.888 127.264 58.2724 127.264 58.7692C127.264 59.2659 126.893 59.6503 126.385 59.6503ZM128.803 57.3321H130.12C130.138 58.0358 130.659 58.5089 131.425 58.5089C132.281 58.5089 132.766 58.0003 132.766 57.0482V51.016H134.107V57.0541C134.107 58.7692 133.101 59.7568 131.437 59.7568C129.874 59.7568 128.803 58.7987 128.803 57.3321ZM135.86 57.2552H137.189C137.303 58.0654 138.105 58.5799 139.261 58.5799C140.338 58.5799 141.128 58.0299 141.128 57.2729C141.128 56.6224 140.625 56.2321 139.482 55.966L138.369 55.6998C136.806 55.3391 136.094 54.5939 136.094 53.3402C136.094 51.8203 137.351 50.809 139.237 50.809C140.991 50.809 142.272 51.8203 142.349 53.2574H141.044C140.919 52.4709 140.224 51.98 139.219 51.98C138.159 51.98 137.453 52.4827 137.453 53.2515C137.453 53.8606 137.908 54.2095 139.033 54.4697L139.985 54.7004C141.757 55.1085 142.487 55.8181 142.487 57.1014C142.487 58.7337 141.206 59.7568 139.159 59.7568C137.243 59.7568 135.956 58.781 135.86 57.2552Z" />
</svg>
