<svg viewBox="0 0 65 99" xmlns="http://www.w3.org/2000/svg">
<path d="M16.6648 98.1889C25.5516 98.1889 32.7641 90.9132 32.7641 81.9484V65.7078H16.6648C7.77794 65.7078 0.56543 72.9836 0.56543 81.9484C0.56543 90.9132 7.77794 98.1889 16.6648 98.1889Z" />
<path d="M0.56543 49.4672C0.56543 40.5024 7.77794 33.2266 16.6648 33.2266H32.7641V65.7078H16.6648C7.77794 65.7078 0.56543 58.432 0.56543 49.4672Z" />
<path d="M0.56543 16.9861C0.56543 8.02126 7.77794 0.745483 16.6648 0.745483H32.7641V33.2266H16.6648C7.77794 33.2266 0.56543 25.9509 0.56543 16.9861Z" />
<path d="M32.7641 0.745483H48.8635C57.7503 0.745483 64.9628 8.02126 64.9628 16.9861C64.9628 25.9509 57.7503 33.2266 48.8635 33.2266H32.7641V0.745483Z"/>
<path d="M64.9628 49.4672C64.9628 58.432 57.7503 65.7078 48.8635 65.7078C39.9767 65.7078 32.7641 58.432 32.7641 49.4672C32.7641 40.5024 39.9767 33.2266 48.8635 33.2266C57.7503 33.2266 64.9628 40.5024 64.9628 49.4672Z" />
</svg>
