<svg viewBox="0 0 97 93" xmlns="http://www.w3.org/2000/svg">
<path d="M67.0545 64.6729C70.6193 64.3049 73.3236 61.2381 73.2006 57.558C73.0777 53.8779 70.0046 50.9338 66.317 50.9338H66.0711C62.2605 51.0565 59.3104 54.2459 59.4333 58.0487C59.5562 59.8887 60.2938 61.4834 61.4001 62.5875C57.2207 70.8064 50.8287 76.8172 41.2408 81.8467C34.7259 85.2815 27.9651 86.5082 21.2044 85.6495C15.6728 84.9135 11.3706 82.4601 8.66626 78.412C4.73273 72.4011 4.36396 65.8996 7.68288 59.398C10.0184 54.7366 13.7061 51.3018 16.0416 49.5844C15.5499 47.9897 14.8124 45.291 14.4436 43.3282C-3.38016 56.2086 -1.53632 73.6278 3.87227 81.8467C7.92872 87.9802 16.1645 91.783 25.2608 91.783C27.7193 91.783 30.1777 91.5377 32.6362 90.9243C48.3703 87.8576 60.2938 78.5346 67.0545 64.6729ZM88.6889 49.4617C79.3468 38.5441 65.5794 32.5332 49.8453 32.5332H47.8786C46.7723 30.3252 44.4367 28.8531 41.8554 28.8531H41.6095C37.7989 28.9758 34.8488 32.1652 34.9717 35.968C35.0946 39.6481 38.1677 42.5922 41.8554 42.5922H42.1012C44.8055 42.4695 47.141 40.7521 48.1244 38.4214H50.337C59.6791 38.4214 68.5296 41.1202 76.5195 46.395C82.6657 50.4431 87.0909 55.7179 89.5493 62.0968C91.639 67.2489 91.5161 72.2784 89.3035 76.5719C85.8617 83.0734 80.0843 86.6309 72.4631 86.6309C67.5462 86.6309 62.8751 85.1588 60.4167 84.0548C59.0645 85.2815 56.6061 87.2442 54.8852 88.4709C60.1708 90.9243 65.5794 92.2737 70.7422 92.2737C82.5428 92.2737 91.2703 85.7722 94.5892 79.2707C98.1539 72.1558 97.9081 59.8887 88.6889 49.4617ZM26.2442 66.7583C26.3671 70.4384 29.4402 73.3825 33.1279 73.3825H33.3737C37.1843 73.2598 40.1344 70.0704 40.0115 66.2676C39.8886 62.5875 36.8155 59.6434 33.1279 59.6434H32.882C32.6362 59.6434 32.2674 59.6434 32.0216 59.7661C26.9817 51.4245 24.892 42.3469 25.6296 32.5332C26.1213 25.173 28.5797 18.7941 32.882 13.5193C36.4468 8.98051 43.3304 6.77245 48.0015 6.64978C61.0313 6.40444 66.5628 22.5969 66.9316 29.0985C68.5296 29.4665 71.2339 30.3252 73.0777 30.9385C71.6026 11.0659 59.3104 0.761597 47.5098 0.761597C36.4468 0.761597 26.2442 8.73517 22.1877 20.5115C16.5333 36.2133 20.221 51.3018 27.1047 63.2008C26.49 64.0595 26.1213 65.4089 26.2442 66.7583Z"/>
</svg>
