<svg viewBox="0 0 175 73" xmlns="http://www.w3.org/2000/svg">
    <path d="M13.0039 28.3051C13.0039 26.43 14.548 25.7088 17.1053 25.7088C20.7724 25.7088 25.4045 26.8146 29.0715 28.7859V17.4871C25.0667 15.9005 21.1101 15.2755 17.1053 15.2755C7.31033 15.2755 0.796448 20.3719 0.796448 28.882C0.796448 42.152 19.1318 40.0365 19.1318 45.758C19.1318 47.9697 17.2018 48.6909 14.4997 48.6909C10.4949 48.6909 5.38029 47.0562 1.32721 44.8445V56.2875C5.81455 58.2107 10.3501 59.028 14.4997 59.028C24.5359 59.028 31.4358 54.0758 31.4358 45.4695C31.3876 31.1418 13.0039 33.69 13.0039 28.3051ZM45.6216 5.65952L33.8484 8.15967L33.8001 46.6715C33.8001 53.7873 39.156 59.028 46.2971 59.028C50.2537 59.028 53.1488 58.3068 54.7411 57.4414V47.6812C53.197 48.3062 45.5734 50.5179 45.5734 43.4021V26.3338H54.7411V16.0928H45.5734L45.6216 5.65952ZM69.7471 19.6507L68.9751 16.0928H58.5529V58.1626H70.6156V29.6513C73.4624 25.9492 78.2875 26.6223 79.7833 27.1512V16.0928C78.2393 15.5159 72.5939 14.4581 69.7471 19.6507ZM82.7266 16.0928H94.8376V58.1626H82.7266V16.0928ZM82.7266 12.4388L94.8376 9.84246V0.0822754L82.7266 2.6305V12.4388ZM120.025 15.2755C115.296 15.2755 112.256 17.4871 110.567 19.0257L109.94 16.0447H99.325V72.1057L111.388 69.5575L111.436 55.9509C113.173 57.201 115.73 58.9799 119.976 58.9799C128.613 58.9799 136.478 52.0564 136.478 36.8152C136.43 22.8721 128.469 15.2755 120.025 15.2755ZM117.13 48.4024C114.283 48.4024 112.594 47.3927 111.436 46.1426L111.388 28.3051C112.642 26.9108 114.379 25.9492 117.13 25.9492C121.52 25.9492 124.56 30.8533 124.56 37.1517C124.56 43.5944 121.569 48.4024 117.13 48.4024ZM174.5 37.296C174.5 24.9876 168.517 15.2755 157.081 15.2755C145.598 15.2755 138.65 24.9876 138.65 37.1998C138.65 51.6718 146.852 58.9799 158.625 58.9799C164.367 58.9799 168.71 57.6818 171.991 55.8548V46.2388C168.71 47.8735 164.946 48.8832 160.169 48.8832C155.489 48.8832 151.34 47.2485 150.809 41.5751H174.403C174.403 40.95 174.5 38.4499 174.5 37.296ZM150.664 32.7284C150.664 27.2954 153.993 25.0356 157.033 25.0356C159.976 25.0356 163.113 27.2954 163.113 32.7284H150.664Z"/>
</svg>
