<svg viewBox="0 0 125 112" xmlns="http://www.w3.org/2000/svg">
<path fillRule="evenodd" clipRule="evenodd" d="M98.718 34.9533C100.097 35.3519 101.436 35.7734 102.728 36.2189C116.18 40.8575 124.874 48.1234 124.874 55.6368C124.874 63.4719 115.583 71.1326 101.304 75.8714C100.55 76.1219 99.7758 76.3629 98.9876 76.5963C99.269 77.7288 99.5195 78.8416 99.7348 79.9309C102.554 94.1931 100.382 105.916 93.7015 109.789C87.2331 113.54 76.7778 109.856 66.192 100.732C65.0741 99.7678 63.9503 98.7403 62.8246 97.6546C61.9562 98.4953 61.0893 99.2974 60.2255 100.054C49.2967 109.622 38.0732 113.593 31.3857 109.73C24.9112 105.99 22.8768 95.0774 25.4819 81.3346C25.7566 79.8847 26.0839 78.3981 26.4601 76.8812C25.301 76.5481 24.1763 76.1972 23.0923 75.8261C9.35682 71.1238 0.315857 63.3686 0.315857 55.6368C0.315857 48.1505 8.7378 40.9332 21.925 36.3282C23.3989 35.8136 24.9394 35.3299 26.5351 34.8762C26.1863 33.4736 25.8779 32.0942 25.6141 30.7433C22.8819 16.7577 24.8044 5.58134 31.2961 1.81724C38.0661 -2.10831 49.3406 2.10726 60.5887 12.1107C61.2751 12.7211 61.9633 13.3594 62.6526 14.0198C63.6871 13.0216 64.722 12.0691 65.7541 11.1695C76.4867 1.81413 87.1136 -2.0992 93.6115 1.65402C100.388 5.56824 102.373 17.4568 99.3375 32.2141C99.1526 33.1128 98.9446 34.0271 98.718 34.9533ZM97.5385 71.4683C98.2507 71.2566 98.9495 71.0383 99.6306 70.8125C111.96 66.7206 119.553 60.4598 119.553 55.6368C119.553 51.109 112.522 45.2328 100.996 41.2584C99.804 40.8474 98.5673 40.4579 97.2931 40.0885C95.7609 45.0547 93.7156 50.302 91.2311 55.6628C93.8346 61.1544 95.9622 66.4697 97.5385 71.4683ZM95.1137 97.4319C95.9393 92.9745 95.7613 87.2726 94.5148 80.966C94.3204 79.9816 94.0947 78.9747 93.8406 77.9481C88.6816 79.1426 82.9927 80.0176 76.9712 80.5527C73.5478 85.5167 70.0401 89.9863 66.5304 93.831C67.5791 94.8419 68.6244 95.797 69.6623 96.6915C78.7154 104.495 87.1099 107.453 91.0353 105.177C92.8799 104.108 94.3718 101.437 95.1137 97.4319ZM34.0445 105.113C35.8909 106.179 38.9454 106.14 42.7806 104.784C47.0485 103.274 51.8914 100.272 56.724 96.0408C57.5111 95.3515 58.3026 94.62 59.0973 93.8517C55.4603 89.9423 51.8513 85.4776 48.4048 80.6202C42.3689 80.1301 36.7216 79.3169 31.6192 78.1868C31.2691 79.6001 30.9653 80.9827 30.7102 82.3286C28.4822 94.0815 30.1155 102.843 34.0445 105.113ZM10.2858 63.0524C13.7239 66.0013 18.7397 68.7037 24.8133 70.783C25.8012 71.121 26.828 71.4421 27.8878 71.7472C29.4617 66.6094 31.5354 61.2153 34.0347 55.7665C31.5673 50.3975 29.5227 45.088 27.964 40.0097C26.4775 40.4328 25.045 40.8831 23.6766 41.361C12.3988 45.2994 5.63676 51.0939 5.63676 55.6368C5.63676 57.7716 7.19651 60.4025 10.2858 63.0524ZM33.962 6.42994C30.0499 8.69818 28.4953 17.7373 30.8361 29.7198C31.0811 30.9743 31.3682 32.2574 31.6923 33.5634C36.848 32.3936 42.4556 31.5199 48.3136 30.9761C51.7295 26.1474 55.3055 21.7162 58.9245 17.824C58.2995 17.2261 57.6763 16.6483 57.0555 16.0962C47.3436 7.4588 38.1291 4.01359 33.962 6.42994ZM80.7771 36.769C82.067 38.7941 83.3324 40.876 84.5649 43.0083C85.8233 45.1857 87.0183 47.352 88.1482 49.5006C89.7232 45.8069 91.0612 42.2038 92.1348 38.7577C88.559 37.9402 84.7513 37.2722 80.7771 36.769ZM69.9842 30.496C67.5666 27.2697 65.1087 24.2962 62.6544 21.6329C60.1617 24.3269 57.6825 27.2964 55.2625 30.4926C57.6836 30.3794 60.1318 30.3208 62.595 30.3208C65.0817 30.3208 67.548 30.3807 69.9842 30.496ZM37.0875 49.4966C38.1996 47.3381 39.3724 45.1835 40.6036 43.0452C41.8381 40.9011 43.1138 38.8034 44.4219 36.7597C40.473 37.2534 36.6833 37.9047 33.1295 38.7013C34.2123 42.1962 35.5379 45.8158 37.0875 49.4966ZM33.0561 73.0459C36.609 73.8204 40.4557 74.4382 44.5357 74.8942C43.1939 72.8087 41.8864 70.6701 40.6247 68.487C39.386 66.344 38.2084 64.1886 37.0935 62.0316C35.5111 65.7917 34.1562 69.4885 33.0561 73.0459ZM55.3073 81.0333C57.7641 84.2762 60.2796 87.291 62.8016 90.0165C65.2393 87.3283 67.6884 84.3088 70.1139 81.0075C67.6436 81.1177 65.1338 81.175 62.595 81.175C60.1238 81.175 57.6923 81.127 55.3073 81.0333ZM92.3815 72.8149C91.2672 69.3182 89.8638 65.6407 88.1989 61.8399C87.0598 64.0393 85.855 66.2465 84.5861 68.4503C83.3319 70.6286 82.0555 72.7463 80.7625 74.7987C84.8708 74.3048 88.7701 73.6401 92.3815 72.8149ZM74.0016 75.4442C76.0309 72.3972 78.0299 69.1692 79.977 65.7877C81.9214 62.4102 83.7115 59.0287 85.3291 55.689C83.7066 52.4057 81.9125 49.058 79.9595 45.679C78.0283 42.3375 76.0176 39.1261 73.9579 36.0808C70.2547 35.7979 66.451 35.6505 62.5948 35.6505C58.7558 35.6505 54.9572 35.7968 51.2529 36.0773C49.1612 39.145 47.1368 42.3668 45.2132 45.7078C43.2947 49.04 41.5239 52.4095 39.9152 55.7648C41.5244 59.1122 43.2998 62.4786 45.2294 65.8168C47.1641 69.1641 49.2065 72.4016 51.3176 75.4886C54.9484 75.7247 58.7188 75.8453 62.595 75.8453C66.4869 75.8453 70.3055 75.7089 74.0016 75.4442ZM94.1262 31.1384C96.7468 18.3971 95.1248 8.68063 90.9537 6.27139C87.0378 4.0096 78.4432 7.17433 69.2474 15.19C68.2956 16.0199 67.3398 16.8993 66.3827 17.8215C69.9427 21.6638 73.4895 26.1019 76.912 30.9836C82.7872 31.5357 88.3987 32.4244 93.5664 33.6187C93.7708 32.7795 93.959 31.9514 94.1262 31.1384Z"/>
<path d="M62.595 44.4962C68.7377 44.4962 73.7176 49.4839 73.7176 55.6368C73.7176 61.7895 68.7377 66.7774 62.595 66.7774C56.4522 66.7774 51.4723 61.7895 51.4723 55.6368C51.4723 49.4839 56.4522 44.4962 62.595 44.4962Z"/>
</svg>
