<svg viewBox="0 0 184 47" xmlns="http://www.w3.org/2000/svg">
<path d="M58.2453 18.8932V17.1977C58.2453 11.6224 63.1315 7.49822 68.8735 7.49822C70.0249 7.49822 71.1763 7.66623 71.6898 7.83427L70.3673 12.8139C69.9004 12.6458 69.3869 12.5847 68.8735 12.5847C65.8858 12.5847 63.8785 14.7232 63.8785 17.213V18.9085H70.7717V23.0785H63.8785V44.2801H58.2453V23.0632H54.9155V18.8932H58.2453Z" />
<path d="M71.908 31.5866C71.908 24.2547 77.3076 18.6183 84.4343 18.6183C88.1065 18.6183 91.3277 20.5429 93.2259 23.4146V18.9085H98.8434V44.2801H93.2105V39.774C91.2498 42.6456 88.0442 44.5701 84.4186 44.5701C77.3076 44.555 71.908 38.8574 71.908 31.5866ZM77.5409 31.5866C77.5409 36.49 81.042 40.3238 85.3524 40.3238C89.0246 40.3238 93.2259 37.3299 93.2259 31.5866C93.2259 26.7445 89.8339 22.8494 85.3524 22.8494C81.042 22.8494 77.5409 26.7903 77.5409 31.5866Z" />
<path d="M102.469 33.6166V18.9071H108.039V33.968C108.039 37.2369 110.56 40.0626 114.124 40.0626C118.667 40.0626 121.126 36.2897 121.126 33.632V18.9223H126.697V44.2937H121.126V40.8571C119.352 43.0565 116.535 44.584 113.252 44.584C106.483 44.5535 102.469 39.5281 102.469 33.6166Z" />
<path d="M129.809 44.2652V18.8936H135.38V22.3304C137.107 20.1309 139.923 18.6034 143.253 18.6034C149.975 18.6034 154.052 23.6288 154.052 29.5401V44.2498H148.482V29.1888C148.482 25.752 145.79 23.0942 142.335 23.0942C137.745 23.0942 135.38 27.0351 135.38 29.5249V44.2344H129.809V44.2652Z" />
<path d="M156.573 31.5866C156.573 24.2547 161.973 18.6183 169.099 18.6183C172.772 18.6183 175.993 20.5429 177.891 23.4146V18.9085H183.524V44.2801H177.891V39.774C175.931 42.6456 172.725 44.5701 169.099 44.5701C161.973 44.555 156.573 38.8574 156.573 31.5866ZM162.206 31.5866C162.206 36.49 165.707 40.3238 170.017 40.3238C173.69 40.3238 177.891 37.3299 177.891 31.5866C177.891 26.7445 174.499 22.8494 170.017 22.8494C165.707 22.8494 162.206 26.7903 162.206 31.5866Z" />
<path d="M33.7686 9.91235C30.8278 10.8747 29.4117 12.6007 28.4469 15.2891C28.198 16.007 27.5755 16.8013 26.8753 17.3359L29.2872 19.8716L0.5 0.136475C0.5 0.136475 2.02494 9.85126 2.55401 13.4256C2.92746 15.9459 3.56545 17.0762 5.58833 18.2219L6.3975 18.6496L9.88308 20.452L7.81351 19.398L17.3677 24.5151L17.3055 24.6526L7.0199 19.9785C7.56455 21.8114 8.62265 25.3399 9.07391 26.898C9.5563 28.5782 10.1009 29.1892 11.7659 29.785L14.8314 30.8848L16.7298 30.1515L14.3179 31.7249L2.25835 46.7399C10.2721 39.4386 17.0565 36.8419 22.0204 34.7186C28.3536 32.0304 32.166 30.3044 34.6556 24.1027C36.4296 19.7493 37.8143 14.174 39.5729 12.0203L43.323 7.31565C43.323 7.31565 35.558 9.33193 33.7686 9.91235Z" />
</svg>
