<svg viewBox="0 0 289 150" xmlns="http://www.w3.org/2000/svg">
<path d="M62.3 92.2C55.1 90.1 50.2 91.9 48.1 96.8L33.7 129.2L19.6 96.8C17.5 91.9 12.6 90.1 5.40005 92.2C2.30005 93.2 0.800049 94.8 0.800049 98.6V136.2H10.3V98.6L25.2 131.3C26.8 135.2 29.3 136.7 34 136.7C38.7 136.7 40.9 135.2 42.7 131.3L57.4 98.6V136.2H66.9V98.6C66.9 95 65.4 93.2 62.3 92.2Z" />
<path d="M110.7 130.1C110.5 130.1 92.7 130.1 89.9 130.1C84.6 130 84.3 127.3 84.3 126.2V105.6H74.8C75.1 105.7 74.8 126.3 74.9 126.8C74.9 131.5 80.9 135.8 90.4 135.8H110.7V138.3C110.7 139.2 111.4 142.3 105.3 143H75.2V149.4H105.1C109.9 149.4 120.2 147.6 120.2 139.3C120.2 139.1 120.2 105.4 120.2 105.4H110.7V130.1Z" />
<path d="M287.2 102.9C286.5 102.2 285.7 101.6 285.1 100.8C283 98 280.4 95.4 277.6 93.4C275.3 91.8 270.1 89.6 269.3 86.9C269.3 86.9 269.3 86.9 269.1 86.7C270.7 86.5 272.5 86 274.2 85.6C276.7 84.9 278.9 85.1 281.6 84.5C282.7 84.2 283.9 83.8 285 83.5C285 83.3 285 83 285 82.8C283.7 81.5 282.7 79.7 281.4 78.5C277.6 75.2 273.5 72.1 269.3 69.5C267 68 264.1 67 261.8 65.9C261 65.4 259.5 65.2 259 64.6C257.7 63 256.9 60.8 256.1 59C254 54.9 252 50.5 250 46.2C248.7 43.4 247.9 40.5 246.2 37.9C238.7 25.5 230.5 17.9 217.9 10.6C215.1 9.1 212 8.49999 208.6 7.69999C206.8 7.69999 205 7.5 203.2 7.4C202.1 6.9 200.9 5.4 199.8 4.8C195.7 2.2 184.9 -3.5 181.8 4C179.8 8.7 184.7 13.5 186.4 15.8C187.7 17.4 189.2 19.4 190.2 21.2C190.7 22.5 190.9 23.8 191.3 25.1C192.4 28.4 193.6 31.8 195.1 34.9C195.9 36.4 196.7 38 197.9 39.5C198.6 40.3 199.5 40.6 199.7 42C198.7 43.5 198.6 45.6 198.1 47.4C195.5 55.6 196.5 65.9 200.2 71.9C201.3 73.7 204.1 77.8 207.9 76.2C211.2 74.9 210.5 70.8 211.3 67C211.5 66.2 211.3 65.5 211.8 65V65.2C212.8 67.2 213.8 69.3 214.7 71.3C217 74.9 220.9 78.7 224.2 81.1C226 82.4 227.3 84.7 229.6 85.5V85.3C229.6 85.3 229.6 85.3 229.4 85.3C228.9 84.6 228.3 84.3 227.8 83.8C226.5 82.5 225 80.9 224 79.4C220.9 75.3 218.3 70.7 215.8 66.1C214.7 63.8 213.7 61.4 212.7 59.1C212.2 58.3 212.2 57 211.6 56.5C210.5 58.1 208.8 59.4 208.2 61.4C206.9 64.5 206.7 68.4 206.2 72.4C205.9 72.4 206 72.4 205.9 72.6C203.6 71.9 202.8 69.7 201.8 67.5C199.7 62.3 199.2 53.9 201.1 48C201.6 46.5 203.9 41.6 202.9 40.1C202.4 38.8 200.9 38 200.1 36.8C199.1 35.5 198.1 33.7 197.5 32.1C195.7 28 194.9 23.4 192.9 19.3C192.1 17.3 190.4 15.4 189.3 13.7C188 11.7 186.4 10.3 185.2 8C184.9 7.2 184.4 5.9 184.9 5.1C185.1 4.4 185.4 4.3 185.9 4.1C186.9 3.3 189.5 4.3 190.5 4.8C193.3 5.9 195.4 6.9 197.7 8.4C198.7 9.1 199.8 10.5 201.1 10.9C201.6 10.9 202.1 10.9 202.6 10.9C204.9 11.4 207.5 11.1 209.8 11.7C213.7 13 217.2 14.8 220.3 16.8C229.8 22.9 237.8 31.5 243 41.8C243.8 43.4 244.3 45.1 245 46.7C246.5 50.3 248.4 53.9 249.9 57.5C251.4 60.9 252.8 64.4 255.1 67.3C256.2 68.8 260.5 69.6 262.6 70.4C264.1 71.1 266.4 71.7 267.7 72.4C270.2 73.9 272.6 75.7 275.1 77.3C276 78.2 279.8 80 280 81.5C274.1 81.3 269.7 82 265.8 83.5C264.7 84 263 84 262.9 85.3C263.6 86 263.6 86.8 264 87.6C264.8 89.1 266.5 91 267.8 92C269.3 93.1 270.9 94.3 272.5 95.4C275.3 97.2 278.6 98.2 281.3 100C282.9 101 284.6 102.3 286 103.4C286.8 104.1 287.3 104.9 288.3 105.4V105.2C287.8 104.5 287.6 103.6 287.2 102.9Z" />
<path d="M202.6 18.5C202.6 18.5 202.6 18.5 202.6 18.7C202.6 18.7 202.6 18.7 202.8 18.7C203.5 19.8 204.4 20.7 205.1 21.6C205.8 22.7 206.2 23.9 206.7 25L206.9 24.8C207.9 24.1 208.4 22.8 208.4 21.2C207.9 20.7 207.9 20.2 207.6 19.7C207 19 206 18.7 205.5 18.2C204.2 18.2 203.4 18.4 202.6 18.5Z" />
<path d="M135.8 93.1C130.2 94.9 127.6 97.7 127.6 102.6V107.8C127.6 112.1 132.3 115.8 140.5 116.6C141.3 116.6 142.3 116.6 143.3 116.6H153.1C153.4 116.6 153.8 116.6 154.1 116.6C157 116.9 158.4 117.4 159.3 118.6C160 119.3 160 119.7 160 120.4V126C160 126.7 159.5 127.5 158.7 128.3C157.9 129.1 156.4 129.6 154.6 129.6C154.3 129.6 153.9 129.6 153.6 129.6H127.4V136.2H155C158.3 136.2 161.2 135.5 163.8 134.4C167.9 132.4 169.9 130 169.9 126.5V119.5C169.9 116.7 167.6 114.3 163.2 112.5C160.9 111.7 158 111.2 155 111.2H143.5C139.6 111.2 137.8 110.1 137.3 107.4C137.3 107.1 137.3 106.7 137.3 106.6V102.3C137.3 102.1 137.3 101.8 137.3 101.5C137.8 99.5 138.8 99 142.2 98.7C142.5 98.7 142.9 98.7 143 98.7H170.2V92.3H143.5C139.6 92.3 137.6 92.5 135.8 93.1Z" />
<path d="M238.9 124.9V92.2H229.4L229.2 125C229.2 131.5 234.1 135.1 243.9 135.8C244.9 135.8 245.7 136 246.7 136H271.6V129.6H246.6C241 129.6 238.9 128.3 238.9 124.9Z" />
<path d="M223.5 125.4V102.8C223.5 97.1 219.6 93.6 211.6 92.5C210.6 92.3 209.8 92.3 208.8 92.3H190.6C189.8 92.3 188.8 92.5 188 92.5C180 93.5 175.9 97.1 175.9 102.8V125.4C175.9 130.6 178.8 133.9 185.3 135.6C187.3 136.1 189.3 136.3 190.9 136.3H201L208.7 135.8L216.2 142.7H227.2L217.9 134.2C221.9 132.6 223.5 130.1 223.5 125.4ZM214.3 103.3V124.9C214.3 125.2 214.3 125.6 214.3 125.9C213.9 127.2 213.1 128.3 211.8 129L204.9 122.8H193.9L201.8 130H193.1C189.3 130 186.9 128.5 186.4 125.9C186.4 125.6 186.2 125.2 186.2 124.9V103.3C186.2 100.4 188.9 98.6 193.2 98.6H207.6C211.4 98.6 213.8 100 214.3 102.5C214.3 102.6 214.3 103 214.3 103.3Z" />
<path d="M284.2 134.2L282.4 129.8H280.4V136.2H281.7V131.3L283.5 136.2H284.5L286.3 131.3L286.5 136.2H287.8V129.8H285.8L284.2 134.2Z" />
<path d="M273.9 130.8H275.9V136.2H277.2V130.8H279V129.7H273.9V130.8Z" />
</svg>
