<svg viewBox="0 0 257 155" fill='black' xmlns="http://www.w3.org/2000/svg">
<path d="M60.6412 40.4262H109.114V44.2777H65.0845V73.2656H106.488V77.1172H65.0845V108.943H109.619V112.795H60.6412V40.4262ZM113.456 40.4262H118.606L141.429 72.2521L164.756 40.4262L196.485 0L144.357 75.5968L171.219 112.795H165.867L141.429 78.9416L116.89 112.795H111.638L138.702 75.5968L113.456 40.4262ZM173.138 44.2777V40.4262H228.376V44.2777H202.928V112.795H198.485V44.2777H173.138ZM0 40.4262H5.55415L82.1426 155L50.4922 112.795L4.64529 45.8994L4.44332 112.795H0V40.4262ZM227.929 107.781C227.021 107.781 226.34 107.078 226.34 106.169C226.34 105.26 227.021 104.557 227.929 104.557C228.847 104.557 229.517 105.26 229.517 106.169C229.517 107.078 228.847 107.781 227.929 107.781ZM232.295 103.54H234.672C234.705 104.827 235.645 105.693 237.028 105.693C238.574 105.693 239.449 104.762 239.449 103.021V91.9863H241.87V103.032C241.87 106.169 240.054 107.975 237.05 107.975C234.229 107.975 232.295 106.223 232.295 103.54ZM245.036 103.399H247.436C247.641 104.882 249.089 105.823 251.175 105.823C253.12 105.823 254.547 104.817 254.547 103.432C254.547 102.242 253.639 101.528 251.575 101.041L249.565 100.554C246.744 99.8944 245.458 98.5313 245.458 96.2378C245.458 93.4576 247.727 91.6077 251.132 91.6077C254.298 91.6077 256.611 93.4576 256.751 96.0864H254.395C254.169 94.6476 252.915 93.7497 251.099 93.7497C249.186 93.7497 247.911 94.6692 247.911 96.0756C247.911 97.1898 248.733 97.8281 250.764 98.3041L252.483 98.726C255.682 99.4725 257 100.771 257 103.118C257 106.104 254.687 107.975 250.991 107.975C247.533 107.975 245.209 106.19 245.036 103.399Z"/>
</svg>
