<svg viewBox="0 0 283 82" xmlns="http://www.w3.org/2000/svg">
<path fillRule="evenodd" clipRule="evenodd" d="M263.835 33.7384C263.58 33.79 263.326 34.3568 263.326 34.6658C263.275 36.7263 263.224 42.1873 263.224 45.8963C263.224 45.9994 263.376 46.2052 263.529 46.2052C264.293 46.2568 266.126 46.3084 267.704 46.3084C269.894 46.3084 271.166 45.9994 271.88 45.6905C273.712 44.7631 274.578 42.7537 274.578 40.5384C274.578 35.5416 271.116 33.6353 265.973 33.6353C265.617 33.5842 264.599 33.5842 263.835 33.7384ZM276.971 56.7663C276.971 51.6663 273.254 48.8326 266.533 48.8326C266.228 48.8326 264.09 48.781 263.58 48.8842C263.427 48.9358 263.224 49.0389 263.224 49.1936C263.224 52.851 263.173 58.6726 263.326 60.9389C263.427 61.9178 264.141 63.3089 265.006 63.721C265.922 64.2362 268.01 64.3389 269.435 64.3389C273.458 64.3389 276.971 62.0726 276.971 56.7663ZM253.448 30.9053C253.957 30.9053 255.485 31.0595 259.405 31.0595C263.122 31.0595 266.075 30.9568 269.69 30.9568C274.12 30.9568 280.229 32.5537 280.229 39.2505C280.229 42.5479 277.938 45.1752 274.934 46.4631C274.782 46.5147 274.782 46.6174 274.934 46.6689C279.211 47.751 282.979 50.4299 282.979 55.4784C282.979 60.4241 279.924 63.5663 275.494 65.5241C272.796 66.7089 269.435 67.121 266.024 67.121C263.427 67.121 256.452 66.812 252.583 66.9152C252.176 66.7604 252.939 64.9057 253.296 64.5968C254.212 64.5452 254.925 64.4936 255.892 64.1847C257.267 63.8241 257.419 63.412 257.623 61.2999C257.725 59.4968 257.725 53.1084 257.725 48.5752C257.725 42.3416 257.776 38.1174 257.725 36.0568C257.674 34.46 257.114 33.9447 255.994 33.6353C255.129 33.481 253.703 33.2747 252.532 33.1205C252.277 32.8626 253.143 31.1111 253.448 30.9053ZM224.07 62.9483C225.293 63.9268 227.685 64.3389 229.824 64.3389C232.573 64.3389 235.323 63.8241 237.97 61.4026C240.669 58.9299 242.552 55.1178 242.552 49.0389C242.552 43.2174 240.363 38.4779 235.883 35.6963C233.337 34.099 230.078 33.4295 226.311 33.4295C225.191 33.4295 224.121 33.481 223.46 33.79C223.307 33.8931 222.95 34.3568 222.95 34.6142C222.848 35.6447 222.848 43.5779 222.848 48.2147C222.848 53.0057 222.848 59.7026 222.95 60.4752C222.95 61.2483 223.307 62.4331 224.07 62.9483ZM212.513 30.9053C213.48 30.9053 217.197 31.0595 218.979 31.0595C222.187 31.0595 224.478 30.9053 230.536 30.9053C235.628 30.9053 239.905 32.2963 242.96 34.9232C246.676 38.1689 248.611 42.651 248.611 48.1115C248.611 55.8905 245.098 60.3726 241.585 62.9483C238.072 65.5757 233.489 67.121 226.973 67.121C223.51 67.121 217.554 67.0178 212.615 66.9663H212.564C212.309 66.5031 212.971 64.6999 213.378 64.6483C214.702 64.4936 215.058 64.442 215.72 64.1847C216.789 63.7726 216.993 63.2057 217.146 61.2999C217.299 57.7452 217.248 53.4694 217.248 48.6268C217.248 45.1752 217.299 38.4263 217.197 36.2626C217.044 34.46 216.281 33.9963 214.753 33.6869C213.989 33.5326 212.971 33.3263 211.546 33.1721C211.342 32.8111 212.258 31.2142 212.513 30.9053Z" />
<path fillRule="evenodd" clipRule="evenodd" d="M150.906 64.9574C149.633 64.8027 148.717 64.5969 147.596 64.0816C147.444 63.9785 147.189 63.4637 147.189 63.2574C147.087 61.4542 147.087 56.3027 147.087 52.8511C147.087 50.069 146.629 47.6479 145.458 45.9479C144.083 43.9901 142.098 42.8569 139.552 42.8569C137.311 42.8569 134.308 44.4027 131.813 46.5663C131.762 46.6174 131.354 46.9785 131.405 46.4116C131.405 45.8448 131.507 44.7116 131.558 43.939C131.609 43.2174 131.202 42.8569 131.202 42.8569C129.572 43.6811 124.99 44.7632 123.31 44.9174C122.088 45.1753 121.783 46.3601 123.056 46.7722H123.107C124.481 47.1843 125.397 47.6479 126.11 48.1116C126.619 48.5237 126.568 49.0906 126.568 49.5542C126.619 53.4179 126.619 59.3421 126.467 62.5879C126.416 63.8758 126.06 64.339 125.143 64.5453L125.245 64.4937C124.532 64.6484 123.972 64.8027 123.106 64.9058C122.801 65.2148 122.801 66.8637 123.106 67.2242C123.666 67.2242 126.619 67.0695 129.064 67.0695C132.424 67.0695 134.155 67.2242 135.021 67.2242C135.377 66.8121 135.479 65.2663 135.275 64.9058C134.308 64.8542 133.595 64.7516 132.933 64.5453C132.017 64.339 131.762 63.8758 131.711 62.7937C131.609 60.0632 131.609 54.2937 131.609 50.3785C131.609 49.2964 131.915 48.7811 132.22 48.4722C133.391 47.4421 135.275 46.7206 136.955 46.7206C138.584 46.7206 139.654 47.2358 140.468 47.9058C141.588 48.8327 141.945 50.1722 142.098 51.1511C142.352 53.3663 142.251 57.7453 142.251 61.5574C142.251 63.6179 142.098 64.1332 141.334 64.3906C140.978 64.5453 140.061 64.7516 138.992 64.8542C138.635 65.2148 138.737 66.8121 138.992 67.1726C140.468 67.1726 142.2 67.0179 144.745 67.0179C147.902 67.0179 149.939 67.1726 150.753 67.1726C151.008 66.8637 151.11 65.3695 150.906 64.9574ZM165.01 45.2785C162.311 45.2785 160.631 47.3906 160.631 50.6874C160.631 54.0358 162.107 57.8995 166.282 57.8995C166.995 57.8995 168.319 57.5906 168.93 56.8695C169.897 55.9421 170.559 54.0874 170.559 52.13C170.559 47.8542 168.471 45.2785 165.01 45.2785ZM164.653 68.0484C163.635 68.0484 162.922 68.3574 162.464 68.6153C160.325 70.0058 159.358 71.3453 159.358 72.9426C159.358 74.4363 159.918 75.6211 161.14 76.6516C162.616 77.9395 164.653 78.5579 167.249 78.5579C172.443 78.5579 174.734 75.7242 174.734 72.9426C174.734 70.9847 173.767 69.6969 171.781 68.9758C170.355 68.3574 167.759 68.0484 164.653 68.0484ZM165.01 81.4426C161.904 81.4426 159.663 80.7726 157.729 79.2789C155.845 77.8363 155.03 75.6726 155.03 74.1789C155.03 73.7668 155.132 72.6332 156.049 71.6031C156.608 70.9847 157.83 69.8 160.733 67.791C160.834 67.7395 160.885 67.6879 160.885 67.5847C160.885 67.4816 160.783 67.3784 160.682 67.3274C158.288 66.4 157.576 64.9058 157.372 64.0816V63.9785C157.321 63.6695 157.219 63.3605 157.678 63.0511C158.034 62.7937 158.543 62.4847 159.103 62.1242C159.969 61.609 160.885 61.0421 161.445 60.5785C161.547 60.4753 161.547 60.3726 161.547 60.2695C161.547 60.1663 161.445 60.0632 161.343 60.0121C157.78 58.8269 155.998 56.1479 155.998 52.13C155.998 49.5027 157.168 47.1327 159.256 45.639C160.682 44.5053 164.245 43.1148 166.588 43.1148H166.741C169.133 43.1659 170.457 43.6811 172.341 44.3511C173.359 44.7116 174.327 44.8659 175.651 44.8659C177.636 44.8659 178.502 44.2479 179.214 43.5269C179.265 43.6295 179.367 43.8874 179.418 44.5569C179.469 45.2269 179.265 46.2053 178.756 46.9269C178.349 47.4932 177.433 47.9058 176.516 47.9058H176.261C175.345 47.8027 174.938 47.6995 174.938 47.6995L174.734 47.8027C174.683 47.9058 174.734 48.0085 174.785 48.1632L174.836 48.2663C174.938 48.73 175.141 50.1206 175.141 50.4816C175.141 54.7058 173.461 56.5601 171.679 57.9511C169.948 59.239 167.963 60.0632 165.722 60.2695C165.671 60.2695 165.468 60.2695 165.01 60.3211C164.755 60.3211 164.398 60.3726 164.347 60.3726H164.296C163.889 60.4753 162.871 60.9906 162.871 61.8663C162.871 62.639 163.329 63.5663 165.518 63.7211C165.977 63.7726 166.435 63.7726 166.944 63.8242C169.846 64.03 173.461 64.2879 175.141 64.8542C177.483 65.73 178.96 67.8421 178.96 70.3668C178.96 74.1789 176.261 77.7336 171.781 79.9484C169.592 80.9274 167.402 81.4426 165.01 81.4426ZM194.031 45.5358C192.961 45.5358 191.994 45.7932 191.281 46.3085C189.296 47.5448 188.277 50.0179 188.277 53.6237C188.277 60.3726 191.638 65.1121 196.424 65.1121C197.849 65.1121 198.969 64.7 199.937 63.8758C201.413 62.639 202.177 60.1663 202.177 56.7148C202.177 50.0179 198.867 45.5358 194.031 45.5358ZM194.947 67.5847C186.292 67.5847 183.186 61.1453 183.186 55.1179C183.186 50.8937 184.866 47.6479 188.226 45.3295C190.62 43.8358 193.471 43.0116 196.016 43.0116C202.635 43.0116 207.269 47.8027 207.269 54.7058C207.269 59.3937 205.436 63.1027 201.922 65.3695C200.242 66.5027 197.341 67.5847 194.947 67.5847ZM104.217 45.5358C103.148 45.5358 102.181 45.7932 101.468 46.3085C99.4821 47.5448 98.4636 50.0179 98.4636 53.6237C98.4636 60.3726 101.824 65.1121 106.61 65.1121C108.036 65.1121 109.156 64.7 110.123 63.8758C111.599 62.639 112.364 60.1663 112.364 56.7148C112.364 50.0179 109.105 45.5358 104.217 45.5358ZM105.134 67.5847C96.4781 67.5847 93.3721 61.1453 93.3721 55.1179C93.3721 50.8937 95.0523 47.6479 98.4126 45.3295C100.806 43.8358 103.657 43.0116 106.203 43.0116C112.822 43.0116 117.455 47.8027 117.455 54.7058C117.455 59.3937 115.622 63.1027 112.109 65.3695C110.48 66.5027 107.577 67.5847 105.134 67.5847ZM46.9381 67.0695C46.8361 66.9153 46.7342 66.4516 46.7851 65.8848C46.7851 65.4726 46.8871 65.2148 46.9381 65.1121C48.007 64.9574 48.5672 64.8027 49.1779 64.6484C50.1964 64.3906 50.6037 63.8242 50.6547 62.5363C50.8076 59.4453 50.8076 53.5722 50.7566 49.5027V49.3995C50.7566 48.9358 50.7566 48.369 50.1964 47.9569C49.3818 47.4421 48.4143 46.9785 47.1415 46.6174C46.6832 46.4632 46.3778 46.2053 46.4288 45.8964C46.4288 45.5874 46.7342 45.2269 47.3963 45.1237C49.0765 44.969 53.4548 43.8874 55.1859 43.1148C55.2878 43.2174 55.4408 43.5269 55.4408 43.939L55.3898 44.5053C55.3388 45.0722 55.2879 45.7421 55.2879 46.4116C55.2879 46.6174 55.4917 46.7722 55.6951 46.7722C55.7971 46.7722 55.899 46.7206 56.001 46.669C59.2593 44.0932 62.2124 43.1659 63.7396 43.1659C66.2348 43.1659 68.1694 44.3511 69.6461 46.8237C69.7476 46.9785 69.8495 47.0295 70.0024 47.0295C70.1044 47.0295 70.2568 46.9785 70.3078 46.8753C73.3118 44.5569 76.3158 43.1659 78.3013 43.1659C83.0364 43.1659 85.8369 46.7206 85.8369 52.7479C85.8369 54.4479 85.8369 56.6632 85.786 58.6726C85.786 60.4753 85.735 62.1242 85.735 63.309C85.735 63.5663 86.0913 64.3906 86.6515 64.5453C87.3642 64.9058 88.3317 65.0605 89.6045 65.2663H89.6555C89.7575 65.6269 89.5536 66.9663 89.3502 67.2242C89.0443 67.2242 88.5861 67.2242 88.0773 67.1726C87.1098 67.1211 85.735 67.0695 84.2077 67.0695C81.0508 67.0695 79.4217 67.1211 77.843 67.2242C77.7415 66.8121 77.6906 65.5758 77.843 65.2663C78.7595 65.1121 79.2178 64.9574 79.778 64.8027C80.7965 64.4937 81.0508 64.03 81.1018 62.6906C81.1018 61.7121 81.3052 53.3663 80.9999 51.3569C80.6945 49.2964 79.1668 46.8753 75.8065 46.8753C74.5336 46.8753 72.5481 47.3906 70.6131 48.8843C70.5117 48.9874 70.4097 49.2448 70.4097 49.3995V49.4511C70.6131 50.5327 70.6131 51.7695 70.6131 53.6753V57.0237C70.6131 59.3421 70.5622 61.5058 70.6131 63.1542C70.6131 64.2879 71.2753 64.5453 71.8355 64.7516C72.1408 64.8027 72.3443 64.8542 72.5991 64.9058C73.0574 65.009 73.5156 65.1121 74.2283 65.2663C74.3302 65.4726 74.3302 66.1421 74.1773 66.709C74.1264 67.0179 74.0244 67.1726 73.9739 67.2242C72.2428 67.1726 70.4607 67.1211 67.864 67.1211C67.1004 67.1211 65.7766 67.1726 64.6561 67.1726C63.7396 67.1726 62.874 67.2242 62.3653 67.2242C62.3143 67.1211 62.2124 66.7605 62.2124 66.1937C62.2124 65.73 62.3143 65.3695 62.4162 65.2663C62.6706 65.2148 62.874 65.1637 63.1289 65.1637C63.7396 65.0605 64.2488 64.9574 64.7581 64.8542C65.6236 64.5969 65.929 64.1332 65.98 63C66.1329 60.4242 66.2853 53.0574 65.929 51.2027C65.3183 48.2148 63.6381 46.7206 60.9395 46.7206C59.3613 46.7206 57.3753 47.4932 55.7461 48.73C55.4917 48.9358 55.2879 49.4511 55.2879 49.9148V52.9542C55.2879 56.6632 55.2879 61.3 55.3388 63.309C55.3898 63.9269 55.5932 64.6484 56.7646 64.9058C57.019 64.9574 57.4263 65.0605 57.9355 65.1121L58.8521 65.2663C58.954 65.5758 58.903 66.8121 58.6991 67.2242C58.1899 67.2242 57.5792 67.1726 56.8661 67.1726C55.7971 67.1211 54.4223 67.0695 52.8951 67.0695C51.113 67.0695 49.8401 67.1211 48.8216 67.1726C48.109 67.0695 47.5488 67.0695 46.9381 67.0695Z" />
<path fillRule="evenodd" clipRule="evenodd" d="M20.1565 79.4336L18.0691 78.7121C18.0691 78.7121 18.3239 67.9453 14.5054 67.1726C11.9597 64.1847 14.9127 -59.5571 24.0771 66.7605C24.0771 66.7605 20.9206 68.3574 20.3604 71.0879C19.7492 73.7668 20.1565 79.4336 20.1565 79.4336Z" />
<path fillRule="evenodd" clipRule="evenodd" d="M20.1565 79.4336L18.0691 78.7121C18.0691 78.7121 18.3239 67.9453 14.5054 67.1726C11.9597 64.1847 14.9127 -59.5571 24.0771 66.7605C24.0771 66.7605 20.9206 68.3574 20.3604 71.0879C19.7492 73.7668 20.1565 79.4336 20.1565 79.4336Z" />
<path fillRule="evenodd" clipRule="evenodd" d="M21.277 69.0274C21.277 69.0274 39.5553 56.8695 35.2784 31.5748C31.1545 13.1838 21.4294 7.15643 20.3605 4.83803C19.1896 3.1896 18.0691 0.304856 18.0691 0.304856L18.8332 51.46C18.8332 51.5116 17.2545 67.1211 21.277 69.0274Z" />
<path fillRule="evenodd" clipRule="evenodd" d="M21.277 69.0274C21.277 69.0274 39.5553 56.8695 35.2784 31.5748C31.1545 13.1838 21.4294 7.15643 20.3605 4.83803C19.1896 3.1896 18.0691 0.304856 18.0691 0.304856L18.8332 51.46C18.8332 51.5116 17.2545 67.1211 21.277 69.0274Z" />
<path fillRule="evenodd" clipRule="evenodd" d="M17.0001 69.6968C17.0001 69.6968 -0.158216 57.8479 0.860261 36.9842C1.82729 16.1201 13.9452 5.86848 16.287 4.01376C17.8147 2.36534 17.8657 1.74694 17.9676 0.0985107C19.0366 2.41691 18.8332 34.769 18.9856 38.5811C19.4439 53.2631 18.171 66.9152 17.0001 69.6968Z" />
<path fillRule="evenodd" clipRule="evenodd" d="M17.0001 69.6968C17.0001 69.6968 -0.158216 57.8479 0.860261 36.9842C1.82729 16.1201 13.9452 5.86848 16.287 4.01376C17.8147 2.36534 17.8657 1.74694 17.9676 0.0985107C19.0366 2.41691 18.8332 34.769 18.9856 38.5811C19.4439 53.2631 18.171 66.9152 17.0001 69.6968Z"/>
</svg>
