<svg viewBox="0 0 142 139" xmlns="http://www.w3.org/2000/svg">
<path d="M70.9698 0C31.7794 0 0 31.6972 0 70.7993C0 102.08 20.335 128.619 48.5335 137.981C52.0803 138.636 53.3825 136.445 53.3825 134.575C53.3825 132.886 53.3167 127.309 53.2861 121.393C33.5423 125.676 29.3761 113.04 29.3761 113.04C26.1477 104.857 21.4961 102.681 21.4961 102.681C15.0571 98.2864 21.9815 98.3767 21.9815 98.3767C29.1081 98.8761 32.8606 105.673 32.8606 105.673C39.1904 116.496 49.4631 113.367 53.5129 111.558C54.1499 106.982 55.9892 103.859 58.0188 102.091C42.2554 100.301 25.6847 94.2299 25.6847 67.1016C25.6847 59.3719 28.457 53.0561 32.9969 48.098C32.2601 46.3148 29.8309 39.1138 33.6845 29.3618C33.6845 29.3618 39.644 27.4589 53.2062 36.619C58.8673 35.0503 64.9385 34.2636 70.9698 34.2366C77.0011 34.2636 83.077 35.0503 88.7487 36.619C102.294 27.4589 108.246 29.3618 108.246 29.3618C112.109 39.1138 109.678 46.3148 108.942 48.098C113.492 53.0561 116.246 59.3719 116.246 67.1016C116.246 94.2944 99.6431 100.282 83.8398 102.035C86.3853 104.232 88.6535 108.54 88.6535 115.146C88.6535 124.619 88.5712 132.243 88.5712 134.575C88.5712 136.459 89.8487 138.666 93.4461 137.971C121.629 128.599 141.938 102.07 141.938 70.7993C141.938 31.6972 110.164 0 70.9698 0Z" fill="#161614"/>
</svg>
