<svg viewBox="0 0 89 104" fill="none" xmlns="http://www.w3.org/2000/svg">
<path fillRule="evenodd" clipRule="evenodd" d="M80.3322 53.0882H68.9479C68.2209 53.0882 67.5434 52.7407 67.1322 52.1582C66.7224 51.577 66.6308 50.8365 66.8917 50.1775L71.5293 38.4529L71.5686 38.3507C72.7414 35.2225 73.333 31.9465 73.333 28.6029C73.333 12.9267 60.2179 0.173584 44.0965 0.173584C27.9761 0.173584 14.8589 12.9267 14.8589 28.6029C14.8589 30.5585 15.0653 32.5108 15.4691 34.4063C15.7326 35.6426 16.0937 36.8908 16.5392 38.1138C16.5483 38.1358 16.5562 38.1609 16.5623 38.1845L16.8819 39.0094L16.919 39.1078L21.2024 50.1925C21.4568 50.8504 21.364 51.5877 20.9503 52.1663C20.5409 52.7416 19.864 53.0876 19.1397 53.0876H7.86324C3.54532 53.0876 0.034729 56.5019 0.034729 60.7006C0.034729 64.8967 3.54532 68.3124 7.86324 68.3124H19.8385C20.7313 68.3124 21.5356 68.836 21.8753 69.6392C22.216 70.4411 22.0235 71.3648 21.3878 71.9769L12.6273 80.4108C11.157 81.8414 10.3411 83.7534 10.3411 85.786C10.3411 87.8199 11.157 89.7307 12.636 91.1692C14.1125 92.6073 16.08 93.3978 18.17 93.3978C20.2612 93.3978 22.2235 92.6094 23.6965 91.1777L32.5161 82.6858C32.9369 82.279 33.4973 82.0664 34.0651 82.0664C34.3501 82.0664 34.638 82.1191 34.9132 82.2304C35.7324 82.5634 36.266 83.3423 36.266 84.2063V95.9356C36.266 100.133 39.7791 103.548 44.0945 103.548C48.4113 103.548 51.9244 100.133 51.9244 95.9356V84.2169C51.9244 83.3518 52.4573 82.5717 53.2801 82.2388C54.0994 81.9049 55.0463 82.0875 55.6769 82.6965L64.4503 91.1635C65.9349 92.6075 67.9015 93.3979 69.9912 93.3979C72.0815 93.3979 74.0483 92.6075 75.5264 91.1693C77.0057 89.7302 77.8192 87.8204 77.8192 85.786C77.8192 83.7533 77.0018 81.8392 75.521 80.3977L66.7906 71.974C66.1573 71.3617 65.9674 70.4404 66.3066 69.6381C66.6474 68.8361 67.4494 68.3125 68.3422 68.3125H80.3301C84.6453 68.3125 88.1575 64.8968 88.1575 60.7007C88.1578 56.5023 84.6465 53.088 80.331 53.088L80.3322 53.0882ZM35.6997 22.6574C32.122 22.6574 29.2113 25.4875 29.2113 28.9668C29.2113 32.4454 32.122 35.2761 35.6997 35.2761C39.2771 35.2761 42.1878 32.4454 42.1878 28.9668C42.1878 25.4875 39.2771 22.6574 35.6997 22.6574ZM58.3861 33.4293C55.8584 35.8884 51.7411 35.8875 49.2122 33.4293C46.6812 30.9671 46.6812 26.965 49.2122 24.5037C51.74 22.0467 55.8566 22.0454 58.3861 24.5048C59.3862 25.4784 61.0093 25.4784 62.0104 24.5048C63.0104 23.5322 63.0104 21.9548 62.0104 20.9824C57.4824 16.5807 50.1159 16.577 45.5883 20.9813C45.2854 21.2761 45.0061 21.5839 44.7441 21.9031C42.6136 19.328 39.3528 17.6742 35.6988 17.6742C29.296 17.6742 24.0871 22.7402 24.0871 28.9661C24.0871 35.1921 29.296 40.2581 35.6988 40.2581C39.3528 40.2581 42.6136 38.6037 44.7441 36.0291C45.0059 36.3486 45.2852 36.6554 45.5883 36.9511C47.852 39.1526 50.8258 40.2533 53.7993 40.2533C56.7732 40.2533 59.7455 39.1526 62.0104 36.9511C63.0104 35.9784 63.0104 34.4009 62.0104 33.4289C61.0093 32.4547 59.3862 32.4551 58.3861 33.4293Z" fill="#AA5EEA"/>
</svg>
