<svg viewBox="0 0 142 88" xmlns="http://www.w3.org/2000/svg">
<path d="M70.1473 87.3795C69.6704 87.3795 69.2253 87.2519 68.8119 87.0286L64.5833 84.5082C63.9474 84.1572 64.2654 84.0296 64.4561 83.9658C65.3146 83.6786 65.4736 83.6148 66.3638 83.1044C66.4592 83.0406 66.5863 83.0725 66.6817 83.1363L69.9247 85.0824C70.0519 85.1462 70.2109 85.1462 70.3063 85.0824L82.9922 77.7126C83.1193 77.6488 83.1829 77.5212 83.1829 77.3617V62.6539C83.1829 62.4944 83.1193 62.3667 82.9922 62.3029L70.3063 54.965C70.1791 54.9012 70.0201 54.9012 69.9247 54.965L57.2389 62.3029C57.1117 62.3667 57.0481 62.5263 57.0481 62.6539V77.3617C57.0481 77.4893 57.1117 77.6488 57.2389 77.7126L60.7044 79.7225C62.5803 80.6797 63.7567 79.563 63.7567 78.4464V63.93C63.7567 63.7386 63.9156 63.5472 64.1382 63.5472H65.7597C65.9505 63.5472 66.1412 63.7067 66.1412 63.93V78.4464C66.1412 80.9668 64.7741 82.4344 62.3895 82.4344C61.6582 82.4344 61.086 82.4344 59.4645 81.6368L56.1261 79.7225C55.2994 79.244 54.7907 78.3507 54.7907 77.3936V62.6858C54.7907 61.7287 55.2994 60.8353 56.1261 60.3568L68.8119 52.9869C69.6068 52.5403 70.6878 52.5403 71.4827 52.9869L84.1685 60.3568C84.9952 60.8353 85.5039 61.7287 85.5039 62.6858V77.3936C85.5039 78.3507 84.9952 79.244 84.1685 79.7225L71.4827 87.0924C71.0693 87.2838 70.5924 87.3795 70.1473 87.3795ZM74.058 77.2659C68.494 77.2659 67.3494 74.7136 67.3494 72.5441C67.3494 72.3527 67.5084 72.1613 67.7309 72.1613H69.3842C69.575 72.1613 69.734 72.2889 69.734 72.4803C69.9883 74.1712 70.7196 75.0007 74.0898 75.0007C76.7605 75.0007 77.9051 74.3946 77.9051 72.9589C77.9051 72.1294 77.5871 71.5232 73.4221 71.1084C69.9565 70.7575 67.7945 69.9918 67.7945 67.2162C67.7945 64.6319 69.9565 63.1005 73.5811 63.1005C77.6507 63.1005 79.6538 64.5043 79.9081 67.5671C79.9081 67.6628 79.8763 67.7585 79.8127 67.8542C79.7492 67.918 79.6538 67.9819 79.5584 67.9819H77.9051C77.7461 67.9819 77.5871 67.8542 77.5554 67.6947C77.1738 65.94 76.1882 65.3657 73.5811 65.3657C70.656 65.3657 70.3063 66.3866 70.3063 67.1523C70.3063 68.0776 70.7196 68.3647 74.6621 68.8752C78.5728 69.3856 80.4168 70.1194 80.4168 72.8632C80.385 75.6707 78.0959 77.2659 74.058 77.2659Z"/>
<path d="M30.7861 29.8565C30.7861 29.2822 30.4681 28.7399 29.9594 28.4527L16.4787 20.6681C16.2561 20.5405 16.0018 20.4767 15.7474 20.4448H15.6203C15.3659 20.4448 15.1116 20.5405 14.889 20.6681L1.40825 28.4527C0.899546 28.7399 0.581604 29.2822 0.581604 29.8565L0.613398 50.7856C0.613398 51.0727 0.772369 51.3598 1.02672 51.4875C1.28108 51.647 1.59902 51.647 1.82158 51.4875L9.83371 46.8933C10.3424 46.6061 10.6604 46.0638 10.6604 45.4895V35.6949C10.6604 35.1207 10.9783 34.5783 11.487 34.2912L14.889 32.3131C15.1433 32.1536 15.4295 32.0898 15.7156 32.0898C16.0018 32.0898 16.2879 32.1536 16.5105 32.3131L19.9125 34.2912C20.4212 34.5783 20.7391 35.1207 20.7391 35.6949V45.4895C20.7391 46.0638 21.0571 46.6061 21.5658 46.8933L29.5779 51.4875C29.8323 51.647 30.1502 51.647 30.4046 51.4875C30.6589 51.3598 30.8179 51.0727 30.8179 50.7856L30.7861 29.8565Z"/>
<path d="M95.5827 1.04713C95.3283 0.919512 95.0104 0.919512 94.7878 1.04713C94.5335 1.20665 94.3745 1.46188 94.3745 1.74902V22.4867C94.3745 22.6781 94.2791 22.8695 94.0883 22.9971C93.8976 23.0928 93.7068 23.0928 93.516 22.9971L90.1459 21.051C89.6371 20.7638 89.0331 20.7638 88.5244 21.051L75.0436 28.8675C74.5349 29.1546 74.217 29.697 74.217 30.2712V45.8723C74.217 46.4466 74.5349 46.989 75.0436 47.2761L88.5244 55.0926C89.0331 55.3797 89.6371 55.3797 90.1459 55.0926L103.627 47.2761C104.135 46.989 104.453 46.4466 104.453 45.8723V6.98128C104.453 6.37511 104.135 5.83274 103.627 5.5456L95.5827 1.04713ZM94.3427 40.7358C94.3427 40.8953 94.2791 41.0229 94.1519 41.0867L89.5418 43.7667C89.4146 43.8305 89.2556 43.8305 89.1284 43.7667L84.5183 41.0867C84.3911 41.0229 84.3275 40.8634 84.3275 40.7358V35.3759C84.3275 35.2164 84.3911 35.0888 84.5183 35.025L89.1284 32.345C89.2556 32.2812 89.4146 32.2812 89.5418 32.345L94.1519 35.025C94.2791 35.0888 94.3427 35.2483 94.3427 35.3759V40.7358Z"/>
<path d="M140.444 35.2483C140.953 34.9611 141.239 34.4188 141.239 33.8445V30.0479C141.239 29.4736 140.921 28.9313 140.444 28.6441L127.059 20.8596C126.55 20.5724 125.946 20.5724 125.437 20.8596L111.957 28.676C111.448 28.9632 111.13 29.5056 111.13 30.0798V45.6809C111.13 46.2552 111.448 46.7976 111.957 47.0847L125.342 54.7417C125.851 55.0288 126.455 55.0288 126.932 54.7417L135.039 50.2113C135.294 50.0837 135.453 49.7965 135.453 49.5094C135.453 49.2223 135.294 48.9351 135.039 48.8075L121.495 40.991C121.241 40.8315 121.082 40.5763 121.082 40.2891V35.4078C121.082 35.1207 121.241 34.8335 121.495 34.7059L125.724 32.2812C125.978 32.1217 126.296 32.1217 126.55 32.2812L130.779 34.7059C131.033 34.8654 131.192 35.1207 131.192 35.4078V39.2363C131.192 39.5234 131.351 39.8106 131.605 39.9382C131.86 40.0977 132.178 40.0977 132.432 39.9382L140.444 35.2483Z"/>
<path d="M126.042 34.5145C126.137 34.4507 126.264 34.4507 126.359 34.5145L128.935 36.014C129.03 36.0778 129.094 36.1735 129.094 36.3011V39.3001C129.094 39.4277 129.03 39.5234 128.935 39.5872L126.359 41.0867C126.264 41.1505 126.137 41.1505 126.042 41.0867L123.466 39.5872C123.371 39.5234 123.307 39.4277 123.307 39.3001V36.3011C123.307 36.1735 123.371 36.0778 123.466 36.014L126.042 34.5145Z"/>
<path d="M53.521 20.766C53.0123 20.4788 52.4083 20.4788 51.8995 20.766L38.5142 28.5186C38.0055 28.8058 37.7193 29.3482 37.7193 29.9224V45.4597C37.7193 46.034 38.0373 46.5763 38.5142 46.8635L51.8995 54.6162C52.4083 54.9033 53.0123 54.9033 53.521 54.6162L66.9064 46.8635C67.4151 46.5763 67.7013 46.034 67.7013 45.4597V29.9224C67.7013 29.3482 67.3833 28.8058 66.9064 28.5186L53.521 20.766Z"/>
</svg>
