<svg viewBox="0 0 221 46" xmlns="http://www.w3.org/2000/svg">
<path d="M164.469 16.5382V44.8516H155.496V12.1044L164.469 16.5382Z" />
<path d="M37.4792 39.5943L44.2088 45.5484L72.5603 30.5366L69.6317 23.379L37.4792 39.5943ZM155.496 21.3521L178.302 9.31736L174.439 2.53988L155.496 12.1044V21.3521Z" />
<path d="M91.316 14.3213V44.8516H82.717V1.3364L91.316 14.3213ZM37.4792 39.5943L44.2088 45.5484L57.1695 12.6111L52.9947 1.3364L37.4792 39.5943Z" />
<path d="M52.9947 1.3364H61.8428L78.2307 44.8516H69.1332L52.9947 1.3364ZM92.6245 1.3364L111.505 31.0433V44.8516L82.717 1.3364H92.6245ZM127.706 1.3364H136.616V44.8516H127.706V1.3364ZM141.788 9.31736V1.3364H173.754L178.302 9.31736L141.788 9.31736Z" />
<path d="M204.66 28.3196V44.8516H195.812V28.3196" />
<path d="M210.766 1.3364L195.812 28.3196H204.66L220.175 1.3364H210.766Z" />
<path d="M195.812 28.3196L180.359 1.3364H190.079L200.485 19.832L195.812 28.3196Z" />
<path d="M4.2674 6.40367C4.2674 12.4211 7.94375 16.0315 15.2965 17.9317L23.0853 19.7686C30.0642 21.4155 34.3013 25.4693 34.3013 32.0568C34.3637 34.9071 33.429 37.6941 31.7466 39.9744C31.7466 33.3869 28.3818 29.8398 20.3437 27.6862L12.6794 25.9127C6.5106 24.5192 1.77496 21.1621 1.77496 14.0046C1.77496 11.2809 2.64731 8.55726 4.2674 6.40367Z" />
<path d="M111.505 1.3364H120.104V44.8516H111.505V1.3364Z" />
<path d="M26.9486 30.4099C30.2511 32.5635 31.7466 35.6038 31.7466 39.9744C28.9426 43.5848 24.1446 45.5484 18.4743 45.5484C8.94073 45.5484 2.14882 40.7345 0.715668 32.4368H9.8754C11.0593 36.2373 14.1749 38.0108 18.412 38.0108C23.4592 38.0741 26.8863 35.2871 26.9486 30.4099ZM4.2674 6.34033C6.94678 2.79324 11.5578 0.639648 17.1658 0.639648C26.9486 0.639648 32.5566 5.89695 33.9898 13.2445H25.1416C24.1446 10.3308 21.7145 8.05054 17.2904 8.05054C12.4925 8.11388 9.25229 10.9009 9.06535 15.3347C5.85448 13.5347 4.14278 10.0141 4.2674 6.34033Z" />
</svg>
