<svg viewBox="0 0 352 212" xmlns="http://www.w3.org/2000/svg">
    <path d="M176.128 0.69604C129.327 0.69604 100.076 24.1393 88.3758 71.0259C105.926 47.5826 126.402 38.7914 149.803 44.6522C163.154 47.9961 172.697 57.6997 183.26 68.4413C200.467 85.9391 220.382 106.191 263.881 106.191C310.682 106.191 339.933 82.7476 351.633 35.861C334.083 59.3043 313.607 68.0955 290.207 62.2347C276.855 58.8907 267.312 49.1872 256.749 38.4456C239.542 20.9478 219.627 0.69604 176.128 0.69604ZM88.3758 106.191C41.5745 106.191 12.3236 129.634 0.623291 176.521C18.1738 153.077 38.6494 144.286 62.05 150.147C75.4014 153.491 84.9443 163.194 95.5071 173.936C112.714 191.434 132.63 211.686 176.128 211.686C222.93 211.686 252.18 188.242 263.881 141.356C246.33 164.799 225.855 173.59 202.454 167.729C189.103 164.386 179.56 154.682 168.997 143.94C151.79 126.443 131.874 106.191 88.3758 106.191Z" fill="url(#paint0_linear_49_627)"/>
<defs>
<linearGradient id="paint0_linear_49_627" x1="85.7569" y1="217.664" x2="389.187" y2="392.296" gradientUnits="userSpaceOnUse">
    <stop stopColor="#2298BD"/>
    <stop offset="1" stopColor="#0ED7B5"/>
</linearGradient>
</defs>
</svg>
