<svg viewBox="0 0 143 87" xmlns="http://www.w3.org/2000/svg">
    <path d="M71.2662 0.861816C52.3988 0.861816 40.6068 10.3708 35.8899 29.3887C42.9652 19.8798 51.2196 16.3139 60.6533 18.6911C66.0357 20.0475 69.8828 23.9834 74.1411 28.3404C81.078 35.4378 89.1065 43.6522 106.642 43.6522C125.51 43.6522 137.302 34.1432 142.019 15.1253C134.943 24.6343 126.689 28.2001 117.255 25.8229C111.873 24.4665 108.026 20.5306 103.767 16.1736C96.8306 9.07625 88.802 0.861816 71.2662 0.861816ZM35.8899 43.6522C17.0226 43.6522 5.23056 53.1612 0.513733 72.1791C7.58898 62.6701 15.8434 59.1043 25.2771 61.4815C30.6595 62.8379 34.5066 66.7738 38.7649 71.1308C45.7017 78.2282 53.7303 86.4426 71.2662 86.4426C90.1335 86.4426 101.926 76.9336 106.642 57.9157C99.5671 67.4246 91.3127 70.9905 81.879 68.6133C76.4966 67.2569 72.6495 63.321 68.3913 58.964C61.4544 51.8666 53.4258 43.6522 35.8899 43.6522Z"/>
</svg>
    