<svg viewBox="0 0 89 88" xmlns="http://www.w3.org/2000/svg">
<path d="M44.7249 0.745483C20.3935 0.745483 0.663177 20.5824 0.663177 45.0536C0.663177 64.6301 13.2882 81.2386 30.7953 87.0974C32.9974 87.5076 33.8058 86.1363 33.8058 84.966C33.8058 83.9094 33.7649 80.4191 33.746 76.7167C21.488 79.397 18.9014 71.4889 18.9014 71.4889C16.897 66.3675 14.0091 65.0057 14.0091 65.0057C10.0114 62.2557 14.3104 62.3122 14.3104 62.3122C18.735 62.6248 21.0648 66.8782 21.0648 66.8782C24.9946 73.6519 31.3724 71.6936 33.8868 70.5615C34.2823 67.6978 35.4242 65.7431 36.6843 64.6367C26.8975 63.5163 16.6096 59.7171 16.6096 42.7394C16.6096 37.902 18.3308 33.9494 21.1494 30.8465C20.6919 29.7305 19.1837 25.224 21.5762 19.1209C21.5762 19.1209 25.2763 17.93 33.6964 23.6626C37.2111 22.6809 40.9804 22.1886 44.7249 22.1717C48.4695 22.1886 52.2417 22.6809 55.763 23.6626C64.1729 17.93 67.8678 19.1209 67.8678 19.1209C70.2661 25.224 68.7572 29.7305 68.2997 30.8465C71.1249 33.9494 72.8345 37.902 72.8345 42.7394C72.8345 59.7574 62.5268 63.5046 52.7153 64.6015C54.2957 65.9765 55.7039 68.6729 55.7039 72.8067C55.7039 78.7352 55.6528 83.5066 55.6528 84.966C55.6528 86.1451 56.4459 87.5267 58.6794 87.0916C76.177 81.2262 88.786 64.6235 88.786 45.0536C88.786 20.5824 69.0586 0.745483 44.7249 0.745483Z" />
</svg>
