<svg viewBox="0 0 355 71" xmlns="http://www.w3.org/2000/svg">
<path d="M264.775 25.1245V69.8682H250.266V18.1177L264.775 25.1245Z" fill="#F37368"/>
<path d="M59.4433 61.5601L70.3244 70.9692L116.166 47.2461L111.431 35.9351L59.4433 61.5601ZM250.266 32.7319L287.141 13.7134L280.895 3.00293L250.266 18.1177V32.7319Z" fill="#F7A199"/>
<path d="M146.492 21.6211V69.8682H132.589V1.10107L146.492 21.6211ZM59.4433 61.5601L70.3244 70.9692L91.2807 18.9185L84.5304 1.10107L59.4433 61.5601Z" fill="#F37368"/>
<path d="M84.5304 1.10107H98.8371L125.335 69.8682H110.625L84.5304 1.10107ZM148.608 1.10107L179.136 48.0469V69.8682L132.589 1.10107H148.608ZM205.331 1.10107H219.739V69.8682H205.331V1.10107ZM228.101 13.7134V1.10107H279.786L287.141 13.7134L228.101 13.7134Z" fill="#F04939"/>
<path d="M329.759 43.7427V69.8682H315.452V43.7427" fill="#F7A199"/>
<path d="M339.633 1.10107L315.452 43.7427H329.759L354.846 1.10107H339.633Z" fill="#F04939"/>
<path d="M315.452 43.7427L290.466 1.10107H306.183L323.009 30.3296L315.452 43.7427Z" fill="#F37368"/>
<path d="M5.74283 9.10889C5.74283 18.6182 11.6872 24.3237 23.5758 27.3267L36.1697 30.2295C47.4539 32.832 54.305 39.2383 54.305 49.6484C54.4057 54.1528 52.8944 58.5571 50.1742 62.1606C50.1742 51.7505 44.7336 46.145 31.7367 42.7417L19.3443 39.939C9.36987 37.7368 1.71277 32.4316 1.71277 21.1206C1.71277 16.8164 3.12329 12.5122 5.74283 9.10889Z" fill="#F04939"/>
<path d="M179.136 1.10107H193.04V69.8682H179.136V1.10107Z" fill="#F37368"/>
<path d="M42.4163 47.0459C47.7561 50.4492 50.1742 55.2539 50.1742 62.1606C45.6404 67.8662 37.8825 70.9692 28.7141 70.9692C13.2992 70.9692 2.31728 63.3618 0 50.249H14.8104C16.7247 56.2549 21.7623 59.0576 28.6134 59.0576C36.7742 59.1577 42.3156 54.7534 42.4163 47.0459ZM5.74283 9.00879C10.0751 3.40332 17.5307 0 26.5984 0C42.4163 0 51.4839 8.30811 53.8012 19.9194H39.4945C37.8825 15.3149 33.9532 11.7114 26.7999 11.7114C19.042 11.8115 13.8029 16.2158 13.5007 23.2227C8.30898 20.3781 5.54132 14.8145 5.74283 9.00879Z" fill="#F37368"/>
</svg>
