<svg fill='white' viewBox="0 0 112 92" xmlns="http://www.w3.org/2000/svg">
<path d="M56.1389 0.00174669C43.2567 0.136948 37.6133 8.11049 33.5671 21.1412L24.5293 50.8381L15.4898 21.143H2.34731L17.2629 70.1424C14.3927 79.4758 9.81581 80.1966 0 78.4903L1.28414 90.5346C19.9591 93.928 26.9984 85.5874 31.7975 70.1442L40.8648 40.36L50 70.1442H64.3449L73.4679 40.3757L82.5353 70.1442H97.0838L111.977 21.143H98.8325L89.8052 50.8503L80.7552 21.143H66.212L57.1707 50.6478L48.1069 21.143C50.9665 11.8089 55.5435 11.0888 65.3594 12.7951L64.0752 0.750803C61.1572 0.220575 58.5245 -0.023291 56.1389 0.00174669Z" />
<path fillRule="evenodd" clipRule="evenodd" d="M43.6367 70.0097C42.7632 70.3125 41.5155 70.4637 39.8956 70.4637L39.8712 70.8705C40.9512 70.8865 41.5234 71.0529 41.5869 71.3717V77.3239L41.4442 77.0847C41.3489 76.9254 41.2135 76.7589 41.0388 76.5836C40.88 76.4083 40.626 76.2401 40.2766 76.0807C39.9272 75.9214 39.5379 75.8415 39.1091 75.8415C37.7274 75.8415 36.5932 76.3291 35.7038 77.3012C34.8145 78.2734 34.3692 79.5151 34.3692 81.0291C34.3692 82.4633 34.7586 83.627 35.5368 84.5194C36.3309 85.3959 37.3551 85.8342 38.6097 85.8342C39.1655 85.8342 39.7208 85.6745 40.2766 85.3558C40.8325 85.0211 41.2862 84.6304 41.6356 84.1842L41.8253 85.9302C42.2064 85.8346 43.2221 85.7548 44.8738 85.691V85.4047C44.8421 85.4047 44.7388 85.3957 44.5641 85.3803C44.4053 85.3643 44.2631 85.3491 44.1361 85.3332C44.009 85.3012 43.882 85.252 43.755 85.1882C43.6279 85.1086 43.5636 85.0134 43.5636 84.9019C43.5159 83.627 43.4922 81.7787 43.4922 79.3564C43.5081 75.8186 43.5573 72.703 43.6367 70.0097ZM39.1335 76.3689C39.5305 76.3689 39.8962 76.464 40.2297 76.6552C40.5632 76.8305 40.8087 77.0378 40.9675 77.2768C41.1263 77.5159 41.2533 77.7231 41.3486 77.8984L41.4686 78.2092L41.5869 80.3603L41.4199 82.5586C41.4199 83.0845 41.1897 83.6349 40.7291 84.2086C40.2844 84.7664 39.7766 85.045 39.2048 85.045C37.6008 85.045 36.7984 83.635 36.7984 80.8143C36.7984 77.8501 37.5771 76.3689 39.1335 76.3689Z" />
<path d="M69.1248 70.3677C68.8072 70.3677 68.5059 70.5121 68.22 70.7989C67.95 71.0858 67.8146 71.4272 67.8146 71.8256C67.8146 72.2081 67.9585 72.5275 68.2443 72.7825C68.5302 73.0374 68.8231 73.1648 69.1248 73.1648C69.5377 73.1648 69.8797 73.0289 70.1497 72.758C70.4356 72.4712 70.5795 72.1127 70.5795 71.6824C70.5795 71.3318 70.4271 71.0295 70.1253 70.7745C69.8236 70.5036 69.4901 70.3677 69.1248 70.3677Z" />
<path d="M70.221 75.6023C69.3475 75.8892 68.1964 76.0726 66.7671 76.1523V76.5347C67.2753 76.5347 67.7764 76.6146 68.2687 76.7739V84.8058C68.221 85.1086 67.7199 85.2767 66.7671 85.3086V85.691C67.3864 85.6432 68.2126 85.6194 69.2449 85.6194C70.3248 85.6194 71.1899 85.6432 71.841 85.691V85.3086C70.7928 85.2927 70.2376 85.1245 70.174 84.8058C70.174 81.4273 70.1893 78.3593 70.221 75.6023Z" />
<path d="M60.7169 75.6512C59.6529 75.6512 58.7945 75.9298 58.1434 76.4876C57.4923 77.0294 57.1673 77.7786 57.1673 78.7348C57.1673 79.42 57.3805 79.9619 57.8093 80.3603C58.254 80.7587 58.8821 81.1019 59.6921 81.3888C61.582 82.074 62.5266 82.8537 62.5266 83.7302C62.5266 84.9414 61.78 85.5479 60.2871 85.5479C59.4295 85.5479 58.7558 85.2285 58.2635 84.591C57.7711 83.9376 57.4851 83.2208 57.4056 82.4399L57.0002 82.3928L57.0472 85.7382H57.4996L57.6196 85.045L58.0251 85.3087C58.3268 85.4521 58.6992 85.6033 59.1439 85.7627C59.5886 85.922 59.9695 86.0019 60.2871 86.0019C61.6529 86.0019 62.6534 85.7556 63.2887 85.2615C63.9239 84.7516 64.2422 83.9226 64.2422 82.7752C64.2422 81.6437 63.3687 80.6873 61.6217 79.9064C61.4629 79.8427 61.2242 79.7543 60.9066 79.6427C60.5889 79.5312 60.3265 79.4361 60.1201 79.3564C59.9136 79.2608 59.7003 79.1419 59.478 78.9984C59.2715 78.8391 59.1039 78.6556 58.9769 78.4484C58.8657 78.2253 58.8098 77.9773 58.8098 77.7064C58.8098 77.2283 58.9622 76.8375 59.264 76.5348C59.5816 76.216 59.9862 76.0581 60.4785 76.0581C60.8279 76.0581 61.1445 76.1057 61.4303 76.2013C61.7162 76.2809 61.9464 76.4169 62.1211 76.6081C62.2958 76.7834 62.4397 76.9499 62.5509 77.1092C62.6621 77.2686 62.7484 77.4911 62.8119 77.778C62.8754 78.0489 62.9161 78.2494 62.932 78.3769C62.9478 78.4884 62.9715 78.6549 63.0033 78.878H63.4314L63.4801 75.866H63.0277L62.9563 76.5837L62.7406 76.3445C62.5977 76.201 62.337 76.0498 61.9558 75.8905C61.5906 75.7311 61.1775 75.6512 60.7169 75.6512Z" />
<path fillRule="evenodd" clipRule="evenodd" d="M82.6327 75.7228C82.0928 75.7228 81.4579 76.049 80.7274 76.7024L80.4403 76.5348C80.2497 76.4232 79.9247 76.3128 79.4641 76.2013C79.0194 76.0897 78.5353 76.0336 78.0112 76.0336C76.9312 76.0336 76.034 76.3836 75.3193 77.0848C74.6047 77.786 74.2475 78.5827 74.2475 79.4751C74.2475 79.8257 74.3101 80.1774 74.4371 80.528C74.5642 80.8786 74.7166 81.1657 74.8913 81.3888C75.0819 81.596 75.2562 81.8032 75.415 82.0104C75.5897 82.2016 75.7082 82.3205 75.7718 82.3683C75.4541 82.5277 75.1917 82.6703 74.9853 82.7978C74.7947 82.9094 74.5966 83.1166 74.3902 83.4194C74.1837 83.7063 74.0804 84.0104 74.0804 84.3291C74.0804 84.9347 74.287 85.4035 74.6999 85.7382C75.1128 86.0729 75.5496 86.2411 76.0101 86.2411H76.2485C75.3433 86.5757 74.6526 86.9342 74.1761 87.3166C73.7156 87.6991 73.4853 88.1764 73.4853 88.7501C73.4853 89.4513 73.8019 90.0493 74.4371 90.5433C75.0883 91.0374 76.0736 91.2854 77.3917 91.2854C78.9481 91.2854 80.2432 90.9337 81.2755 90.2325C82.3237 89.5473 82.8468 88.6079 82.8468 87.4127C82.8468 86.4565 82.5843 85.7787 82.0602 85.3803C81.5362 84.9818 80.7744 84.6948 79.7738 84.5195C79.2021 84.4079 78.2186 84.3518 76.821 84.3518C75.8046 84.3518 75.2882 84.0885 75.2724 83.5626C75.2882 83.4033 75.3746 83.2453 75.5334 83.0859C75.6922 82.9107 75.8513 82.7832 76.0101 82.7036L76.2729 82.6075L76.915 82.7978C77.3596 82.9413 77.7964 83.0144 78.2252 83.0144C79.1146 83.0144 79.9644 82.695 80.7744 82.0575C81.6002 81.4041 82.0133 80.5191 82.0133 79.4035C82.0133 78.9095 81.9337 78.4712 81.7749 78.0887C81.6161 77.7063 81.4569 77.4447 81.2981 77.3013L81.0127 77.0848C81.2192 76.8298 81.5205 76.7024 81.9176 76.7024C81.9811 76.7024 82.1318 76.8536 82.37 77.1563C82.6241 77.4591 82.8476 77.6121 83.0381 77.6121C83.5146 77.6121 83.7516 77.2842 83.7516 76.6308C83.7516 76.0252 83.3792 75.7228 82.6327 75.7228ZM78.1313 76.4405C78.6553 76.4405 79.1395 76.7105 79.5842 77.2524C80.0289 77.7783 80.2506 78.5121 80.2506 79.4524C80.2506 80.5361 80.0526 81.3328 79.6555 81.8427C79.2744 82.3527 78.7902 82.6075 78.2026 82.6075C77.5673 82.6075 77.0577 82.2966 76.6766 81.6751C76.3113 81.0536 76.1302 80.2959 76.1302 79.4035C76.1302 78.5748 76.3435 77.875 76.7723 77.3013C77.2011 76.7275 77.6548 76.4405 78.1313 76.4405ZM76.915 86.2882C78.5984 86.2882 79.7428 86.4326 80.3463 86.7195C80.9657 87.0063 81.2755 87.6026 81.2755 88.5109C81.2755 89.1484 80.9724 89.6988 80.3689 90.1609C79.7654 90.639 78.9089 90.8786 77.7972 90.8786C76.9237 90.8786 76.2719 90.639 75.8431 90.1609C75.4143 89.6829 75.201 89.1562 75.201 88.5825C75.201 88.0566 75.3432 87.6031 75.6291 87.2206C75.9308 86.8381 76.2254 86.5918 76.5113 86.4803L76.915 86.2882Z" />
<path d="M88.7316 75.9376C87.7469 76.2563 86.809 76.416 85.9197 76.416C85.7608 76.416 85.6102 76.4071 85.4672 76.3916V76.774C86.166 76.8377 86.6672 76.9499 86.9689 77.1093C87.0007 78.0814 87.0158 79.3249 87.0158 80.8388C87.0158 82.4324 87.0006 83.715 86.9689 84.6871C86.9689 84.8465 86.7945 84.9891 86.4452 85.1166C86.1116 85.2441 85.7849 85.3087 85.4672 85.3087V85.6911C86.0866 85.6433 86.9128 85.6195 87.9451 85.6195C89.025 85.6195 89.8901 85.6433 90.5412 85.6911V85.3087C89.4295 85.2131 88.8742 85.0381 88.8742 84.7831V79.4524C89.0966 78.7353 89.5012 78.1288 90.0888 77.6348C90.6764 77.1408 91.2249 76.8945 91.7331 76.8945C92.3525 76.8945 92.813 77.1646 93.1147 77.7064C93.4324 78.2482 93.5915 78.9583 93.5915 79.8348C93.5915 83.0699 93.5826 84.6871 93.5672 84.6871C93.5672 84.8305 93.3843 84.9664 93.0191 85.0939C92.6538 85.2215 92.3118 85.2928 91.9942 85.3087V85.6911C92.6135 85.6273 93.3297 85.5951 94.1396 85.5951C94.5208 85.5951 95.5128 85.6273 97.1169 85.6911V85.3087C96.831 85.3087 96.4975 85.2442 96.1163 85.1166C95.7352 84.9732 95.5439 84.822 95.5439 84.6627V79.7633C95.5439 79.4445 95.5134 79.1337 95.4499 78.8309C95.4022 78.5121 95.299 78.1775 95.1402 77.8269C94.9972 77.4763 94.8059 77.1722 94.5677 76.9172C94.3295 76.6463 93.996 76.4237 93.5672 76.2484C93.1543 76.0732 92.6786 75.9865 92.1386 75.9865C90.9951 76.0024 89.9218 76.7754 88.9213 78.3053L88.7316 75.9376Z" />
<path fillRule="evenodd" clipRule="evenodd" d="M50.9257 75.962C50.3699 75.962 49.8298 76.0487 49.3058 76.2239C48.7817 76.3992 48.2568 76.6796 47.7328 77.062C47.2245 77.4286 46.8115 77.9705 46.4939 78.6876C46.1921 79.3888 46.0414 80.2093 46.0414 81.1495C46.0414 82.7591 46.4867 83.9856 47.376 84.8302C48.2813 85.6748 49.4088 86.0978 50.7587 86.0978C51.8704 86.0978 52.7676 85.8175 53.4505 85.2597C54.1334 84.686 54.5939 84.0966 54.8321 83.491L54.1657 83.0143C53.9592 83.604 53.5851 84.1697 53.0451 84.7115C52.5051 85.2533 51.7755 85.5234 50.8544 85.5234C50.0603 85.5234 49.4492 85.0613 49.0204 84.137C48.6075 83.2127 48.4009 82.1765 48.4009 81.0291V80.5035L54.8321 80.4791C54.848 80.24 54.8565 80.0328 54.8565 79.8575C54.8565 79.5388 54.8244 79.2211 54.7608 78.9024C54.5385 77.8665 54.0543 77.1174 53.3079 76.6552C52.5773 76.1931 51.7833 75.962 50.9257 75.962ZM50.402 76.416C50.9737 76.416 51.4494 76.5842 51.8305 76.9188C52.2276 77.2375 52.49 77.6503 52.6171 78.1603C52.6964 78.4631 52.7354 78.8623 52.7354 79.3563C52.7354 79.5954 52.7282 79.8502 52.7127 80.1211L48.4235 80.1455C48.4871 78.9981 48.6869 78.0892 49.0204 77.4199C49.3539 76.7506 49.8144 76.416 50.402 76.416Z" />
</svg>
