<svg viewBox="0 0 261 110"  xmlns="http://www.w3.org/2000/svg">
<path d="M18.3327 42.842C18.3327 39.9956 20.6514 38.9008 24.4918 38.9008C29.9989 38.9008 36.9552 40.5795 42.4622 43.5718V26.4204C36.4479 24.0119 30.5061 23.0631 24.4918 23.0631C9.78224 23.0631 0 30.7995 0 43.7178C0 63.8616 27.5352 60.6502 27.5352 69.3354C27.5352 72.6927 24.6368 73.7875 20.5789 73.7875C14.5647 73.7875 6.8838 71.306 0.797072 67.9487V85.319C7.53595 88.2384 14.3473 89.4792 20.5789 89.4792C35.6508 89.4792 46.0128 81.9617 46.0128 68.8975C45.9403 47.1481 18.3327 51.0163 18.3327 42.842ZM67.3163 8.46622L49.6358 12.2614L49.5634 70.7221C49.5634 81.5238 57.6066 89.4792 68.3308 89.4792C74.2726 89.4792 78.6203 88.3844 81.0115 87.0707V72.2548C78.6927 73.2036 67.2439 76.5609 67.2439 65.7592V39.8496H81.0115V24.3039H67.2439L67.3163 8.46622ZM103.547 29.7047L102.387 24.3039H86.7359V88.1654H104.851V44.8855C109.126 39.2657 116.372 40.2875 118.619 41.0904V24.3039C116.3 23.4281 107.822 21.8224 103.547 29.7047ZM123.039 24.3039H141.227V88.1654H123.039V24.3039ZM123.039 18.757L141.227 14.8159V0L123.039 3.86819V18.757ZM179.051 23.0631C171.95 23.0631 167.385 26.4204 164.849 28.7559L163.907 24.2309H147.966V109.331L166.081 105.463L166.153 84.8081C168.762 86.7057 172.602 89.4062 178.979 89.4062C191.949 89.4062 203.761 78.8964 203.761 55.7603C203.688 34.5947 191.732 23.0631 179.051 23.0631ZM174.704 73.3496C170.428 73.3496 167.892 71.8169 166.153 69.9193L166.081 42.842C167.965 40.7254 170.573 39.2657 174.704 39.2657C181.298 39.2657 185.863 46.7102 185.863 56.2712C185.863 66.0511 181.37 73.3496 174.704 73.3496ZM260.86 56.4901C260.86 37.806 251.875 23.0631 234.701 23.0631C217.456 23.0631 207.021 37.806 207.021 56.3441C207.021 78.3125 219.34 89.4062 237.02 89.4062C245.643 89.4062 252.165 87.4356 257.092 84.6622V70.0653C252.165 72.5467 246.513 74.0794 239.339 74.0794C232.31 74.0794 226.079 71.5979 225.281 62.9857H260.715C260.715 62.0369 260.86 58.2417 260.86 56.4901ZM225.064 49.5566C225.064 41.3093 230.064 37.879 234.629 37.879C239.049 37.879 243.759 41.3093 243.759 49.5566H225.064Z" fill="#6772E5"/>
</svg>
