<svg viewBox="0 0 202 181" xmlns="http://www.w3.org/2000/svg">
<path fillRule="evenodd" clipRule="evenodd" d="M159.288 56.8266C161.517 57.4741 163.682 58.1587 165.771 58.8823C187.523 66.4169 201.58 78.2191 201.58 90.4231C201.58 103.15 186.558 115.593 163.469 123.29C162.249 123.697 160.998 124.089 159.724 124.468C160.179 126.307 160.584 128.115 160.932 129.884C165.49 153.051 161.979 172.092 151.177 178.384C140.718 184.476 123.812 178.492 106.696 163.671C104.889 162.106 103.071 160.437 101.251 158.673C99.8472 160.039 98.4455 161.342 97.0489 162.57C79.3779 178.113 61.2305 184.562 50.4175 178.288C39.9489 172.212 36.6594 154.487 40.8717 132.164C41.3158 129.809 41.8449 127.395 42.4533 124.931C40.5791 124.39 38.7605 123.82 37.0079 123.217C14.7988 115.579 0.18042 102.982 0.18042 90.4231C0.18042 78.2631 13.7979 66.5399 35.1204 59.0598C37.5037 58.224 39.9944 57.4384 42.5745 56.7015C42.0106 54.4232 41.5119 52.1825 41.0853 49.9882C36.6677 27.2713 39.7761 9.11731 50.2726 3.00323C61.2191 -3.37309 79.4489 3.47432 97.636 19.723C98.7459 20.7146 99.8587 21.7513 100.973 22.824C102.646 21.2026 104.319 19.6555 105.988 18.1943C123.342 2.99818 140.524 -3.3583 151.031 2.73811C161.988 9.09603 165.197 28.4068 160.289 52.3772C159.99 53.837 159.654 55.3221 159.288 56.8266ZM157.381 116.138C158.532 115.795 159.662 115.44 160.763 115.073C180.698 108.427 192.976 98.2571 192.976 90.4232C192.976 83.0686 181.608 73.5238 162.971 67.0681C161.044 66.4004 159.044 65.7677 156.984 65.1679C154.506 73.2345 151.199 81.7578 147.182 90.4654C151.392 99.3854 154.832 108.019 157.381 116.138ZM153.46 158.311C154.795 151.071 154.507 141.81 152.492 131.566C152.177 129.967 151.812 128.331 151.401 126.664C143.06 128.604 133.861 130.025 124.125 130.894C118.59 138.957 112.918 146.217 107.243 152.463C108.939 154.104 110.629 155.656 112.307 157.109C126.945 169.784 140.518 174.589 146.865 170.892C149.848 169.155 152.26 164.817 153.46 158.311ZM54.7165 170.788C57.702 172.52 62.6409 172.457 68.842 170.253C75.7429 167.801 83.5734 162.925 91.3873 156.052C92.66 154.932 93.9397 153.744 95.2246 152.496C89.3439 146.146 83.5085 138.894 77.9358 131.004C68.1763 130.208 59.0453 128.887 50.795 127.051C50.229 129.347 49.7378 131.593 49.3252 133.779C45.7228 152.869 48.3638 167.101 54.7165 170.788ZM16.301 102.468C21.86 107.258 29.9701 111.648 39.7905 115.025C41.388 115.574 43.0481 116.096 44.7617 116.591C47.3066 108.246 50.6595 99.4843 54.7007 90.6338C50.7111 81.9129 47.4052 73.2886 44.885 65.0398C42.4813 65.727 40.1651 66.4585 37.9526 67.2347C19.7174 73.632 8.78384 83.0441 8.78384 90.4232C8.78384 93.8907 11.3058 98.1641 16.301 102.468ZM54.5832 10.4957C48.2576 14.18 45.7439 28.8625 49.5288 48.3258C49.925 50.3635 50.3892 52.4477 50.9133 54.569C59.2496 52.6688 68.3165 51.2498 77.7884 50.3664C83.3117 42.523 89.0937 35.3254 94.9453 29.0032C93.9347 28.0321 92.927 27.0936 91.9233 26.1968C76.2201 12.1669 61.3209 6.5708 54.5832 10.4957ZM130.279 59.7759C132.365 63.0653 134.411 66.447 136.403 69.9105C138.438 73.4473 140.37 76.9661 142.197 80.456C144.744 74.4562 146.907 68.6037 148.643 63.0061C142.861 61.6783 136.705 60.5933 130.279 59.7759ZM112.828 49.5865C108.919 44.3461 104.945 39.5161 100.976 35.1901C96.9457 39.5659 92.9371 44.3894 89.0242 49.5811C92.9389 49.3971 96.8973 49.3019 100.88 49.3019C104.901 49.3019 108.889 49.3993 112.828 49.5865ZM59.6368 80.4495C61.4349 76.9433 63.3313 73.4437 65.322 69.9704C67.3181 66.4877 69.3808 63.0804 71.4959 59.7608C65.1109 60.5626 58.9832 61.6206 53.237 62.9145C54.9879 68.5914 57.1313 74.4706 59.6368 80.4495ZM53.1184 118.701C58.8632 119.959 65.0829 120.963 71.6798 121.703C69.5102 118.316 67.3962 114.842 65.3561 111.296C63.3532 107.815 61.4493 104.314 59.6464 100.81C57.0879 106.918 54.8972 112.923 53.1184 118.701ZM89.0966 131.675C93.069 136.943 97.1364 141.84 101.214 146.267C105.156 141.9 109.116 136.996 113.037 131.633C109.043 131.812 104.985 131.905 100.88 131.905C96.8844 131.905 92.9528 131.827 89.0966 131.675ZM149.042 118.326C147.24 112.646 144.971 106.673 142.279 100.499C140.437 104.071 138.489 107.657 136.438 111.236C134.41 114.775 132.346 118.214 130.255 121.548C136.898 120.746 143.203 119.666 149.042 118.326ZM119.324 122.597C122.605 117.647 125.837 112.404 128.985 106.911C132.129 101.425 135.024 95.9327 137.639 90.5079C135.016 85.1748 132.115 79.7371 128.957 74.2485C125.834 68.8208 122.583 63.6045 119.253 58.6581C113.265 58.1985 107.115 57.959 100.88 57.959C94.6725 57.959 88.5305 58.1967 82.5409 58.6523C79.1589 63.6352 75.8856 68.8684 72.7753 74.2953L72.7761 74.2943C69.6741 79.7068 66.8101 85.1809 64.2089 90.6309C66.8108 96.0683 69.6816 101.536 72.8015 106.959C75.9297 112.396 79.2321 117.654 82.6456 122.669C88.5162 123.052 94.6126 123.248 100.88 123.248C107.173 123.248 113.347 123.027 119.324 122.597ZM151.863 50.6301C156.1 29.9342 153.478 14.1515 146.734 10.2382C140.402 6.56431 126.505 11.7048 111.636 24.7248C110.098 26.0727 108.552 27.5012 107.004 28.9992C112.761 35.2402 118.495 42.4491 124.029 50.3786C133.529 51.2754 142.602 52.7189 150.958 54.6589C151.288 53.2957 151.593 51.9506 151.863 50.6301Z" fill="#53C1DE"/>
<path d="M100.88 72.3272C110.812 72.3272 118.864 80.4288 118.864 90.4231C118.864 100.417 110.812 108.519 100.88 108.519C90.9478 108.519 82.8958 100.417 82.8958 90.4231C82.8958 80.4288 90.9478 72.3272 100.88 72.3272Z" fill="#53C1DE"/>
</svg>
