
<svg viewBox="0 0 352 211" xmlns="http://www.w3.org/2000/svg">
<path d="M175.505 0C128.704 0 99.4528 23.4433 87.7525 70.3299C105.303 46.8866 125.779 38.0953 149.179 43.9562C162.531 47.3001 172.074 57.0037 182.636 67.7452C199.844 85.2431 219.759 105.495 263.257 105.495C310.059 105.495 339.31 82.0515 351.01 35.1649C333.459 58.6082 312.984 67.3995 289.583 61.5386C276.232 58.1947 266.689 48.4911 256.126 37.7496C238.919 20.2517 219.004 0 175.505 0ZM87.7525 105.495C40.9512 105.495 11.7003 128.938 0 175.825C17.5505 152.381 38.0261 143.59 61.4267 149.451C74.7781 152.795 84.321 162.498 94.8838 173.24C112.091 190.738 132.006 210.99 175.505 210.99C222.306 210.99 251.557 187.546 263.257 140.66C245.707 164.103 225.231 172.894 201.831 167.033C188.479 163.689 178.936 153.986 168.374 143.244C151.166 125.747 131.251 105.495 87.7525 105.495Z" fill="url(#GradientTW)"/>
<defs>
<linearGradient id="GradientTW" x1="0%" y1="100%" x2="100%" y2="0%">
<stop offset="0%" style='stop-color:#2298BD;stop-opacity:1'/>
<stop offset="100%" style='stop-color:#0ED7B5;stop-opacity:1'/>
</linearGradient>
</defs>
</svg>

