<svg viewBox="0 0 108 164" xmlns="http://www.w3.org/2000/svg">
<path d="M26.8532 163.037C41.6762 163.037 53.7064 150.864 53.7064 135.865V108.692H26.8532C12.0302 108.692 0 120.865 0 135.865C0 150.864 12.0302 163.037 26.8532 163.037Z" fill="#0ACF83"/>
<path d="M0 81.5187C0 66.5193 12.0302 54.3458 26.8532 54.3458H53.7064V108.692H26.8532C12.0302 108.692 0 96.5182 0 81.5187Z" fill="#A259FF"/>
<path d="M0 27.1729C0 12.1735 12.0302 0 26.8532 0H53.7064V54.3458H26.8532C12.0302 54.3458 0 42.1723 0 27.1729Z" fill="#F24E1E"/>
<path d="M53.7064 0H80.5597C95.3826 0 107.413 12.1735 107.413 27.1729C107.413 42.1723 95.3826 54.3458 80.5597 54.3458H53.7064V0Z" fill="#FF7262"/>
<path d="M107.413 81.5187C107.413 96.5182 95.3826 108.692 80.5597 108.692C65.7367 108.692 53.7064 96.5182 53.7064 81.5187C53.7064 66.5193 65.7367 54.3458 80.5597 54.3458C95.3826 54.3458 107.413 66.5193 107.413 81.5187Z" fill="#1ABCFE"/>
</svg>
