<svg viewBox="0 0 227 139" fill='none' xmlns="http://www.w3.org/2000/svg">
<path d="M112.034 138.696C111.267 138.696 110.55 138.492 109.885 138.135L103.081 134.108C102.058 133.547 102.569 133.343 102.876 133.241C104.258 132.782 104.513 132.68 105.946 131.865C106.099 131.763 106.304 131.814 106.458 131.916L111.676 135.026C111.881 135.128 112.136 135.128 112.29 135.026L132.703 123.249C132.908 123.147 133.01 122.943 133.01 122.689V99.1873C133.01 98.9324 132.908 98.7284 132.703 98.6265L112.29 86.9013C112.085 86.7993 111.829 86.7993 111.676 86.9013L91.2628 98.6265C91.0582 98.7284 90.9559 98.9833 90.9559 99.1873V122.689C90.9559 122.893 91.0582 123.147 91.2628 123.249L96.8393 126.461C99.8578 127.99 101.751 126.206 101.751 124.422V101.226C101.751 100.921 102.007 100.615 102.365 100.615H104.974C105.281 100.615 105.588 100.87 105.588 101.226V124.422C105.588 128.449 103.388 130.794 99.5508 130.794C98.3742 130.794 97.4533 130.794 94.8441 129.52L89.4722 126.461C88.142 125.696 87.3235 124.269 87.3235 122.74V99.2382C87.3235 97.7089 88.142 96.2815 89.4722 95.5168L109.885 83.7406C111.164 83.0269 112.904 83.0269 114.183 83.7406L134.596 95.5168C135.926 96.2815 136.745 97.7089 136.745 99.2382V122.74C136.745 124.269 135.926 125.696 134.596 126.461L114.183 138.237C113.518 138.543 112.75 138.696 112.034 138.696ZM118.327 122.536C109.374 122.536 107.532 118.457 107.532 114.991C107.532 114.685 107.788 114.379 108.146 114.379H110.806C111.113 114.379 111.369 114.583 111.369 114.889C111.778 117.591 112.955 118.916 118.378 118.916C122.675 118.916 124.517 117.948 124.517 115.654C124.517 114.328 124.006 113.359 117.304 112.697C111.727 112.136 108.248 110.912 108.248 106.477C108.248 102.348 111.727 99.901 117.559 99.901C124.108 99.901 127.331 102.144 127.74 107.038C127.74 107.191 127.689 107.344 127.587 107.497C127.485 107.599 127.331 107.701 127.178 107.701H124.517C124.261 107.701 124.006 107.497 123.954 107.242C123.341 104.438 121.755 103.52 117.559 103.52C112.853 103.52 112.29 105.152 112.29 106.375C112.29 107.854 112.955 108.313 119.299 109.128C125.592 109.944 128.559 111.116 128.559 115.501C128.508 119.987 124.824 122.536 118.327 122.536Z" fill="#539E43"/>
<path d="M48.6973 46.7808C48.6973 45.8632 48.1857 44.9965 47.3671 44.5377L25.675 32.0988C25.3169 31.8949 24.9076 31.7929 24.4983 31.742H24.2937C23.8844 31.742 23.4751 31.8949 23.117 32.0988L1.4249 44.5377C0.606332 44.9965 0.0947266 45.8632 0.0947266 46.7808L0.145887 80.223C0.145887 80.6818 0.40169 81.1407 0.810974 81.3446C1.22026 81.5995 1.73186 81.5995 2.08999 81.3446L14.9824 74.0036C15.801 73.5448 16.3126 72.6781 16.3126 71.7605V56.11C16.3126 55.1923 16.8242 54.3257 17.6428 53.8669L23.117 50.7062C23.5263 50.4513 23.9867 50.3493 24.4472 50.3493C24.9076 50.3493 25.368 50.4513 25.7262 50.7062L31.2003 53.8669C32.0189 54.3257 32.5305 55.1923 32.5305 56.11V71.7605C32.5305 72.6781 33.0421 73.5448 33.8607 74.0036L46.7532 81.3446C47.1624 81.5995 47.674 81.5995 48.0833 81.3446C48.4926 81.1407 48.7484 80.6818 48.7484 80.223L48.6973 46.7808Z" fill="#333333"/>
<path d="M152.962 0.746687C152.553 0.542771 152.042 0.542771 151.683 0.746687C151.274 1.00158 151.018 1.40941 151.018 1.86823V35.0046C151.018 35.3105 150.865 35.6164 150.558 35.8203C150.251 35.9732 149.944 35.9732 149.637 35.8203L144.214 32.7106C143.395 32.2517 142.423 32.2517 141.605 32.7106L119.913 45.2004C119.094 45.6592 118.583 46.5259 118.583 47.4435V72.3723C118.583 73.2899 119.094 74.1565 119.913 74.6153L141.605 87.1052C142.423 87.564 143.395 87.564 144.214 87.1052L165.906 74.6153C166.725 74.1565 167.236 73.2899 167.236 72.3723V10.2288C167.236 9.26019 166.725 8.39355 165.906 7.93473L152.962 0.746687ZM150.967 64.1646C150.967 64.4195 150.865 64.6235 150.66 64.7254L143.242 69.0076C143.037 69.1096 142.782 69.1096 142.577 69.0076L135.159 64.7254C134.954 64.6235 134.852 64.3686 134.852 64.1646V55.6002C134.852 55.3453 134.954 55.1413 135.159 55.0394L142.577 50.7571C142.782 50.6552 143.037 50.6552 143.242 50.7571L150.66 55.0394C150.865 55.1413 150.967 55.3962 150.967 55.6002V64.1646Z" fill="#333333"/>
<path d="M225.15 55.3962C225.969 54.9374 226.429 54.0708 226.429 53.1532V47.0867C226.429 46.169 225.917 45.3024 225.15 44.8436L203.611 32.4047C202.793 31.9459 201.821 31.9459 201.002 32.4047L179.31 44.8946C178.492 45.3534 177.98 46.22 177.98 47.1376V72.0664C177.98 72.984 178.492 73.8507 179.31 74.3095L200.849 86.5444C201.667 87.0033 202.639 87.0033 203.407 86.5444L216.453 79.3054C216.862 79.1015 217.118 78.6427 217.118 78.1839C217.118 77.7251 216.862 77.2663 216.453 77.0623L194.658 64.5725C194.249 64.3176 193.993 63.9097 193.993 63.4509V55.6511C193.993 55.1923 194.249 54.7335 194.658 54.5296L201.463 50.6552C201.872 50.4003 202.384 50.4003 202.793 50.6552L209.597 54.5296C210.006 54.7845 210.262 55.1923 210.262 55.6511V61.7686C210.262 62.2274 210.518 62.6862 210.927 62.8902C211.337 63.1451 211.848 63.1451 212.258 62.8902L225.15 55.3962Z" fill="#333333"/>
<path d="M201.974 54.2237C202.128 54.1218 202.332 54.1218 202.486 54.2237L206.63 56.6197C206.783 56.7217 206.886 56.8746 206.886 57.0785V61.8706C206.886 62.0745 206.783 62.2274 206.63 62.3294L202.486 64.7254C202.332 64.8274 202.128 64.8274 201.974 64.7254L197.83 62.3294C197.677 62.2274 197.574 62.0745 197.574 61.8706V57.0785C197.574 56.8746 197.677 56.7217 197.83 56.6197L201.974 54.2237Z" fill="#539E43"/>
<path d="M85.2805 32.2551C84.4619 31.7963 83.4898 31.7963 82.6713 32.2551L61.1327 44.643C60.3141 45.1019 59.8537 45.9685 59.8537 46.8861V71.7129C59.8537 72.6305 60.3653 73.4972 61.1327 73.956L82.6713 86.3439C83.4898 86.8027 84.4619 86.8027 85.2805 86.3439L106.819 73.956C107.638 73.4972 108.098 72.6305 108.098 71.7129V46.8861C108.098 45.9685 107.586 45.1019 106.819 44.643L85.2805 32.2551Z" fill="url(#paint0_linear_43_934)"/>
<defs>
<linearGradient id="paint0_linear_43_934" x1="92.7508" y1="41.4898" x2="69.2607" y2="78.5294" gradientUnits="userSpaceOnUse">
<stop stopColor="#41873F"/>
<stop offset="0.3288" stopColor="#418B3D"/>
<stop offset="0.6352" stopColor="#419637"/>
<stop offset="0.9319" stopColor="#3FA92D"/>
<stop offset="1" stopColor="#3FAE2A"/>
</linearGradient>
</defs>
</svg>
