<svg  viewBox="0 0 560 950" fill="none" xmlns="http://www.w3.org/2000/svg">
<g id="roadmapIteration2">
<g id="iterationImage2" filter="url(#filter0_b_616_1309)">
<g id="background">
<g id="mask">
<mask id="mask0_616_1309" style="mask-type:alpha" maskUnits="userSpaceOnUse" x="2" y="156" width="556" height="793">
<path id="Vector" d="M1.99997 167.268L2 937.389C2 943.464 6.92485 948.389 13 948.389L546.859 948.389C552.934 948.389 557.859 943.464 557.859 937.389L557.859 167.268C557.859 161.193 552.934 156.268 546.859 156.268L13 156.268C6.92483 156.268 1.99997 161.193 1.99997 167.268Z" fill="#6600FF"/>
</mask>
<g mask="url(#mask0_616_1309)">
<g id="background_2" opacity="0.4">
<path id="Vector_2" d="M1.99997 167.268L2 937.389C2 943.464 6.92485 948.389 13 948.389L546.859 948.389C552.934 948.389 557.859 943.464 557.859 937.389L557.859 167.268C557.859 161.193 552.934 156.268 546.859 156.268L13 156.268C6.92483 156.268 1.99997 161.193 1.99997 167.268Z" fill="#6600FF"/>
<g id="Vector_3" filter="url(#filter1_f_616_1309)">
<path d="M407.853 114.968C407.853 -156 242.325 -375.663 38.136 -375.663C-166.053 -375.663 -331.581 -156 -331.581 114.968C-331.581 385.936 -166.053 605.598 38.1361 605.598C242.325 605.598 407.853 385.936 407.853 114.968Z" fill="#00CC99"/>
<path d="M857.997 1325.96C857.997 1055 692.469 835.333 488.28 835.333C284.091 835.333 118.563 1055 118.563 1325.96C118.563 1596.93 284.091 1816.59 488.28 1816.59C692.469 1816.59 857.997 1596.93 857.997 1325.96Z" fill="#6600FF"/>
<path d="M407.818 1166.47C407.818 895.507 242.29 675.844 38.1008 675.844C-166.088 675.844 -331.616 895.507 -331.616 1166.47C-331.616 1437.44 -166.088 1657.1 38.1008 1657.1C242.29 1657.1 407.818 1437.44 407.818 1166.47Z" fill="#00CC99"/>
<path d="M366.059 546.091C366.059 275.123 200.531 55.4602 -3.65793 55.4602C-207.847 55.4602 -373.375 275.123 -373.375 546.091C-373.375 817.058 -207.847 1036.72 -3.65787 1036.72C200.531 1036.72 366.059 817.058 366.059 546.091Z" fill="#00CC99"/>
<path d="M669.574 794.785C669.574 523.817 504.046 304.154 299.857 304.154C95.6674 304.154 -69.8606 523.817 -69.8606 794.785C-69.8606 1065.75 95.6674 1285.42 299.857 1285.42C504.046 1285.42 669.574 1065.75 669.574 794.785Z" fill="#6600FF"/>
<path d="M856.978 697.47C856.978 426.502 691.45 206.839 487.261 206.839C283.072 206.839 117.544 426.502 117.544 697.47C117.544 968.438 283.072 1188.1 487.261 1188.1C691.45 1188.1 856.978 968.438 856.978 697.47Z" fill="#00CC99"/>
</g>
</g>
</g>
</g>
<path id="Vector_4" d="M1.99997 167.268L2 937.389C2 943.464 6.92485 948.389 13 948.389L546.859 948.389C552.934 948.389 557.859 943.464 557.859 937.389L557.859 167.268C557.859 161.193 552.934 156.268 546.859 156.268L13 156.268C6.92483 156.268 1.99997 161.193 1.99997 167.268Z" stroke="black" stroke-width="3"/>
</g>
<g id="skills" clip-path="url(#clip0_616_1309)">
<g id="frame">
<g id="pill" filter="url(#filter2_b_616_1309)">
<rect x="-62.5488" y="249.918" width="80.9206" height="11.1575" rx="5.57877" fill="white" fill-opacity="0.1"/>
<text id="Biomedical Engineering" fill="white" xml:space="preserve" style="white-space: pre" font-family="Work Sans" font-size="6.32991" font-weight="600" letter-spacing="0em"><tspan x="-50.0459" y="257.671">Biomedical Engineer</tspan></text>
</g>
<g id="pill_2" filter="url(#filter3_b_616_1309)">
<rect x="23.2812" y="249.918" width="86.9206" height="11.1575" rx="5.57877" fill="white" fill-opacity="0.1"/>
<g id="Vector_5">
<path id="Vector_6" d="M33.185 255.497C33.185 257.013 31.9571 258.24 30.4416 258.24C28.9261 258.24 27.6982 257.013 27.6982 255.497C27.6982 253.982 28.9261 252.754 30.4416 252.754C31.9571 252.754 33.185 253.982 33.185 255.497ZM30.1242 256.95L32.1596 254.914C32.2282 254.846 32.2282 254.733 32.1596 254.664L31.9096 254.414C31.841 254.346 31.7282 254.346 31.6596 254.414L29.9992 256.073L29.2237 255.298C29.1551 255.229 29.0423 255.229 28.9737 255.298L28.7237 255.548C28.6551 255.617 28.6551 255.729 28.7237 255.798L29.8742 256.948C29.9427 257.019 30.0556 257.019 30.1242 256.95Z" fill="white"/>
</g>
<text id="Biomedical Engineering_2" fill="white" xml:space="preserve" style="white-space: pre" font-family="Work Sans" font-size="6.32991" font-weight="600" letter-spacing="0em"><tspan x="35.7842" y="257.671">PRINCE2 Management</tspan></text>
</g>
<g id="pill_3" filter="url(#filter4_b_616_1309)">
<rect x="115.111" y="249.918" width="67.9206" height="11.1575" rx="5.57877" fill="white" fill-opacity="0.1"/>
<g id="Vector_7">
<path id="Vector_8" d="M125.015 255.497C125.015 257.013 123.787 258.24 122.272 258.24C120.756 258.24 119.528 257.013 119.528 255.497C119.528 253.982 120.756 252.754 122.272 252.754C123.787 252.754 125.015 253.982 125.015 255.497ZM121.954 256.95L123.99 254.914C124.058 254.846 124.058 254.733 123.99 254.664L123.74 254.414C123.671 254.346 123.558 254.346 123.49 254.414L121.829 256.073L121.054 255.298C120.985 255.229 120.872 255.229 120.804 255.298L120.554 255.548C120.485 255.617 120.485 255.729 120.554 255.798L121.704 256.948C121.773 257.019 121.886 257.019 121.954 256.95Z" fill="white"/>
</g>
<text id="Biomedical Engineering_3" fill="white" xml:space="preserve" style="white-space: pre" font-family="Work Sans" font-size="6.32991" font-weight="600" letter-spacing="0em"><tspan x="127.614" y="257.671">Project Manager</tspan></text>
</g>
<g id="pill_4" filter="url(#filter5_b_616_1309)">
<rect x="187.94" y="249.918" width="40.9206" height="11.1575" rx="5.57877" fill="white" fill-opacity="0.1"/>
<g id="Vector_9">
<path id="Vector_10" d="M197.844 255.497C197.844 257.013 196.616 258.24 195.101 258.24C193.585 258.24 192.357 257.013 192.357 255.497C192.357 253.982 193.585 252.754 195.101 252.754C196.616 252.754 197.844 253.982 197.844 255.497ZM194.783 256.95L196.819 254.914C196.887 254.846 196.887 254.733 196.819 254.664L196.569 254.414C196.5 254.346 196.387 254.346 196.319 254.414L194.658 256.073L193.883 255.298C193.814 255.229 193.701 255.229 193.633 255.298L193.383 255.548C193.314 255.617 193.314 255.729 193.383 255.798L194.533 256.948C194.602 257.019 194.715 257.019 194.783 256.95Z" fill="white"/>
</g>
<text id="Biomedical Engineering_4" fill="white" xml:space="preserve" style="white-space: pre" font-family="Work Sans" font-size="6.32991" font-weight="600" letter-spacing="0em"><tspan x="200.443" y="257.671">NEXT.js</tspan></text>
</g>
<g id="pill_5" filter="url(#filter6_b_616_1309)">
<rect x="233.771" y="249.918" width="44.9206" height="11.1575" rx="5.57877" fill="white" fill-opacity="0.1"/>
<g id="Vector_11">
<path id="Vector_12" d="M243.674 255.497C243.674 257.013 242.446 258.24 240.931 258.24C239.415 258.24 238.188 257.013 238.188 255.497C238.188 253.982 239.415 252.754 240.931 252.754C242.446 252.754 243.674 253.982 243.674 255.497ZM240.613 256.95L242.649 254.914C242.717 254.846 242.717 254.733 242.649 254.664L242.399 254.414C242.33 254.346 242.217 254.346 242.149 254.414L240.488 256.073L239.713 255.298C239.644 255.229 239.532 255.229 239.463 255.298L239.213 255.548C239.144 255.617 239.144 255.729 239.213 255.798L240.363 256.948C240.432 257.019 240.545 257.019 240.613 256.95Z" fill="white"/>
</g>
<text id="Biomedical Engineering_5" fill="white" xml:space="preserve" style="white-space: pre" font-family="Work Sans" font-size="6.32991" font-weight="600" letter-spacing="0em"><tspan x="246.273" y="257.671">Designer</tspan></text>
</g>
<g id="pill_6" filter="url(#filter7_b_616_1309)">
<rect x="283.601" y="249.918" width="44.9206" height="11.1575" rx="5.57877" fill="white" fill-opacity="0.1"/>
<g id="Vector_13">
<path id="Vector_14" d="M293.504 255.497C293.504 257.013 292.276 258.24 290.761 258.24C289.245 258.24 288.018 257.013 288.018 255.497C288.018 253.982 289.245 252.754 290.761 252.754C292.276 252.754 293.504 253.982 293.504 255.497ZM290.443 256.95L292.479 254.914C292.548 254.846 292.548 254.733 292.479 254.664L292.229 254.414C292.16 254.346 292.048 254.346 291.979 254.414L290.318 256.073L289.543 255.298C289.474 255.229 289.362 255.229 289.293 255.298L289.043 255.548C288.974 255.617 288.974 255.729 289.043 255.798L290.193 256.948C290.262 257.019 290.375 257.019 290.443 256.95Z" fill="white"/>
</g>
<text id="Biomedical Engineering_6" fill="white" xml:space="preserve" style="white-space: pre" font-family="Work Sans" font-size="6.32991" font-weight="600" letter-spacing="0em"><tspan x="296.104" y="257.671">Branding</tspan></text>
</g>
<g id="pill_7" filter="url(#filter8_b_616_1309)">
<rect x="333.431" y="249.918" width="36.9206" height="11.1575" rx="5.57877" fill="white" fill-opacity="0.1"/>
<g id="Vector_15">
<path id="Vector_16" d="M343.334 255.497C343.334 257.013 342.107 258.24 340.591 258.24C339.076 258.24 337.848 257.013 337.848 255.497C337.848 253.982 339.076 252.754 340.591 252.754C342.107 252.754 343.334 253.982 343.334 255.497ZM340.274 256.95L342.309 254.914C342.378 254.846 342.378 254.733 342.309 254.664L342.059 254.414C341.99 254.346 341.878 254.346 341.809 254.414L340.149 256.073L339.373 255.298C339.305 255.229 339.192 255.229 339.123 255.298L338.873 255.548C338.805 255.617 338.805 255.729 338.873 255.798L340.024 256.948C340.092 257.019 340.205 257.019 340.274 256.95Z" fill="white"/>
</g>
<text id="Biomedical Engineering_7" fill="white" xml:space="preserve" style="white-space: pre" font-family="Work Sans" font-size="6.32991" font-weight="600" letter-spacing="0em"><tspan x="345.934" y="257.671">Logo&#x2019;s</tspan></text>
</g>
<g id="pill_8" filter="url(#filter9_b_616_1309)">
<rect x="375.26" y="249.918" width="42.9206" height="11.1575" rx="5.57877" fill="white" fill-opacity="0.1"/>
<g id="Vector_17">
<path id="Vector_18" d="M385.164 255.497C385.164 257.013 383.936 258.24 382.42 258.24C380.905 258.24 379.677 257.013 379.677 255.497C379.677 253.982 380.905 252.754 382.42 252.754C383.936 252.754 385.164 253.982 385.164 255.497ZM382.103 256.95L384.138 254.914C384.207 254.846 384.207 254.733 384.138 254.664L383.888 254.414C383.82 254.346 383.707 254.346 383.638 254.414L381.978 256.073L381.202 255.298C381.134 255.229 381.021 255.229 380.952 255.298L380.702 255.548C380.634 255.617 380.634 255.729 380.702 255.798L381.853 256.948C381.921 257.019 382.034 257.019 382.103 256.95Z" fill="white"/>
</g>
<text id="Biomedical Engineering_8" fill="white" xml:space="preserve" style="white-space: pre" font-family="Work Sans" font-size="6.32991" font-weight="600" letter-spacing="0em"><tspan x="387.763" y="257.671">Website</tspan></text>
</g>
<g id="pill_9" filter="url(#filter10_b_616_1309)">
<rect x="423.09" y="249.918" width="60.9206" height="11.1575" rx="5.57877" fill="white" fill-opacity="0.1"/>
<g id="Vector_19">
<path id="Vector_20" d="M432.994 255.497C432.994 257.013 431.766 258.24 430.25 258.24C428.735 258.24 427.507 257.013 427.507 255.497C427.507 253.982 428.735 252.754 430.25 252.754C431.766 252.754 432.994 253.982 432.994 255.497ZM429.933 256.95L431.968 254.914C432.037 254.846 432.037 254.733 431.968 254.664L431.718 254.414C431.65 254.346 431.537 254.346 431.468 254.414L429.808 256.073L429.032 255.298C428.964 255.229 428.851 255.229 428.782 255.298L428.532 255.548C428.464 255.617 428.464 255.729 428.532 255.798L429.683 256.948C429.751 257.019 429.864 257.019 429.933 256.95Z" fill="white"/>
</g>
<text id="Biomedical Engineering_9" fill="white" xml:space="preserve" style="white-space: pre" font-family="Work Sans" font-size="6.32991" font-weight="600" letter-spacing="0em"><tspan x="435.593" y="257.671">Quick Learner</tspan></text>
</g>
<g id="pill_10" filter="url(#filter11_b_616_1309)">
<rect x="488.92" y="249.918" width="63.9206" height="11.1575" rx="5.57877" fill="white" fill-opacity="0.1"/>
<g id="Vector_21">
<path id="Vector_22" d="M498.824 255.497C498.824 257.013 497.596 258.24 496.08 258.24C494.565 258.24 493.337 257.013 493.337 255.497C493.337 253.982 494.565 252.754 496.08 252.754C497.596 252.754 498.824 253.982 498.824 255.497ZM495.763 256.95L497.798 254.914C497.867 254.846 497.867 254.733 497.798 254.664L497.548 254.414C497.48 254.346 497.367 254.346 497.298 254.414L495.638 256.073L494.862 255.298C494.794 255.229 494.681 255.229 494.612 255.298L494.362 255.548C494.294 255.617 494.294 255.729 494.362 255.798L495.513 256.948C495.581 257.019 495.694 257.019 495.763 256.95Z" fill="white"/>
</g>
<text id="Biomedical Engineering_10" fill="white" xml:space="preserve" style="white-space: pre" font-family="Work Sans" font-size="6.32991" font-weight="600" letter-spacing="0em"><tspan x="501.423" y="257.671">Web Developer</tspan></text>
</g>
<g id="pill_11" filter="url(#filter12_b_616_1309)">
<rect x="557.75" y="249.918" width="65.9206" height="11.1575" rx="5.57877" fill="white" fill-opacity="0.1"/>
</g>
</g>
<g id="frame2">
<g id="pill_12" filter="url(#filter13_b_616_1309)">
<rect x="7.86621" y="266.851" width="49.9206" height="11.1575" rx="5.57877" fill="white" fill-opacity="0.1"/>
<g id="Vector_23">
<path id="Vector_24" d="M17.77 272.43C17.77 273.946 16.5421 275.174 15.0266 275.174C13.5111 275.174 12.2832 273.946 12.2832 272.43C12.2832 270.915 13.5111 269.687 15.0266 269.687C16.5421 269.687 17.77 270.915 17.77 272.43ZM14.7091 273.883L16.7445 271.847C16.8131 271.779 16.8131 271.666 16.7445 271.597L16.4945 271.347C16.426 271.279 16.3131 271.279 16.2445 271.347L14.5841 273.007L13.8087 272.231C13.7401 272.163 13.6272 272.163 13.5587 272.231L13.3087 272.481C13.2401 272.55 13.2401 272.663 13.3087 272.731L14.4591 273.882C14.5277 273.952 14.6405 273.952 14.7091 273.883Z" fill="white"/>
</g>
<text id="Biomedical Engineering_11" fill="white" xml:space="preserve" style="white-space: pre" font-family="Work Sans" font-size="6.32991" font-weight="600" letter-spacing="0em"><tspan x="20.3691" y="274.605">Javascript</tspan></text>
</g>
<g id="pill_13" filter="url(#filter14_b_616_1309)">
<rect x="62.6963" y="266.851" width="29.9206" height="11.1575" rx="5.57877" fill="white" fill-opacity="0.1"/>
<g id="Vector_25">
<path id="Vector_26" d="M72.6001 272.43C72.6001 273.946 71.3722 275.174 69.8567 275.174C68.3412 275.174 67.1133 273.946 67.1133 272.43C67.1133 270.915 68.3412 269.687 69.8567 269.687C71.3722 269.687 72.6001 270.915 72.6001 272.43ZM69.5392 273.883L71.5746 271.847C71.6432 271.779 71.6432 271.666 71.5746 271.597L71.3246 271.347C71.256 271.279 71.1432 271.279 71.0746 271.347L69.4142 273.007L68.6387 272.231C68.5702 272.163 68.4573 272.163 68.3887 272.231L68.1387 272.481C68.0702 272.55 68.0702 272.663 68.1387 272.731L69.2892 273.882C69.3578 273.952 69.4706 273.952 69.5392 273.883Z" fill="white"/>
</g>
<text id="Biomedical Engineering_12" fill="white" xml:space="preserve" style="white-space: pre" font-family="Work Sans" font-size="6.32991" font-weight="600" letter-spacing="0em"><tspan x="75.1992" y="274.605">CSS</tspan></text>
</g>
<g id="pill_14" filter="url(#filter15_b_616_1309)">
<rect x="97.5254" y="266.851" width="43.9206" height="11.1575" rx="5.57877" fill="white" fill-opacity="0.1"/>
<g id="Vector_27">
<path id="Vector_28" d="M107.429 272.43C107.429 273.946 106.201 275.174 104.686 275.174C103.17 275.174 101.942 273.946 101.942 272.43C101.942 270.915 103.17 269.687 104.686 269.687C106.201 269.687 107.429 270.915 107.429 272.43ZM104.368 273.883L106.404 271.847C106.472 271.779 106.472 271.666 106.404 271.597L106.154 271.347C106.085 271.279 105.972 271.279 105.904 271.347L104.243 273.007L103.468 272.231C103.399 272.163 103.286 272.163 103.218 272.231L102.968 272.481C102.899 272.55 102.899 272.663 102.968 272.731L104.118 273.882C104.187 273.952 104.3 273.952 104.368 273.883Z" fill="white"/>
</g>
<text id="Biomedical Engineering_13" fill="white" xml:space="preserve" style="white-space: pre" font-family="Work Sans" font-size="6.32991" font-weight="600" letter-spacing="0em"><tspan x="110.028" y="274.605">Sanity.io</tspan></text>
</g>
<g id="pill_15" filter="url(#filter16_b_616_1309)">
<rect x="146.355" y="266.851" width="66.9206" height="11.1575" rx="5.57877" fill="white" fill-opacity="0.1"/>
<g id="Vector_29">
<path id="Vector_30" d="M156.259 272.43C156.259 273.946 155.031 275.174 153.516 275.174C152 275.174 150.772 273.946 150.772 272.43C150.772 270.915 152 269.687 153.516 269.687C155.031 269.687 156.259 270.915 156.259 272.43ZM153.198 273.883L155.234 271.847C155.302 271.779 155.302 271.666 155.234 271.597L154.984 271.347C154.915 271.279 154.802 271.279 154.734 271.347L153.073 273.007L152.298 272.231C152.229 272.163 152.117 272.163 152.048 272.231L151.798 272.481C151.729 272.55 151.729 272.663 151.798 272.731L152.948 273.882C153.017 273.952 153.13 273.952 153.198 273.883Z" fill="white"/>
</g>
<text id="Biomedical Engineering_14" fill="white" xml:space="preserve" style="white-space: pre" font-family="Work Sans" font-size="6.32991" font-weight="600" letter-spacing="0em"><tspan x="158.858" y="274.605">CMS integration</tspan></text>
</g>
<g id="pill_16" filter="url(#filter17_b_616_1309)">
<rect x="218.186" y="266.851" width="46.9206" height="11.1575" rx="5.57877" fill="white" fill-opacity="0.1"/>
<g id="Vector_31">
<path id="Vector_32" d="M228.089 272.43C228.089 273.946 226.861 275.174 225.346 275.174C223.83 275.174 222.603 273.946 222.603 272.43C222.603 270.915 223.83 269.687 225.346 269.687C226.861 269.687 228.089 270.915 228.089 272.43ZM225.028 273.883L227.064 271.847C227.132 271.779 227.132 271.666 227.064 271.597L226.814 271.347C226.745 271.279 226.632 271.279 226.564 271.347L224.903 273.007L224.128 272.231C224.059 272.163 223.947 272.163 223.878 272.231L223.628 272.481C223.559 272.55 223.559 272.663 223.628 272.731L224.778 273.882C224.847 273.952 224.96 273.952 225.028 273.883Z" fill="white"/>
</g>
<text id="Biomedical Engineering_15" fill="white" xml:space="preserve" style="white-space: pre" font-family="Work Sans" font-size="6.32991" font-weight="600" letter-spacing="0em"><tspan x="230.688" y="274.605">Handover</tspan></text>
</g>
<g id="pill_17" filter="url(#filter18_b_616_1309)">
<rect x="270.016" y="266.851" width="57.9206" height="11.1575" rx="5.57877" fill="white" fill-opacity="0.1"/>
<g id="Vector_33">
<path id="Vector_34" d="M279.919 272.43C279.919 273.946 278.692 275.174 277.176 275.174C275.661 275.174 274.433 273.946 274.433 272.43C274.433 270.915 275.661 269.687 277.176 269.687C278.692 269.687 279.919 270.915 279.919 272.43ZM276.859 273.883L278.894 271.847C278.963 271.779 278.963 271.666 278.894 271.597L278.644 271.347C278.575 271.279 278.463 271.279 278.394 271.347L276.734 273.007L275.958 272.231C275.889 272.163 275.777 272.163 275.708 272.231L275.458 272.481C275.389 272.55 275.389 272.663 275.458 272.731L276.609 273.882C276.677 273.952 276.79 273.952 276.859 273.883Z" fill="white"/>
</g>
<text id="Biomedical Engineering_16" fill="white" xml:space="preserve" style="white-space: pre" font-family="Work Sans" font-size="6.32991" font-weight="600" letter-spacing="0em"><tspan x="282.519" y="274.605">Maintenance</tspan></text>
</g>
<g id="pill_18" filter="url(#filter19_b_616_1309)">
<rect x="332.845" y="266.851" width="43.9206" height="11.1575" rx="5.57877" fill="white" fill-opacity="0.1"/>
<g id="Vector_35">
<path id="Vector_36" d="M342.749 272.43C342.749 273.946 341.521 275.174 340.005 275.174C338.49 275.174 337.262 273.946 337.262 272.43C337.262 270.915 338.49 269.687 340.005 269.687C341.521 269.687 342.749 270.915 342.749 272.43ZM339.688 273.883L341.723 271.847C341.792 271.779 341.792 271.666 341.723 271.597L341.473 271.347C341.404 271.279 341.292 271.279 341.223 271.347L339.563 273.007L338.787 272.231C338.719 272.163 338.606 272.163 338.537 272.231L338.287 272.481C338.219 272.55 338.219 272.663 338.287 272.731L339.438 273.882C339.506 273.952 339.619 273.952 339.688 273.883Z" fill="white"/>
</g>
<text id="Biomedical Engineering_17" fill="white" xml:space="preserve" style="white-space: pre" font-family="Work Sans" font-size="6.32991" font-weight="600" letter-spacing="0em"><tspan x="345.348" y="274.605">Strategy</tspan></text>
</g>
<g id="pill_19" filter="url(#filter20_b_616_1309)">
<rect x="381.675" y="266.851" width="57.9206" height="11.1575" rx="5.57877" fill="white" fill-opacity="0.1"/>
<g id="Vector_37">
<path id="Vector_38" d="M391.579 272.43C391.579 273.946 390.351 275.174 388.835 275.174C387.32 275.174 386.092 273.946 386.092 272.43C386.092 270.915 387.32 269.687 388.835 269.687C390.351 269.687 391.579 270.915 391.579 272.43ZM388.518 273.883L390.553 271.847C390.622 271.779 390.622 271.666 390.553 271.597L390.303 271.347C390.235 271.279 390.122 271.279 390.053 271.347L388.393 273.007L387.617 272.231C387.549 272.163 387.436 272.163 387.367 272.231L387.117 272.481C387.049 272.55 387.049 272.663 387.117 272.731L388.268 273.882C388.336 273.952 388.449 273.952 388.518 273.883Z" fill="white"/>
</g>
<text id="Biomedical Engineering_18" fill="white" xml:space="preserve" style="white-space: pre" font-family="Work Sans" font-size="6.32991" font-weight="600" letter-spacing="0em"><tspan x="394.178" y="274.605">Digital World</tspan></text>
</g>
<g id="pill_20" filter="url(#filter21_b_616_1309)">
<rect x="444.505" y="266.851" width="41.9206" height="11.1575" rx="5.57877" fill="white" fill-opacity="0.1"/>
<g id="Vector_39">
<path id="Vector_40" d="M454.409 272.43C454.409 273.946 453.181 275.174 451.665 275.174C450.15 275.174 448.922 273.946 448.922 272.43C448.922 270.915 450.15 269.687 451.665 269.687C453.181 269.687 454.409 270.915 454.409 272.43ZM451.348 273.883L453.383 271.847C453.452 271.779 453.452 271.666 453.383 271.597L453.133 271.347C453.065 271.279 452.952 271.279 452.883 271.347L451.223 273.007L450.447 272.231C450.379 272.163 450.266 272.163 450.197 272.231L449.947 272.481C449.879 272.55 449.879 272.663 449.947 272.731L451.098 273.882C451.166 273.952 451.279 273.952 451.348 273.883Z" fill="white"/>
</g>
<text id="Biomedical Engineering_19" fill="white" xml:space="preserve" style="white-space: pre" font-family="Work Sans" font-size="6.32991" font-weight="600" letter-spacing="0em"><tspan x="457.008" y="274.605">Web 3.0</tspan></text>
</g>
<g id="pill_21" filter="url(#filter22_b_616_1309)">
<rect x="491.335" y="266.851" width="64.9206" height="11.1575" rx="5.57877" fill="white" fill-opacity="0.1"/>
<g id="Vector_41">
<path id="Vector_42" d="M501.239 272.43C501.239 273.946 500.011 275.174 498.495 275.174C496.98 275.174 495.752 273.946 495.752 272.43C495.752 270.915 496.98 269.687 498.495 269.687C500.011 269.687 501.239 270.915 501.239 272.43ZM498.178 273.883L500.213 271.847C500.282 271.779 500.282 271.666 500.213 271.597L499.963 271.347C499.895 271.279 499.782 271.279 499.713 271.347L498.053 273.007L497.277 272.231C497.209 272.163 497.096 272.163 497.027 272.231L496.777 272.481C496.709 272.55 496.709 272.663 496.777 272.731L497.928 273.882C497.996 273.952 498.109 273.952 498.178 273.883Z" fill="white"/>
</g>
<text id="Biomedical Engineering_20" fill="white" xml:space="preserve" style="white-space: pre" font-family="Work Sans" font-size="6.32991" font-weight="600" letter-spacing="0em"><tspan x="503.838" y="274.605">Personalisation</tspan></text>
</g>
</g>
</g>
<g id="title">
<text fill="#171B4D" xml:space="preserve" style="white-space: pre" font-family="Work Sans" font-size="23.1689" letter-spacing="0em"><tspan x="288.918" y="225.098"> </tspan></text>
<text fill="#171B4D" xml:space="preserve" style="white-space: pre" font-family="Work Sans" font-size="23.1689" font-weight="500" letter-spacing="0em"><tspan x="201.876" y="225.098">Hi, I am</tspan></text>
<text fill="white" xml:space="preserve" style="white-space: pre" font-family="Work Sans" font-size="23.1689" font-weight="600" letter-spacing="0em"><tspan x="296.814" y="225.098">Yolan</tspan></text>
</g>
<g id="photoTitle">
<text fill="#171B4D" xml:space="preserve" style="white-space: pre" font-family="Work Sans" font-size="9.04214" letter-spacing="0em"><tspan x="164.037" y="419.154">As a passionate engineer and surfer, I am dedicated &#10;</tspan><tspan x="164.037" y="430.154">to having a </tspan></text>
<text fill="white" xml:space="preserve" style="white-space: pre" font-family="Work Sans" font-size="9.04214" font-weight="600" letter-spacing="0em"><tspan x="215.482" y="430.154">global positive impact</tspan></text>
</g>
<g id="missionText">
<text fill="black" xml:space="preserve" style="white-space: pre" font-family="Work Sans" font-size="6.06797" font-weight="200" letter-spacing="0em"><tspan x="164.037" y="758.338">A positive </tspan><tspan x="212.421" y="758.338"> on the </tspan><tspan x="252.36" y="758.338"> and its </tspan><tspan x="294.386" y="758.338">. I want to use my </tspan><tspan x="367.231" y="758.338"> for </tspan><tspan x="300.3" y="765.338">, as well as my </tspan><tspan x="391.201" y="765.338"> </tspan><tspan x="164.037" y="772.338">to inspire and </tspan><tspan x="229.031" y="772.338"> the many, because only </tspan><tspan x="322.201" y="772.338"> we can </tspan><tspan x="366.431" y="772.338"> the </tspan><tspan x="180.789" y="779.338">.</tspan></text>
<text fill="black" xml:space="preserve" style="white-space: pre" font-family="Work Sans" font-size="6.06797" letter-spacing="0em"><tspan x="191.847" y="758.338">impact</tspan><tspan x="233.552" y="758.338">planet</tspan><tspan x="274.28" y="758.338">people</tspan><tspan x="344.583" y="758.338">passion</tspan><tspan x="164.037" y="765.338">medicines</tspan><tspan x="197.441" y="765.338">engineering</tspan><tspan x="247.122" y="765.338">computer science</tspan><tspan x="341.934" y="765.338">animated energy</tspan><tspan x="203.07" y="772.338">motivate</tspan><tspan x="297.1" y="772.338">together</tspan><tspan x="345.353" y="772.338">change</tspan><tspan x="164.037" y="779.338">world</tspan></text>
<text fill="black" xml:space="preserve" style="white-space: pre" font-family="Work Sans" font-size="6.06797" font-weight="300" letter-spacing="0em"><tspan x="194.205" y="765.338">, </tspan><tspan x="231.377" y="765.338">, and </tspan></text>
</g>
<text id="MISSION" fill="#4100A4" xml:space="preserve" style="white-space: pre" font-family="Work Sans" font-size="5.77558" font-weight="600" letter-spacing="0em"><tspan x="164.037" y="731.382">MISSION</tspan></text>
<text id="VISION" fill="#4100A4" xml:space="preserve" style="white-space: pre" font-family="Work Sans" font-size="5.77558" font-weight="600" letter-spacing="0em"><tspan x="164.037" y="580.928">VISION</tspan></text>
<g id="vision">
<text id="Excellence" transform="translate(287.924 603.827)" fill="white" xml:space="preserve" style="white-space: pre" font-family="Work Sans" font-size="8.95215" font-weight="600" letter-spacing="0em"><tspan x="0" y="8.57506">Excellence</tspan></text>
<g id="excellenceText">
<text transform="translate(287.924 620.134)" fill="black" xml:space="preserve" style="white-space: pre" font-family="Work Sans" font-size="6.06436" font-weight="200" letter-spacing="0em"><tspan x="18.2701" y="12.5831"> </tspan><tspan x="0" y="19.5831">your</tspan></text>
<text transform="translate(287.924 620.134)" fill="black" xml:space="preserve" style="white-space: pre" font-family="Work Sans" font-size="6.06436" letter-spacing="0em"><tspan x="7.92986" y="5.58311">succeed</tspan></text>
<text transform="translate(287.924 620.134)" fill="black" xml:space="preserve" style="white-space: pre" font-family="Work Sans" font-size="6.06436" font-weight="200" letter-spacing="0em"><tspan x="0" y="5.58311">To </tspan><tspan x="32.4597" y="5.58311"> in whatever you do is to </tspan><tspan x="0" y="12.5831">always</tspan><tspan x="20.0408" y="12.5831">be open minded to improving </tspan><tspan x="12.0162" y="19.5831">self. </tspan></text>
</g>
<text id="listening" transform="translate(168.242 660.641)" fill="white" xml:space="preserve" style="white-space: pre" font-family="Work Sans" font-size="8.95215" font-weight="600" letter-spacing="0em"><tspan x="0.785275" y="8.57506">Listening</tspan></text>
<g id="listeningText">
<text transform="translate(164.038 674.938)" fill="black" xml:space="preserve" style="white-space: pre" font-family="Work Sans" font-size="6.06436" font-weight="200" letter-spacing="0em"><tspan x="37.2745" y="12.5831"> </tspan></text>
<text transform="translate(164.038 674.938)" fill="black" xml:space="preserve" style="white-space: pre" font-family="Work Sans" font-size="6.06436" font-weight="200" letter-spacing="0em"><tspan x="43.1553" y="5.58311"> are always shared and </tspan><tspan x="0" y="12.5831">achieved only</tspan><tspan x="39.0452" y="12.5831">when the individual </tspan><tspan x="0" y="19.5831">opens its ears and listens.</tspan></text>
<text transform="translate(164.038 674.938)" fill="black" xml:space="preserve" style="white-space: pre" font-family="Work Sans" font-size="6.06436" letter-spacing="0em"><tspan x="0" y="5.58311">Great victories</tspan></text>
</g>
<text id="learning" transform="translate(293.064 659.975)" fill="white" xml:space="preserve" style="white-space: pre" font-family="Work Sans" font-size="8.95215" font-weight="600" letter-spacing="0em"><tspan x="0" y="8.57506">Learning</tspan></text>
<g id="learningText">
<text transform="translate(288.858 674.272)" fill="black" xml:space="preserve" style="white-space: pre" font-family="Work Sans" font-size="6.06436" font-weight="200" letter-spacing="0em"><tspan x="53.6554" y="12.5831"> </tspan><tspan x="52.1985" y="19.5831">own </tspan></text>
<text transform="translate(288.858 674.272)" fill="black" xml:space="preserve" style="white-space: pre" font-family="Work Sans" font-size="6.06436" letter-spacing="0em"><tspan x="41.4793" y="5.58311">understanding</tspan></text>
<text transform="translate(288.858 674.272)" fill="black" xml:space="preserve" style="white-space: pre" font-family="Work Sans" font-size="6.06436" font-weight="200" letter-spacing="0em"><tspan x="0" y="5.58311">On the road to </tspan><tspan x="83.9475" y="5.58311"> one </tspan><tspan x="0" y="12.5831">has to become free</tspan><tspan x="55.4261" y="12.5831">from the values </tspan><tspan x="0" y="19.5831">that make up their </tspan><tspan x="65.7189" y="19.5831">reality.    </tspan></text>
</g>
<text id="impact" transform="matrix(0.999978 0.00664215 -0.00611543 0.999981 167.588 604.705)" fill="white" xml:space="preserve" style="white-space: pre" font-family="Work Sans" font-size="8.95215" font-weight="600" letter-spacing="0em"><tspan x="0" y="8.57506">Impact</tspan></text>
<g id="visionText">
<text transform="matrix(0.999978 0.00664215 -0.00611543 0.999981 164.21 620.423)" fill="black" xml:space="preserve" style="white-space: pre" font-family="Work Sans" font-size="6.06436" font-weight="200" letter-spacing="0em"><tspan x="91.1253" y="5.58311"> </tspan></text>
<text transform="matrix(0.999978 0.00664215 -0.00611543 0.999981 164.21 620.423)" fill="black" xml:space="preserve" style="white-space: pre" font-family="Work Sans" font-size="6.06436" letter-spacing="0em"><tspan x="0" y="12.5831">share</tspan></text>
<text transform="matrix(0.999978 0.00664215 -0.00611543 0.999981 164.21 620.423)" fill="black" xml:space="preserve" style="white-space: pre" font-family="Work Sans" font-size="6.06436" font-weight="200" letter-spacing="0em"><tspan x="0" y="5.58311">To have an impact in this world is</tspan><tspan x="92.896" y="5.58311">to </tspan><tspan x="16.2684" y="12.5831"> your ideas and to have the </tspan><tspan x="0" y="19.5831">many understand them.</tspan></text>
</g>
</g>
<g id="aboutMe">
<g id="aboutMeText">
<text fill="black" xml:space="preserve" style="white-space: pre" font-family="Work Sans" font-size="6.06797" font-weight="200" letter-spacing="0em"><tspan x="164.038" y="445.876">I&#x2019;m an </tspan><tspan x="222.685" y="445.876"> and </tspan><tspan x="265.925" y="445.876"> person, eager to learn from the challenges </tspan><tspan x="164.038" y="452.876">that I face. I love working with </tspan><tspan x="266.281" y="452.876"> and I tend to </tspan><tspan x="330.664" y="452.876"> my team getting the </tspan><tspan x="164.038" y="459.876">best out of everyone. </tspan><tspan x="249.95" y="459.876"> and </tspan><tspan x="289.024" y="459.876"> skills help me to pull the </tspan><tspan x="375.167" y="459.876"> </tspan><tspan x="164.038" y="466.876">forward, achieving always-improving results.</tspan></text>
<text fill="black" xml:space="preserve" style="white-space: pre" font-family="Work Sans" font-size="6.06797" letter-spacing="0em"><tspan x="182.627" y="445.876">open-minded</tspan><tspan x="236.552" y="445.876">ambitious</tspan><tspan x="246.175" y="452.876">people</tspan><tspan x="304.704" y="452.876">motivate</tspan><tspan x="223.112" y="459.876">Listening</tspan><tspan x="263.816" y="459.876">planning</tspan><tspan x="359.902" y="459.876">team</tspan></text>
</g>
</g>
<text id="12" fill="#171B4D" xml:space="preserve" style="white-space: pre" font-family="Work Sans" font-size="47.7163" font-weight="300" letter-spacing="0em"><tspan x="168.947" y="535.797">12</tspan></text>
<text id="36" fill="#171B4D" xml:space="preserve" style="white-space: pre" font-family="Work Sans" font-size="47.7163" font-weight="300" letter-spacing="0em"><tspan x="252.115" y="535.797">36</tspan></text>
<text id="03" fill="#171B4D" xml:space="preserve" style="white-space: pre" font-family="Work Sans" font-size="47.7163" font-weight="300" letter-spacing="0em"><tspan x="335.283" y="535.797">03</tspan></text>
<text id="achieved" transform="matrix(0.999978 0.00664215 -0.00611543 0.999981 180.254 543.678)" fill="black" xml:space="preserve" style="white-space: pre" font-family="Work Sans" font-size="6.06436" font-weight="300" letter-spacing="0em"><tspan x="0" y="5.58311">months</tspan></text>
<text id="months" transform="matrix(0.999978 0.00664215 -0.00611543 0.999981 268.332 543.678)" fill="black" xml:space="preserve" style="white-space: pre" font-family="Work Sans" font-size="6.06436" font-weight="300" letter-spacing="0em"><tspan x="0" y="5.58311">months</tspan></text>
<text id="projects" transform="matrix(0.999978 0.00664215 -0.00611543 0.999981 351.788 543.678)" fill="black" xml:space="preserve" style="white-space: pre" font-family="Work Sans" font-size="6.06436" font-weight="300" letter-spacing="0em"><tspan x="0" y="5.58311">months</tspan></text>
<g id="footer">
<path id="footerFrame" d="M3 824.172C3 815.24 10.2403 808 19.1716 808H540.695C549.148 808 556 814.852 556 823.305V935.831C556 942 551 947 544.831 947H14.1687C8.00038 947 3 942 3 935.831V824.172Z" fill="white" fill-opacity="0.1"/>
<g id="ywdesign_logo">
<path d="M277.858 865.956C274.138 865.995 272.508 868.298 271.34 872.061L268.73 880.636L266.12 872.061H262.324L266.632 886.211C265.803 888.906 264.481 889.115 261.646 888.622L262.017 892.1C267.41 893.08 269.443 890.671 270.829 886.212L273.447 877.611L276.085 886.212H280.228L282.862 877.615L285.481 886.212H289.682L293.983 872.061H290.187L287.58 880.64L284.967 872.061H280.767L278.156 880.581L275.539 872.061C276.365 869.366 277.686 869.158 280.521 869.65L280.15 866.172C279.307 866.019 278.547 865.949 277.858 865.956Z" fill="white"/>
<path fill-rule="evenodd" clip-rule="evenodd" d="M274.248 886.173C273.996 886.26 273.635 886.304 273.168 886.304L273.16 886.421C273.472 886.426 273.638 886.474 273.656 886.566V888.285L273.615 888.216C273.587 888.17 273.548 888.122 273.498 888.071C273.452 888.021 273.378 887.972 273.278 887.926C273.177 887.88 273.064 887.857 272.94 887.857C272.541 887.857 272.214 887.998 271.957 888.278C271.7 888.559 271.572 888.918 271.572 889.355C271.572 889.769 271.684 890.105 271.909 890.363C272.138 890.616 272.434 890.743 272.796 890.743C272.957 890.743 273.117 890.696 273.278 890.604C273.438 890.508 273.569 890.395 273.67 890.266L273.725 890.77C273.835 890.743 274.128 890.72 274.605 890.701V890.619C274.596 890.619 274.566 890.616 274.516 890.611C274.47 890.607 274.429 890.602 274.392 890.598C274.355 890.589 274.319 890.574 274.282 890.556C274.245 890.533 274.227 890.506 274.227 890.473C274.213 890.105 274.206 889.571 274.206 888.872C274.211 887.85 274.225 886.951 274.248 886.173ZM272.947 888.009C273.062 888.009 273.168 888.037 273.264 888.092C273.36 888.142 273.431 888.202 273.477 888.271C273.523 888.34 273.56 888.4 273.587 888.451L273.622 888.541L273.656 889.162L273.608 889.797C273.608 889.949 273.541 890.107 273.408 890.273C273.28 890.434 273.133 890.515 272.968 890.515C272.505 890.515 272.273 890.107 272.273 889.293C272.273 888.437 272.498 888.009 272.947 888.009Z" fill="white"/>
<path d="M281.608 886.276C281.517 886.276 281.43 886.318 281.347 886.401C281.269 886.484 281.23 886.582 281.23 886.697C281.23 886.808 281.271 886.9 281.354 886.973C281.437 887.047 281.521 887.084 281.608 887.084C281.728 887.084 281.826 887.045 281.904 886.966C281.987 886.884 282.028 886.78 282.028 886.656C282.028 886.555 281.984 886.467 281.897 886.394C281.81 886.315 281.714 886.276 281.608 886.276Z" fill="white"/>
<path d="M281.925 887.788C281.673 887.871 281.34 887.924 280.927 887.947V888.057C281.074 888.057 281.219 888.08 281.361 888.126V890.446C281.347 890.533 281.203 890.582 280.927 890.591V890.701C281.106 890.687 281.345 890.681 281.643 890.681C281.955 890.681 282.205 890.687 282.393 890.701V890.591C282.09 890.586 281.93 890.538 281.911 890.446C281.911 889.47 281.916 888.584 281.925 887.788Z" fill="white"/>
<path d="M279.18 887.802C278.873 887.802 278.625 887.882 278.437 888.043C278.249 888.2 278.155 888.416 278.155 888.692C278.155 888.89 278.217 889.047 278.341 889.162C278.469 889.277 278.65 889.376 278.884 889.459C279.43 889.657 279.703 889.882 279.703 890.135C279.703 890.485 279.487 890.66 279.056 890.66C278.808 890.66 278.614 890.568 278.472 890.384C278.33 890.195 278.247 889.988 278.224 889.762L278.107 889.749L278.121 890.715H278.251L278.286 890.515L278.403 890.591C278.49 890.632 278.598 890.676 278.726 890.722C278.854 890.768 278.964 890.791 279.056 890.791C279.451 890.791 279.739 890.72 279.923 890.577C280.106 890.43 280.198 890.191 280.198 889.859C280.198 889.532 279.946 889.256 279.442 889.031C279.396 889.012 279.327 888.987 279.235 888.955C279.143 888.922 279.068 888.895 279.008 888.872C278.948 888.844 278.887 888.81 278.822 888.769C278.763 888.723 278.714 888.67 278.678 888.61C278.646 888.545 278.63 888.474 278.63 888.395C278.63 888.257 278.674 888.145 278.761 888.057C278.852 887.965 278.969 887.919 279.111 887.919C279.212 887.919 279.304 887.933 279.386 887.961C279.469 887.984 279.535 888.023 279.586 888.078C279.636 888.129 279.678 888.177 279.71 888.223C279.742 888.269 279.767 888.333 279.785 888.416C279.804 888.494 279.815 888.552 279.82 888.589C279.824 888.621 279.831 888.669 279.841 888.734H279.964L279.978 887.864H279.848L279.827 888.071L279.765 888.002C279.723 887.961 279.648 887.917 279.538 887.871C279.433 887.825 279.313 887.802 279.18 887.802Z" fill="white"/>
<path fill-rule="evenodd" clip-rule="evenodd" d="M285.509 887.823C285.353 887.823 285.17 887.917 284.959 888.105L284.876 888.057C284.821 888.025 284.727 887.993 284.594 887.961C284.466 887.929 284.326 887.912 284.174 887.912C283.863 887.912 283.604 888.013 283.397 888.216C283.191 888.418 283.088 888.648 283.088 888.906C283.088 889.007 283.106 889.109 283.142 889.21C283.179 889.311 283.223 889.394 283.274 889.459C283.329 889.519 283.379 889.578 283.425 889.638C283.475 889.694 283.509 889.728 283.528 889.742C283.436 889.788 283.36 889.829 283.301 889.866C283.246 889.898 283.188 889.958 283.129 890.045C283.069 890.128 283.039 890.216 283.039 890.308C283.039 890.483 283.099 890.618 283.218 890.715C283.337 890.811 283.464 890.86 283.597 890.86H283.665C283.404 890.957 283.205 891.06 283.067 891.171C282.934 891.281 282.868 891.419 282.868 891.585C282.868 891.787 282.959 891.96 283.142 892.102C283.33 892.245 283.615 892.317 283.996 892.317C284.445 892.317 284.819 892.215 285.117 892.013C285.42 891.815 285.571 891.544 285.571 891.198C285.571 890.922 285.495 890.727 285.344 890.611C285.192 890.496 284.972 890.414 284.683 890.363C284.518 890.331 284.234 890.314 283.831 890.314C283.537 890.314 283.388 890.238 283.384 890.087C283.388 890.041 283.413 889.995 283.459 889.949C283.505 889.898 283.551 889.862 283.597 889.838L283.672 889.811L283.858 889.866C283.986 889.907 284.112 889.928 284.236 889.928C284.493 889.928 284.739 889.836 284.972 889.652C285.211 889.463 285.33 889.208 285.33 888.886C285.33 888.743 285.307 888.616 285.261 888.506C285.215 888.395 285.17 888.32 285.124 888.278L285.041 888.216C285.101 888.142 285.188 888.105 285.303 888.105C285.321 888.105 285.364 888.149 285.433 888.237C285.507 888.324 285.571 888.368 285.626 888.368C285.764 888.368 285.832 888.273 285.832 888.085C285.832 887.91 285.725 887.823 285.509 887.823ZM284.209 888.03C284.36 888.03 284.5 888.108 284.629 888.264C284.757 888.416 284.821 888.628 284.821 888.9C284.821 889.213 284.764 889.443 284.649 889.59C284.539 889.737 284.399 889.811 284.23 889.811C284.046 889.811 283.899 889.721 283.789 889.541C283.684 889.362 283.631 889.143 283.631 888.886C283.631 888.646 283.693 888.444 283.817 888.278C283.941 888.113 284.072 888.03 284.209 888.03ZM283.858 890.874C284.344 890.874 284.675 890.915 284.849 890.998C285.028 891.081 285.117 891.253 285.117 891.516C285.117 891.7 285.03 891.859 284.855 891.992C284.681 892.13 284.434 892.199 284.113 892.199C283.86 892.199 283.672 892.13 283.548 891.992C283.425 891.854 283.363 891.702 283.363 891.536C283.363 891.384 283.404 891.253 283.487 891.143C283.574 891.032 283.659 890.961 283.741 890.929L283.858 890.874Z" fill="white"/>
<path d="M287.27 887.885C286.986 887.977 286.715 888.023 286.458 888.023C286.412 888.023 286.369 888.02 286.328 888.016V888.126C286.529 888.145 286.674 888.177 286.761 888.223C286.77 888.504 286.775 888.863 286.775 889.3C286.775 889.76 286.77 890.131 286.761 890.411C286.761 890.457 286.711 890.499 286.61 890.535C286.514 890.572 286.419 890.591 286.328 890.591V890.701C286.506 890.687 286.745 890.681 287.043 890.681C287.355 890.681 287.605 890.687 287.793 890.701V890.591C287.472 890.563 287.311 890.513 287.311 890.439V888.9C287.376 888.693 287.493 888.517 287.662 888.375C287.832 888.232 287.99 888.161 288.137 888.161C288.316 888.161 288.449 888.239 288.536 888.395C288.628 888.552 288.674 888.757 288.674 889.01C288.674 889.944 288.671 890.411 288.667 890.411C288.667 890.453 288.614 890.492 288.508 890.529C288.403 890.566 288.304 890.586 288.212 890.591V890.701C288.391 890.683 288.598 890.673 288.832 890.673C288.942 890.673 289.229 890.683 289.692 890.701V890.591C289.609 890.591 289.513 890.572 289.403 890.535C289.293 890.494 289.238 890.45 289.238 890.404V888.989C289.238 888.897 289.229 888.808 289.21 888.72C289.197 888.628 289.167 888.531 289.121 888.43C289.08 888.329 289.024 888.241 288.956 888.168C288.887 888.089 288.791 888.025 288.667 887.974C288.547 887.924 288.41 887.899 288.254 887.899C287.924 887.903 287.614 888.127 287.325 888.568L287.27 887.885Z" fill="white"/>
<path fill-rule="evenodd" clip-rule="evenodd" d="M276.353 887.892C276.192 887.892 276.036 887.917 275.885 887.967C275.734 888.018 275.582 888.099 275.431 888.209C275.284 888.315 275.165 888.472 275.073 888.679C274.986 888.881 274.942 889.118 274.942 889.39C274.942 889.855 275.071 890.209 275.328 890.453C275.589 890.697 275.915 890.819 276.305 890.819C276.626 890.819 276.885 890.738 277.082 890.577C277.279 890.411 277.412 890.241 277.481 890.066L277.288 889.928C277.229 890.099 277.121 890.262 276.965 890.418C276.809 890.575 276.598 890.653 276.332 890.653C276.103 890.653 275.926 890.519 275.803 890.252C275.683 889.986 275.624 889.686 275.624 889.355V889.203L277.481 889.196C277.485 889.127 277.488 889.067 277.488 889.017C277.488 888.925 277.479 888.833 277.46 888.741C277.396 888.442 277.256 888.225 277.041 888.092C276.83 887.958 276.6 887.892 276.353 887.892ZM276.202 888.023C276.367 888.023 276.504 888.071 276.614 888.168C276.729 888.26 276.804 888.379 276.841 888.526C276.864 888.614 276.875 888.729 276.875 888.872C276.875 888.941 276.873 889.014 276.869 889.093L275.63 889.1C275.649 888.768 275.706 888.506 275.803 888.313C275.899 888.119 276.032 888.023 276.202 888.023Z" fill="white"/>
</g>
<text id="Logo" fill="white" xml:space="preserve" style="white-space: pre" font-family="Work Sans" font-size="8.03842" letter-spacing="0em"><tspan x="59.2109" y="865.708">Logo</tspan></text>
<text id="DESIGN" fill="#4100A4" xml:space="preserve" style="white-space: pre" font-family="Work Sans" font-size="5.77558" font-weight="600" letter-spacing="0em"><tspan x="59.2109" y="848.048">DESIGN</tspan></text>
<text id="CONTACT" fill="#4100A4" xml:space="preserve" style="white-space: pre" font-family="Work Sans" font-size="5.77558" font-weight="600" letter-spacing="0em"><tspan x="477.652" y="848.048">CONTACT</tspan></text>
<text id="SUPPORT" fill="#4100A4" xml:space="preserve" style="white-space: pre" font-family="Work Sans" font-size="5.77558" font-weight="600" letter-spacing="0em"><tspan x="372.536" y="848.048">SUPPORT</tspan></text>
<text id="DEVELOP" fill="#4100A4" xml:space="preserve" style="white-space: pre" font-family="Work Sans" font-size="5.77558" font-weight="600" letter-spacing="0em"><tspan x="156.53" y="848.048">DEVELOP</tspan></text>
<text id="Website" fill="white" xml:space="preserve" style="white-space: pre" font-family="Work Sans" font-size="8.03842" letter-spacing="0em"><tspan x="59.2109" y="881.591">Website</tspan></text>
<text id="Analysis" fill="white" xml:space="preserve" style="white-space: pre" font-family="Work Sans" font-size="8.03842" letter-spacing="0em"><tspan x="59.2109" y="897.474">Analysis</tspan></text>
<text id="shopText" fill="white" xml:space="preserve" style="white-space: pre" font-family="Work Sans" font-size="8.03842" letter-spacing="0em"><tspan x="59.2109" y="913.357">Online Shop</tspan></text>
<g id="contact">
<text id="Call" fill="white" xml:space="preserve" style="white-space: pre" font-family="Work Sans" font-size="8.03842" letter-spacing="0em"><tspan x="489.78" y="865.708">Call</tspan></text>
<text id="Whatsapp" fill="white" xml:space="preserve" style="white-space: pre" font-family="Work Sans" font-size="8.03842" letter-spacing="0em"><tspan x="465.234" y="881.591">Whatsapp</tspan></text>
<text id="Email" fill="white" xml:space="preserve" style="white-space: pre" font-family="Work Sans" font-size="8.03842" letter-spacing="0em"><tspan x="482.85" y="897.474">Email</tspan></text>
<text id="Form" fill="white" xml:space="preserve" style="white-space: pre" font-family="Work Sans" font-size="8.03842" letter-spacing="0em"><tspan x="484.294" y="913.357">Form</tspan></text>
</g>
<g id="help">
<text id="FAQ" fill="white" xml:space="preserve" style="white-space: pre" font-family="Work Sans" font-size="8.03842" letter-spacing="0em"><tspan x="381.083" y="865.708">FAQ</tspan></text>
<text id="TC" fill="white" xml:space="preserve" style="white-space: pre" font-family="Work Sans" font-size="8.03842" letter-spacing="0em"><tspan x="386.901" y="881.061">TC</tspan></text>
<text id="Teamwork" fill="white" xml:space="preserve" style="white-space: pre" font-family="Work Sans" font-size="8.03842" letter-spacing="0em"><tspan x="357.071" y="896.415">Teamwork</tspan></text>
<text id="Simulation" fill="white" xml:space="preserve" style="white-space: pre" font-family="Work Sans" font-size="8.03842" letter-spacing="0em"><tspan x="355.061" y="911.768">Simulation</tspan></text>
</g>
<g id="contacts">
<text id="Analysis_2" fill="white" xml:space="preserve" style="white-space: pre" font-family="Work Sans" font-size="8.03842" letter-spacing="0em"><tspan x="156.53" y="865.708">Analysis</tspan></text>
<text id="Whatsapp_2" fill="white" xml:space="preserve" style="white-space: pre" font-family="Work Sans" font-size="8.03842" letter-spacing="0em"><tspan x="156.53" y="881.591">Whatsapp</tspan></text>
<text id="Email_2" fill="white" xml:space="preserve" style="white-space: pre" font-family="Work Sans" font-size="8.03842" letter-spacing="0em"><tspan x="156.53" y="897.474">Email</tspan></text>
<text id="Form_2" fill="white" xml:space="preserve" style="white-space: pre" font-family="Work Sans" font-size="8.03842" letter-spacing="0em"><tspan x="156.53" y="913.357">Form</tspan></text>
</g>
</g>
<g id="photo">
<g clip-path="url(#clip1_616_1309)">
<g id="Union">
<path fill-rule="evenodd" clip-rule="evenodd" d="M275.344 305.389C277.709 305.311 280.232 304.916 280.942 304.443C281.731 304.049 282.598 303.891 282.913 304.049C283.229 304.285 284.333 304.601 285.2 304.759C286.146 304.995 287.487 305.626 288.197 306.178C288.906 306.809 289.931 307.124 290.562 306.888C291.193 306.73 291.43 306.888 291.114 307.361C290.878 307.834 291.351 308.701 292.218 309.332C293.086 309.884 293.559 310.594 293.322 310.909C293.086 311.146 293.637 311.698 294.505 312.25C295.767 312.88 296.161 312.88 296.161 312.092C296.161 311.461 296.397 311.382 297.028 312.013C297.738 312.723 298.605 317.296 298.763 320.845C298.763 321.475 299.473 322.658 300.261 323.447C301.681 324.866 301.681 325.103 300.498 326.916C299.788 328.02 299.394 329.361 299.551 329.834C299.709 330.386 299.157 331.805 298.369 332.988C297.501 334.171 296.949 335.827 297.186 336.694C297.422 337.562 297.107 338.35 296.476 338.587C295.845 338.823 294.978 339.927 294.426 341.031C293.007 344.106 291.43 343.554 291.43 339.848C291.43 337.246 291.666 336.694 293.007 336.694C293.795 336.694 294.899 335.984 295.372 335.196C296.476 333.067 296.397 332.83 294.584 333.303C293.559 333.54 293.007 333.303 292.928 332.673C292.928 332.042 292.612 332.278 292.139 333.146C291.587 334.329 291.508 333.777 291.824 331.174C292.139 327.784 290.878 320.845 289.616 319.662C289.301 319.346 289.064 318.085 289.064 316.823C289.064 314.852 288.512 314.3 285.437 312.88C280.942 310.909 277.315 310.83 274.476 312.723C272.741 313.906 272.426 314.458 272.82 316.429C273.136 318.085 272.899 319.268 272.032 320.214C270.849 321.554 270.849 321.633 272.741 322.185C275.974 322.974 276.369 323.999 275.501 329.124C274.634 334.171 275.186 335.275 278.34 334.486C279.838 334.171 279.759 334.329 277.788 336.142L275.58 338.271H278.734C283.781 338.271 284.491 337.719 282.204 335.432C279.602 332.83 280.469 332.121 283.465 334.329C287.566 337.246 285.989 339.769 280.39 339.296C278.419 339.139 276.369 339.375 275.738 339.769C274.24 340.716 275.265 343.002 277.236 343.002C279.602 343.002 279.129 344.579 276.448 345.526C273.215 346.63 273.845 347.891 277.788 348.286C281.021 348.601 281.415 348.364 287.014 342.293C289.143 340.006 289.931 340.243 288.985 342.766C288.197 345.131 280.154 354.121 277.709 355.461C276.369 356.092 276.842 356.407 280.706 357.196C283.229 357.669 285.594 357.827 285.91 357.432C290.168 352.859 293.007 348.916 292.691 348.049C291.903 345.92 294.189 347.024 295.767 349.547C296.713 351.045 301.523 354.909 307.594 358.931C318.865 366.497 318.87 366.579 319.422 375.32L319.422 375.332C320.132 388.264 319.58 400.013 317.767 409.002L317.451 410.816H236.232V405.769C236.232 401.433 236.469 400.723 237.809 400.329C238.677 400.092 239.387 400.25 239.387 400.644C239.387 401.669 243.881 401.511 244.512 400.486C244.827 400.013 245.222 397.49 245.458 394.809C246.01 388.816 246.799 387.16 249.085 387.16C250.741 387.16 250.978 386.529 252.318 378.723C254.053 368.63 255.63 363.346 257.523 360.902C258.311 359.956 261.465 358.142 264.462 356.802C269.508 354.673 269.982 354.2 270.77 351.282C271.559 348.286 271.48 347.812 268.089 342.214C266.197 338.981 264.62 335.906 264.62 335.354C264.62 334.802 264.304 334.329 263.989 334.329C263.594 334.329 263.358 333.54 263.437 332.594C263.516 331.648 262.648 329.282 261.544 327.311C260.361 325.26 260.046 324.078 260.756 324.472C261.702 325.103 261.702 324.945 260.756 323.841C259.888 322.737 259.888 322.106 260.992 319.82C261.702 318.321 262.017 316.508 261.702 315.719C261.387 314.773 261.465 314.536 262.175 314.931C262.806 315.404 263.042 315.088 262.885 314.142C262.727 313.117 263.121 312.644 264.068 312.723C264.777 312.802 265.408 312.565 265.408 312.25C265.408 311.934 266.67 310.278 268.247 308.622C270.849 305.941 271.559 305.547 275.344 305.389ZM269.587 332.988C270.691 333.382 272.741 330.859 271.953 330.07C271.637 329.834 270.77 329.597 269.982 329.597C268.326 329.597 268.01 332.357 269.587 332.988ZM278.734 360.113C276.29 360.271 274.949 360.035 275.265 359.562C275.501 359.088 275.58 358.773 275.344 358.773C275.186 358.773 274.24 360.035 273.293 361.612C272.347 363.11 271.322 364.214 271.164 363.977C270.455 363.268 267.695 365.081 268.168 365.949C268.483 366.343 268.247 366.658 267.774 366.658C266.591 366.658 263.91 372.888 263.752 376.2C263.594 377.698 263.358 379.196 263.042 379.669C262.806 380.063 262.491 381.719 262.412 383.217C262.333 385.741 262.412 385.82 263.042 384.006C263.594 382.508 263.673 382.902 263.516 385.977C263.279 388.106 263.437 390.63 263.831 391.497C264.462 392.995 264.541 392.995 264.541 391.339C264.62 390.393 265.014 389.368 265.408 389.131C265.881 388.816 266.039 388.264 265.802 387.87C265.487 387.476 265.645 387.16 266.039 387.16C267.064 387.16 268.641 383.217 268.089 382.271C267.774 381.719 267.931 381.64 268.404 381.956C268.956 382.271 269.351 382.192 269.351 381.798C269.351 381.325 271.716 377.54 274.555 373.361C278.971 366.737 279.523 365.554 278.655 364.45C278.213 363.847 277.996 363.552 278.036 363.511C278.075 363.473 278.351 363.67 278.892 364.056C279.917 364.924 280.39 364.845 281.336 363.662C283.308 361.454 284.491 358.773 283.544 358.773C283.15 358.773 282.756 359.01 282.756 359.325C282.756 359.719 280.942 360.035 278.734 360.113Z" fill="#171B4D"/>
<path d="M278.734 325.497C278.103 324.235 278.103 323.762 278.892 323.21C280.153 322.501 282.992 323.053 285.909 324.551C287.802 325.497 287.723 325.576 284.727 325.182L281.573 324.787L284.332 326.128L287.092 327.547L284.806 327.863C283.071 328.099 282.755 328.336 283.623 328.888C284.569 329.44 284.49 329.597 283.386 329.597C281.967 329.597 280.074 327.941 278.734 325.497Z" fill="#171B4D"/>
</g>
</g>
</g>
<g id="navbar">
<g id="navbar_logo">
<path id="path4289" d="M22.9035 172.71L24.6059 166.922H27.3438L29.0473 172.749L30.7468 166.922H33.2215L30.4176 176.533H27.6788L25.9718 170.695L24.2544 176.533H21.5538L19.8337 170.692L18.1267 176.533C17.2232 179.562 15.8982 181.198 12.3825 180.533L12.1406 178.17C13.9886 178.505 14.8503 178.364 15.3906 176.533L12.5824 166.922H15.0567L16.7585 172.747L18.46 166.922C19.3628 163.893 20.6878 162.257 24.2036 162.923L24.4454 165.285C22.5974 164.95 21.7357 165.092 21.1973 166.922L22.9035 172.71Z" fill="#171B4D"/>
</g>
<g id="navbar_center">
<g id="navbar_button">
<text id="ABOUT ME" fill="#171B4D" xml:space="preserve" style="white-space: pre" font-family="Work Sans" font-size="4.97052" font-weight="600" letter-spacing="0em"><tspan x="194.071" y="173.836">HOME</tspan></text>
<rect x="187.862" y="164.653" width="27.4175" height="14.9521" rx="7.47607" stroke="#171B4D" stroke-width="0.288779"/>
</g>
<g id="navbar_button_2">
<text id="ABOUT ME_2" fill="#171B4D" fill-opacity="0.3" xml:space="preserve" style="white-space: pre" font-family="Work Sans" font-size="4.97052" font-weight="600" letter-spacing="0em"><tspan x="237.083" y="173.836">SERVICES</tspan></text>
</g>
<g id="navbar_button_3">
<text id="ABOUT ME_3" fill="#171B4D" fill-opacity="0.3" xml:space="preserve" style="white-space: pre" font-family="Work Sans" font-size="4.97052" font-weight="600" letter-spacing="0em"><tspan x="290.095" y="173.836">ABOUT ME</tspan></text>
</g>
<g id="navbar_button_4">
<text id="ABOUT ME_4" fill="#171B4D" fill-opacity="0.3" xml:space="preserve" style="white-space: pre" font-family="Work Sans" font-size="4.97052" font-weight="600" letter-spacing="0em"><tspan x="345.106" y="173.836">CONTACT</tspan></text>
</g>
</g>
<g id="CTA">
<g id="navbar_button_5">
<text id="ABOUT ME_5" fill="#171B4D" xml:space="preserve" style="white-space: pre" font-family="Work Sans" font-size="4.97052" font-weight="600" letter-spacing="0em"><tspan x="418.754" y="173.836">HAVE A QUESTION?</tspan></text>
</g>
<g id="Group 68">
<g id="navbar_button_6">
<text id="ABOUT ME_6" fill="#171B4D" xml:space="preserve" style="white-space: pre" font-family="Work Sans" font-size="4.97052" font-weight="600" letter-spacing="0em"><tspan x="480.903" y="173.836">EN</tspan></text>
</g>
<g id="icon/expand">
<path id="Vector 4" d="M490.723 171.15L492.719 173.067C492.733 173.08 492.755 173.08 492.769 173.067L494.766 171.15" stroke="#171B4D" stroke-width="0.646865" stroke-linecap="round"/>
</g>
</g>
<g id="navbar_button_7">
<rect x="502.562" y="164.508" width="46.7063" height="15.2409" rx="7.62046" fill="#171B4D"/>
<text id="ABOUT ME_7" fill="white" xml:space="preserve" style="white-space: pre" font-family="Work Sans" font-size="4.97052" font-weight="600" letter-spacing="0em"><tspan x="508.916" y="173.836">ASK A QUOTE</tspan></text>
</g>
</g>
</g>
</g>
<g id="iterationTitle2" filter="url(#filter23_b_616_1309)">
<rect x="78.9326" y="2" width="400" height="132" rx="39" fill="white" fill-opacity="0.1"/>
<text id="titleText" transform="translate(83 16)" fill="black" xml:space="preserve" style="white-space: pre" font-family="Work Sans" font-size="44.0504" font-weight="500" letter-spacing="0em"><tspan x="23.111" y="41.1313">2nd iteration on </tspan><tspan x="83.2715" y="93.1313">the design</tspan></text>
<rect x="78.9326" y="2" width="400" height="132" rx="39" stroke="black" stroke-width="3"/>
</g>
<g id="iterationCorrections2">
<path id="Vector_43" d="M154.019 606.193C152.82 595.407 147.354 584.474 146.303 573.178C145.481 564.333 145.565 556.208 151.507 549.135C153.859 546.334 156.936 544.49 158.863 541.599M149.174 541.599C151.929 541.098 161.067 532.931 163.349 535.498C164.311 536.58 160.478 548.471 160.478 551.288" stroke="#FF0000" stroke-width="5" stroke-linecap="round"/>
<path id="Vector_44" d="M335.933 638.608C341.88 628.498 355.191 624.194 363.385 616M337.548 656.371C338.382 651.367 342.617 645.999 347.237 643.811C348.982 642.984 351.616 648.297 354.504 648.297C358.735 648.297 364.571 649.329 368.589 647.938C370.988 647.108 372.742 643.349 374.689 645.067C376.798 646.928 379.455 647.264 381.956 645.875C384.88 644.25 386.867 649.263 389.94 649.822C392.876 650.356 395.873 648.297 398.912 648.297" stroke="#FF0000" stroke-width="5" stroke-linecap="round"/>
<path id="Vector_45" d="M398.349 262C391.913 262 385.718 262.207 381.483 267.652C374.572 276.537 392.716 281.322 397.631 281.378C402.619 281.435 431.898 285.224 427.237 272.407C424.161 263.948 397.255 264.883 391.89 268.459M432.261 287.838C433.028 281.32 442.447 277.911 443.475 286.133C444.78 296.574 454.142 277.648 456.125 277.251C456.995 277.077 458.179 279.44 458.996 279.674C461.209 280.306 463.207 279.372 465.365 280.571C468.869 282.517 470.729 286.665 474.247 287.838M485.551 286.223C482.316 286.627 485.679 287.838 487.166 287.838" stroke="#FF0000" stroke-width="5" stroke-linecap="round"/>
<path id="VectorCheck" d="M379 393.845C379.916 400.565 386.596 426.629 392.636 411.787C395.679 404.311 399.654 396.817 401.608 389" stroke="#FF0000" stroke-width="5" stroke-linecap="round"/>
</g>
</g>
<defs>
<filter id="filter0_b_616_1309" x="-8.09133" y="146.177" width="576.042" height="812.303" filterUnits="userSpaceOnUse" color-interpolation-filters="sRGB">
<feFlood flood-opacity="0" result="BackgroundImageFix"/>
<feGaussianBlur in="BackgroundImageFix" stdDeviation="4.29567"/>
<feComposite in2="SourceAlpha" operator="in" result="effect1_backgroundBlur_616_1309"/>
<feBlend mode="normal" in="SourceGraphic" in2="effect1_backgroundBlur_616_1309" result="shape"/>
</filter>
<filter id="filter1_f_616_1309" x="-806.543" y="-808.831" width="2097.71" height="3058.59" filterUnits="userSpaceOnUse" color-interpolation-filters="sRGB">
<feFlood flood-opacity="0" result="BackgroundImageFix"/>
<feBlend mode="normal" in="SourceGraphic" in2="BackgroundImageFix" result="shape"/>
<feGaussianBlur stdDeviation="216.584" result="effect1_foregroundBlur_616_1309"/>
</filter>
<filter id="filter2_b_616_1309" x="-64.5703" y="247.897" width="84.9638" height="15.2005" filterUnits="userSpaceOnUse" color-interpolation-filters="sRGB">
<feFlood flood-opacity="0" result="BackgroundImageFix"/>
<feGaussianBlur in="BackgroundImageFix" stdDeviation="1.01073"/>
<feComposite in2="SourceAlpha" operator="in" result="effect1_backgroundBlur_616_1309"/>
<feBlend mode="normal" in="SourceGraphic" in2="effect1_backgroundBlur_616_1309" result="shape"/>
</filter>
<filter id="filter3_b_616_1309" x="21.2598" y="247.897" width="90.9638" height="15.2005" filterUnits="userSpaceOnUse" color-interpolation-filters="sRGB">
<feFlood flood-opacity="0" result="BackgroundImageFix"/>
<feGaussianBlur in="BackgroundImageFix" stdDeviation="1.01073"/>
<feComposite in2="SourceAlpha" operator="in" result="effect1_backgroundBlur_616_1309"/>
<feBlend mode="normal" in="SourceGraphic" in2="effect1_backgroundBlur_616_1309" result="shape"/>
</filter>
<filter id="filter4_b_616_1309" x="113.09" y="247.897" width="71.9638" height="15.2005" filterUnits="userSpaceOnUse" color-interpolation-filters="sRGB">
<feFlood flood-opacity="0" result="BackgroundImageFix"/>
<feGaussianBlur in="BackgroundImageFix" stdDeviation="1.01073"/>
<feComposite in2="SourceAlpha" operator="in" result="effect1_backgroundBlur_616_1309"/>
<feBlend mode="normal" in="SourceGraphic" in2="effect1_backgroundBlur_616_1309" result="shape"/>
</filter>
<filter id="filter5_b_616_1309" x="185.919" y="247.897" width="44.9638" height="15.2005" filterUnits="userSpaceOnUse" color-interpolation-filters="sRGB">
<feFlood flood-opacity="0" result="BackgroundImageFix"/>
<feGaussianBlur in="BackgroundImageFix" stdDeviation="1.01073"/>
<feComposite in2="SourceAlpha" operator="in" result="effect1_backgroundBlur_616_1309"/>
<feBlend mode="normal" in="SourceGraphic" in2="effect1_backgroundBlur_616_1309" result="shape"/>
</filter>
<filter id="filter6_b_616_1309" x="231.749" y="247.897" width="48.9638" height="15.2005" filterUnits="userSpaceOnUse" color-interpolation-filters="sRGB">
<feFlood flood-opacity="0" result="BackgroundImageFix"/>
<feGaussianBlur in="BackgroundImageFix" stdDeviation="1.01073"/>
<feComposite in2="SourceAlpha" operator="in" result="effect1_backgroundBlur_616_1309"/>
<feBlend mode="normal" in="SourceGraphic" in2="effect1_backgroundBlur_616_1309" result="shape"/>
</filter>
<filter id="filter7_b_616_1309" x="281.579" y="247.897" width="48.9638" height="15.2005" filterUnits="userSpaceOnUse" color-interpolation-filters="sRGB">
<feFlood flood-opacity="0" result="BackgroundImageFix"/>
<feGaussianBlur in="BackgroundImageFix" stdDeviation="1.01073"/>
<feComposite in2="SourceAlpha" operator="in" result="effect1_backgroundBlur_616_1309"/>
<feBlend mode="normal" in="SourceGraphic" in2="effect1_backgroundBlur_616_1309" result="shape"/>
</filter>
<filter id="filter8_b_616_1309" x="331.409" y="247.897" width="40.9638" height="15.2005" filterUnits="userSpaceOnUse" color-interpolation-filters="sRGB">
<feFlood flood-opacity="0" result="BackgroundImageFix"/>
<feGaussianBlur in="BackgroundImageFix" stdDeviation="1.01073"/>
<feComposite in2="SourceAlpha" operator="in" result="effect1_backgroundBlur_616_1309"/>
<feBlend mode="normal" in="SourceGraphic" in2="effect1_backgroundBlur_616_1309" result="shape"/>
</filter>
<filter id="filter9_b_616_1309" x="373.238" y="247.897" width="46.9638" height="15.2005" filterUnits="userSpaceOnUse" color-interpolation-filters="sRGB">
<feFlood flood-opacity="0" result="BackgroundImageFix"/>
<feGaussianBlur in="BackgroundImageFix" stdDeviation="1.01073"/>
<feComposite in2="SourceAlpha" operator="in" result="effect1_backgroundBlur_616_1309"/>
<feBlend mode="normal" in="SourceGraphic" in2="effect1_backgroundBlur_616_1309" result="shape"/>
</filter>
<filter id="filter10_b_616_1309" x="421.068" y="247.897" width="64.9638" height="15.2005" filterUnits="userSpaceOnUse" color-interpolation-filters="sRGB">
<feFlood flood-opacity="0" result="BackgroundImageFix"/>
<feGaussianBlur in="BackgroundImageFix" stdDeviation="1.01073"/>
<feComposite in2="SourceAlpha" operator="in" result="effect1_backgroundBlur_616_1309"/>
<feBlend mode="normal" in="SourceGraphic" in2="effect1_backgroundBlur_616_1309" result="shape"/>
</filter>
<filter id="filter11_b_616_1309" x="486.898" y="247.897" width="67.9638" height="15.2005" filterUnits="userSpaceOnUse" color-interpolation-filters="sRGB">
<feFlood flood-opacity="0" result="BackgroundImageFix"/>
<feGaussianBlur in="BackgroundImageFix" stdDeviation="1.01073"/>
<feComposite in2="SourceAlpha" operator="in" result="effect1_backgroundBlur_616_1309"/>
<feBlend mode="normal" in="SourceGraphic" in2="effect1_backgroundBlur_616_1309" result="shape"/>
</filter>
<filter id="filter12_b_616_1309" x="555.729" y="247.897" width="69.9638" height="15.2005" filterUnits="userSpaceOnUse" color-interpolation-filters="sRGB">
<feFlood flood-opacity="0" result="BackgroundImageFix"/>
<feGaussianBlur in="BackgroundImageFix" stdDeviation="1.01073"/>
<feComposite in2="SourceAlpha" operator="in" result="effect1_backgroundBlur_616_1309"/>
<feBlend mode="normal" in="SourceGraphic" in2="effect1_backgroundBlur_616_1309" result="shape"/>
</filter>
<filter id="filter13_b_616_1309" x="5.84476" y="264.83" width="53.9638" height="15.2005" filterUnits="userSpaceOnUse" color-interpolation-filters="sRGB">
<feFlood flood-opacity="0" result="BackgroundImageFix"/>
<feGaussianBlur in="BackgroundImageFix" stdDeviation="1.01073"/>
<feComposite in2="SourceAlpha" operator="in" result="effect1_backgroundBlur_616_1309"/>
<feBlend mode="normal" in="SourceGraphic" in2="effect1_backgroundBlur_616_1309" result="shape"/>
</filter>
<filter id="filter14_b_616_1309" x="60.6748" y="264.83" width="33.9638" height="15.2005" filterUnits="userSpaceOnUse" color-interpolation-filters="sRGB">
<feFlood flood-opacity="0" result="BackgroundImageFix"/>
<feGaussianBlur in="BackgroundImageFix" stdDeviation="1.01073"/>
<feComposite in2="SourceAlpha" operator="in" result="effect1_backgroundBlur_616_1309"/>
<feBlend mode="normal" in="SourceGraphic" in2="effect1_backgroundBlur_616_1309" result="shape"/>
</filter>
<filter id="filter15_b_616_1309" x="95.5039" y="264.83" width="47.9638" height="15.2005" filterUnits="userSpaceOnUse" color-interpolation-filters="sRGB">
<feFlood flood-opacity="0" result="BackgroundImageFix"/>
<feGaussianBlur in="BackgroundImageFix" stdDeviation="1.01073"/>
<feComposite in2="SourceAlpha" operator="in" result="effect1_backgroundBlur_616_1309"/>
<feBlend mode="normal" in="SourceGraphic" in2="effect1_backgroundBlur_616_1309" result="shape"/>
</filter>
<filter id="filter16_b_616_1309" x="144.334" y="264.83" width="70.9638" height="15.2005" filterUnits="userSpaceOnUse" color-interpolation-filters="sRGB">
<feFlood flood-opacity="0" result="BackgroundImageFix"/>
<feGaussianBlur in="BackgroundImageFix" stdDeviation="1.01073"/>
<feComposite in2="SourceAlpha" operator="in" result="effect1_backgroundBlur_616_1309"/>
<feBlend mode="normal" in="SourceGraphic" in2="effect1_backgroundBlur_616_1309" result="shape"/>
</filter>
<filter id="filter17_b_616_1309" x="216.164" y="264.83" width="50.9638" height="15.2005" filterUnits="userSpaceOnUse" color-interpolation-filters="sRGB">
<feFlood flood-opacity="0" result="BackgroundImageFix"/>
<feGaussianBlur in="BackgroundImageFix" stdDeviation="1.01073"/>
<feComposite in2="SourceAlpha" operator="in" result="effect1_backgroundBlur_616_1309"/>
<feBlend mode="normal" in="SourceGraphic" in2="effect1_backgroundBlur_616_1309" result="shape"/>
</filter>
<filter id="filter18_b_616_1309" x="267.994" y="264.83" width="61.9638" height="15.2005" filterUnits="userSpaceOnUse" color-interpolation-filters="sRGB">
<feFlood flood-opacity="0" result="BackgroundImageFix"/>
<feGaussianBlur in="BackgroundImageFix" stdDeviation="1.01073"/>
<feComposite in2="SourceAlpha" operator="in" result="effect1_backgroundBlur_616_1309"/>
<feBlend mode="normal" in="SourceGraphic" in2="effect1_backgroundBlur_616_1309" result="shape"/>
</filter>
<filter id="filter19_b_616_1309" x="330.823" y="264.83" width="47.9638" height="15.2005" filterUnits="userSpaceOnUse" color-interpolation-filters="sRGB">
<feFlood flood-opacity="0" result="BackgroundImageFix"/>
<feGaussianBlur in="BackgroundImageFix" stdDeviation="1.01073"/>
<feComposite in2="SourceAlpha" operator="in" result="effect1_backgroundBlur_616_1309"/>
<feBlend mode="normal" in="SourceGraphic" in2="effect1_backgroundBlur_616_1309" result="shape"/>
</filter>
<filter id="filter20_b_616_1309" x="379.653" y="264.83" width="61.9638" height="15.2005" filterUnits="userSpaceOnUse" color-interpolation-filters="sRGB">
<feFlood flood-opacity="0" result="BackgroundImageFix"/>
<feGaussianBlur in="BackgroundImageFix" stdDeviation="1.01073"/>
<feComposite in2="SourceAlpha" operator="in" result="effect1_backgroundBlur_616_1309"/>
<feBlend mode="normal" in="SourceGraphic" in2="effect1_backgroundBlur_616_1309" result="shape"/>
</filter>
<filter id="filter21_b_616_1309" x="442.483" y="264.83" width="45.9638" height="15.2005" filterUnits="userSpaceOnUse" color-interpolation-filters="sRGB">
<feFlood flood-opacity="0" result="BackgroundImageFix"/>
<feGaussianBlur in="BackgroundImageFix" stdDeviation="1.01073"/>
<feComposite in2="SourceAlpha" operator="in" result="effect1_backgroundBlur_616_1309"/>
<feBlend mode="normal" in="SourceGraphic" in2="effect1_backgroundBlur_616_1309" result="shape"/>
</filter>
<filter id="filter22_b_616_1309" x="489.314" y="264.83" width="68.9638" height="15.2005" filterUnits="userSpaceOnUse" color-interpolation-filters="sRGB">
<feFlood flood-opacity="0" result="BackgroundImageFix"/>
<feGaussianBlur in="BackgroundImageFix" stdDeviation="1.01073"/>
<feComposite in2="SourceAlpha" operator="in" result="effect1_backgroundBlur_616_1309"/>
<feBlend mode="normal" in="SourceGraphic" in2="effect1_backgroundBlur_616_1309" result="shape"/>
</filter>
<filter id="filter23_b_616_1309" x="67.4326" y="-9.5" width="423" height="155" filterUnits="userSpaceOnUse" color-interpolation-filters="sRGB">
<feFlood flood-opacity="0" result="BackgroundImageFix"/>
<feGaussianBlur in="BackgroundImageFix" stdDeviation="5"/>
<feComposite in2="SourceAlpha" operator="in" result="effect1_backgroundBlur_616_1309"/>
<feBlend mode="normal" in="SourceGraphic" in2="effect1_backgroundBlur_616_1309" result="shape"/>
</filter>
<clipPath id="clip0_616_1309">
<rect width="554.744" height="24.6436" fill="white" transform="translate(3.18848 251.642)"/>
</clipPath>
<clipPath id="clip1_616_1309">
<rect x="236.232" y="303.989" width="83.4571" height="94.7195" rx="3.46535" fill="white"/>
</clipPath>
</defs>
</svg>
