<svg width="770" height="85" viewBox="0 0 770 85" fill="none" xmlns="http://www.w3.org/2000/svg">
<g id="Group 71">
<path id="N" d="M714.07 83.8339V25.5349H728.462L729.398 43.0246L727.409 41.159C728.345 37.3501 729.827 34.202 731.855 31.7146C733.883 29.2272 736.34 27.4004 739.226 26.2345C742.191 24.9908 745.428 24.3689 748.938 24.3689C752.994 24.3689 756.582 25.1462 759.702 26.7009C762.9 28.2555 765.396 30.6263 767.191 33.8133C769.063 36.9226 769.999 40.8481 769.999 45.5897V83.8339H753.969V50.1371C753.969 45.1622 752.994 41.742 751.044 39.8764C749.094 37.9331 746.559 36.9615 743.439 36.9615C741.254 36.9615 739.109 37.5056 737.003 38.5939C734.975 39.6044 733.298 41.2756 731.972 43.6076C730.724 45.9395 730.1 49.0488 730.1 52.9354V83.8339H714.07Z" fill="black"/>
<path id="I" d="M689.122 17.1399C685.768 17.1399 683.272 16.4403 681.634 15.0412C679.996 13.5642 679.177 11.4266 679.177 8.62826C679.177 5.75217 679.996 3.61454 681.634 2.21536C683.272 0.738454 685.768 0 689.122 0C692.476 0 694.972 0.738454 696.61 2.21536C698.249 3.61454 699.068 5.75217 699.068 8.62826C699.068 11.4266 698.249 13.5642 696.61 15.0412C694.972 16.4403 692.476 17.1399 689.122 17.1399ZM697.078 25.535V83.834H681.049V25.535H697.078Z" fill="black"/>
<path id="M" d="M570.442 83.8339V25.5349H584.834L585.419 36.0287C587.369 32.1421 590.021 29.2272 593.375 27.2839C596.807 25.3405 600.591 24.3689 604.725 24.3689C608.937 24.3689 612.72 25.3405 616.074 27.2839C619.506 29.2272 622.081 32.1032 623.797 35.9121C625.045 33.347 626.722 31.2093 628.828 29.4992C630.934 27.7891 633.274 26.5065 635.848 25.6515C638.422 24.7964 641.035 24.3689 643.687 24.3689C647.51 24.3689 650.981 25.1462 654.101 26.7009C657.299 28.2555 659.834 30.5875 661.706 33.6967C663.578 36.806 664.514 40.7704 664.514 45.5897V83.8339H648.485V48.7379C648.485 44.4626 647.549 41.4311 645.676 39.6432C643.804 37.8554 641.386 36.9615 638.422 36.9615C636.082 36.9615 633.898 37.5445 631.87 38.7105C629.92 39.8764 628.36 41.6254 627.19 43.9574C626.098 46.2116 625.552 49.0488 625.552 52.469V83.8339H609.522V48.7379C609.522 44.4626 608.547 41.4311 606.597 39.6432C604.725 37.8554 602.307 36.9615 599.343 36.9615C597.314 36.9615 595.286 37.5056 593.258 38.5939C591.308 39.6821 589.67 41.3922 588.344 43.7242C587.096 46.0561 586.472 49.1266 586.472 52.9354V83.8339H570.442Z" fill="black"/>
<path id="E" d="M529.829 84.9999C523.667 84.9999 518.285 83.795 513.683 81.3854C509.159 78.9757 505.648 75.5166 503.152 71.0081C500.656 66.4997 499.408 61.0584 499.408 54.6844C499.408 48.3104 500.656 42.8691 503.152 38.3607C505.648 33.8522 509.12 30.3931 513.566 27.9834C518.09 25.5737 523.238 24.3689 529.01 24.3689C534.939 24.3689 539.97 25.5737 544.104 27.9834C548.238 30.3154 551.397 33.5413 553.581 37.6611C555.766 41.7031 556.858 46.3282 556.858 51.5362C556.858 53.0909 556.819 54.5678 556.741 55.967C556.663 57.3662 556.546 58.6099 556.39 59.6981H509.705V48.6213H549.369L541.647 51.4197C541.647 46.5225 540.516 42.7525 538.254 40.1096C536.07 37.4668 532.95 36.1453 528.893 36.1453C525.929 36.1453 523.355 36.8449 521.171 38.2441C519.065 39.6432 517.466 41.742 516.374 44.5404C515.282 47.261 514.736 50.7201 514.736 54.9176C514.736 59.0374 515.321 62.4576 516.491 65.1782C517.739 67.8211 519.455 69.8033 521.639 71.1247C523.901 72.4462 526.592 73.1069 529.712 73.1069C533.145 73.1069 535.914 72.4462 538.02 71.1247C540.126 69.8033 541.764 67.9766 542.934 65.6446L555.688 70.5417C554.439 73.5733 552.528 76.1773 549.954 78.3538C547.458 80.5303 544.455 82.2015 540.945 83.3675C537.513 84.4558 533.808 84.9999 529.829 84.9999Z" fill="black"/>
<path id="H" d="M430.242 83.834V0H446.272V35.4458C448.144 31.7147 450.718 28.9552 453.994 27.1674C457.27 25.3018 460.975 24.369 465.11 24.369C469.166 24.369 472.754 25.1463 475.874 26.701C479.072 28.2556 481.568 30.6264 483.362 33.8134C485.235 36.9227 486.171 40.8482 486.171 45.5898V83.834H470.141V50.2538C470.141 45.2012 469.166 41.7421 467.216 39.8765C465.266 37.9332 462.77 36.9616 459.727 36.9616C457.465 36.9616 455.281 37.5057 453.175 38.594C451.147 39.6045 449.47 41.3146 448.144 43.7243C446.896 46.0562 446.272 49.1655 446.272 53.0521V83.834H430.242Z" fill="black"/>
<path id="C" d="M418.118 62.6132C416.636 67.5881 414.296 71.7467 411.098 75.0892C407.9 78.4317 404.117 80.9191 399.749 82.5515C395.38 84.1839 390.583 85.0001 385.357 85.0001C377.713 85.0001 371.082 83.4066 365.466 80.2195C359.928 77.0325 355.638 72.4852 352.596 66.5776C349.631 60.6699 348.149 53.5963 348.149 45.3567C348.149 37.1171 349.631 30.0435 352.596 24.1359C355.638 18.2282 359.928 13.6809 365.466 10.4939C371.082 7.30689 377.635 5.71338 385.123 5.71338C390.427 5.71338 395.224 6.45183 399.515 7.92874C403.805 9.32792 407.432 11.5044 410.396 14.4582C413.438 17.412 415.661 21.1432 417.065 25.6516L402.44 31.8313C401.114 27.1674 399.085 23.8638 396.355 21.9205C393.625 19.8995 390.115 18.889 385.825 18.889C381.613 18.889 377.908 19.8995 374.709 21.9205C371.589 23.9415 369.171 26.9342 367.455 30.8986C365.739 34.7852 364.881 39.6046 364.881 45.3567C364.881 51.0312 365.661 55.8506 367.221 59.8149C368.859 63.7792 371.238 66.7719 374.358 68.7929C377.479 70.814 381.301 71.8245 385.825 71.8245C390.037 71.8245 393.664 70.6974 396.706 68.4431C399.827 66.1889 402.011 62.7687 403.259 58.1825L418.118 62.6132Z" fill="black"/>
<path id="E_2" d="M273.995 84.9999C267.833 84.9999 262.451 83.795 257.849 81.3854C253.325 78.9757 249.814 75.5166 247.318 71.0081C244.822 66.4997 243.574 61.0584 243.574 54.6844C243.574 48.3104 244.822 42.8691 247.318 38.3607C249.814 33.8522 253.286 30.3931 257.732 27.9834C262.256 25.5737 267.404 24.3689 273.176 24.3689C279.105 24.3689 284.136 25.5737 288.27 27.9834C292.404 30.3154 295.563 33.5413 297.747 37.6611C299.932 41.7031 301.024 46.3282 301.024 51.5362C301.024 53.0909 300.985 54.5678 300.907 55.967C300.829 57.3662 300.712 58.6099 300.556 59.6981H253.871V48.6213H293.535L285.813 51.4197C285.813 46.5225 284.682 42.7525 282.42 40.1096C280.236 37.4668 277.116 36.1453 273.059 36.1453C270.095 36.1453 267.521 36.8449 265.337 38.2441C263.231 39.6432 261.632 41.742 260.54 44.5404C259.448 47.261 258.902 50.7201 258.902 54.9176C258.902 59.0374 259.487 62.4576 260.657 65.1782C261.905 67.8211 263.621 69.8033 265.805 71.1247C268.067 72.4462 270.758 73.1069 273.878 73.1069C277.311 73.1069 280.08 72.4462 282.186 71.1247C284.292 69.8033 285.93 67.9766 287.1 65.6446L299.854 70.5417C298.606 73.5733 296.694 76.1773 294.12 78.3538C291.624 80.5303 288.621 82.2015 285.111 83.3675C281.679 84.4558 277.974 84.9999 273.995 84.9999Z" fill="black"/>
<path id="R" d="M198.632 83.8339V25.5349H212.555L213.608 36.9615C215.169 32.9194 217.431 29.8101 220.395 27.6336C223.437 25.4571 227.22 24.3689 231.744 24.3689C233.07 24.3689 234.279 24.4855 235.371 24.7187C236.463 24.9519 237.36 25.2628 238.062 25.6515L236.19 39.0603C235.41 38.7493 234.435 38.5161 233.265 38.3607C232.173 38.2052 230.73 38.1275 228.936 38.1275C226.596 38.1275 224.334 38.7105 222.15 39.8764C219.966 40.9647 218.172 42.6748 216.768 45.0068C215.364 47.261 214.661 50.1371 214.661 53.635V83.8339H198.632Z" fill="black"/>
<path id="T" d="M169.067 7.69556V64.8286C169.067 67.627 169.769 69.6869 171.173 71.0083C172.655 72.252 174.644 72.8739 177.14 72.8739C179.09 72.8739 180.806 72.6018 182.288 72.0577C183.77 71.4358 185.096 70.6196 186.266 69.6091L188.84 80.2196C186.968 81.6965 184.628 82.8624 181.82 83.7175C179.012 84.5726 176.048 85.0001 172.928 85.0001C169.028 85.0001 165.556 84.4171 162.514 83.2511C159.55 82.0851 157.21 80.2196 155.494 77.6544C153.856 75.0892 153.037 71.669 153.037 67.3938V12.1263L169.067 7.69556ZM187.787 25.5351V37.4281H142.272V25.5351H187.787Z" fill="black"/>
<path id="O" d="M105.563 24.3689C111.491 24.3689 116.678 25.5737 121.124 27.9834C125.648 30.3931 129.159 33.8522 131.655 38.3607C134.229 42.8691 135.516 48.3104 135.516 54.6844C135.516 60.9807 134.229 66.4219 131.655 71.0081C129.159 75.5166 125.648 78.9757 121.124 81.3854C116.678 83.795 111.491 84.9999 105.563 84.9999C99.7124 84.9999 94.5252 83.795 90.001 81.3854C85.4768 78.9757 81.9276 75.5166 79.3535 71.0081C76.8574 66.4219 75.6094 60.9807 75.6094 54.6844C75.6094 48.3104 76.8574 42.8691 79.3535 38.3607C81.9276 33.8522 85.4768 30.3931 90.001 27.9834C94.5252 25.5737 99.7124 24.3689 105.563 24.3689ZM105.563 36.2619C102.599 36.2619 100.063 36.9615 97.9573 38.3607C95.9292 39.6821 94.3692 41.7031 93.2771 44.4238C92.1851 47.1444 91.639 50.5646 91.639 54.6844C91.639 58.8042 92.1851 62.2244 93.2771 64.945C94.3692 67.6656 95.9292 69.7255 97.9573 71.1247C100.063 72.4462 102.599 73.1069 105.563 73.1069C108.449 73.1069 110.906 72.4462 112.934 71.1247C115.04 69.7255 116.639 67.6656 117.731 64.945C118.823 62.2244 119.369 58.8042 119.369 54.6844C119.369 50.5646 118.823 47.1444 117.731 44.4238C116.639 41.7031 115.04 39.6821 112.934 38.3607C110.906 36.9615 108.449 36.2619 105.563 36.2619Z" fill="black"/>
<path id="V" d="M75.1171 6.87939L47.036 83.8341H28.1982L0 6.87939H17.0827L33.3464 55.8506L37.7926 71.0083L42.1218 55.9672L58.5024 6.87939H75.1171Z" fill="black"/>
</g>
</svg>
