<svg width="807" height="393" viewBox="0 0 807 393" fill="none" xmlns="http://www.w3.org/2000/svg">
<g id="Frame 22">
<text id="Maintenance" transform="translate(550 43)" fill="black" style="white-space: pre" font-family="Work Sans" font-size="44.0504" font-weight="500" letter-spacing="0em"><tspan x="0.304916" y="41.1313">Maintenance</tspan></text>
<g id="maintenanceProduct">
<path d="M397.5 177L348 247.5L372.75 282.75L422.25 212.25L397.5 177Z" fill="black"/>
<path d="M403.75 329.75L453.25 259.25L428.5 224L379 294.5L403.75 329.75Z" fill="black"/>
<path d="M397.5 177L348 247.5L372.75 282.75L422.25 212.25L397.5 177Z" stroke="black" stroke-width="4"/>
<path d="M403.75 329.75L453.25 259.25L428.5 224L379 294.5L403.75 329.75Z" stroke="black" stroke-width="4"/>
</g>
<path id="Vector 15" d="M366.5 2.5C380 6 383.5 23.5 383.5 38V72C383.5 132 272.001 154 272.001 255C272.001 322 325.001 387.5 402.001 387.5C475.001 387.5 531.001 330 531.001 255C531.001 155.5 423.5 135.5 423.5 72" stroke="black" stroke-width="4" stroke-linecap="round"/>
<path id="Vector 16" d="M441 2.5C428 8.5 423.5 19 423.5 38V72C424.5 165 307.5 165 307.5 257C307.5 330.5 367 354.5 400.5 354.5C448 354.5 495.5 319 495.5 257C495.5 171 386 157.5 383.5 72" stroke="black" stroke-width="4" stroke-linecap="round"/>
</g>
</svg>
