<svg width="807" height="378" viewBox="0 0 807 378" fill="none" xmlns="http://www.w3.org/2000/svg">
<g id="Frame 22">
<g id="maintenanceGroup">
<path id="Maintenance" d="M487.356 53.9268V83H482.995V66.1728L483.347 58.1556H483.303L474.449 83H470.529L461.674 58.1556H461.63L461.983 66.1728V83H457.622V53.9268H464.626L470.485 70.754L472.511 77.6699H472.599L474.669 70.754L480.484 53.9268H487.356ZM507.849 68.8598C507.849 67.3915 507.437 66.2609 506.615 65.468C505.822 64.6457 504.721 64.2345 503.311 64.2345C501.99 64.2345 500.859 64.5429 499.919 65.1596C498.98 65.7763 498.29 66.7748 497.849 68.155L493.885 66.4811C494.443 64.6897 495.529 63.2508 497.144 62.1642C498.789 61.0776 500.903 60.5343 503.488 60.5343C505.25 60.5343 506.806 60.828 508.157 61.4153C509.508 61.9733 510.565 62.8249 511.329 63.9702C512.121 65.1156 512.518 66.5839 512.518 68.3753V78.1985C512.518 79.2851 513.061 79.8284 514.148 79.8284C514.676 79.8284 515.19 79.755 515.69 79.6081L515.425 82.8678C514.75 83.1909 513.898 83.3524 512.87 83.3524C511.931 83.3524 511.079 83.1909 510.315 82.8678C509.581 82.5154 508.994 82.0015 508.553 81.3261C508.142 80.6213 507.937 79.755 507.937 78.7271V78.4188L508.906 78.3747C508.641 79.52 508.098 80.4744 507.276 81.238C506.454 81.9722 505.499 82.5301 504.413 82.9119C503.326 83.2643 502.225 83.4405 501.109 83.4405C499.729 83.4405 498.481 83.2203 497.365 82.7797C496.278 82.3392 495.412 81.6785 494.766 80.7975C494.149 79.8871 493.841 78.7712 493.841 77.4497C493.841 75.8051 494.369 74.4542 495.426 73.397C496.513 72.3398 498.04 71.6203 500.008 71.2386L508.553 69.5646L508.509 72.8684L502.298 74.1459C501.065 74.3808 500.14 74.7185 499.523 75.159C498.906 75.5995 498.598 76.2456 498.598 77.0973C498.598 77.9195 498.906 78.5803 499.523 79.0795C500.169 79.5494 501.021 79.7843 502.078 79.7843C502.812 79.7843 503.517 79.6962 504.192 79.52C504.897 79.3438 505.529 79.0648 506.087 78.6831C506.645 78.2719 507.07 77.758 507.364 77.1413C507.687 76.4952 507.849 75.7317 507.849 74.8507V68.8598ZM522.619 57.2746C521.591 57.2746 520.798 57.025 520.24 56.5257C519.712 55.9971 519.448 55.263 519.448 54.3232C519.448 53.3835 519.712 52.664 520.24 52.1648C520.798 51.6655 521.591 51.4159 522.619 51.4159C523.618 51.4159 524.381 51.6655 524.91 52.1648C525.468 52.664 525.747 53.3835 525.747 54.3232C525.747 55.263 525.468 55.9971 524.91 56.5257C524.381 57.025 523.618 57.2746 522.619 57.2746ZM524.954 60.9748V83H520.24V60.9748H524.954ZM532.328 83V60.9748H536.513L536.822 66.7014L536.205 66.0847C536.616 64.8219 537.203 63.7794 537.967 62.9571C538.76 62.1054 539.685 61.4887 540.742 61.107C541.829 60.7252 542.974 60.5343 544.178 60.5343C545.734 60.5343 547.129 60.8427 548.363 61.4594C549.626 62.0467 550.624 62.9424 551.358 64.1464C552.092 65.3505 552.46 66.8776 552.46 68.7277V83H547.746V70.1813C547.746 68.0082 547.291 66.5105 546.381 65.6882C545.5 64.8366 544.384 64.4107 543.033 64.4107C542.064 64.4107 541.124 64.6457 540.214 65.1156C539.303 65.5561 538.54 66.2755 537.923 67.274C537.336 68.2725 537.042 69.6087 537.042 71.2826V83H532.328ZM565.775 54.4994V76.3924C565.775 77.479 566.054 78.2719 566.612 78.7712C567.199 79.2704 567.978 79.52 568.947 79.52C569.74 79.52 570.43 79.4026 571.017 79.1676C571.604 78.9033 572.148 78.5509 572.647 78.1104L573.704 81.5463C573.029 82.1337 572.192 82.6035 571.193 82.9559C570.224 83.279 569.138 83.4405 567.934 83.4405C566.671 83.4405 565.511 83.2349 564.454 82.8238C563.396 82.4127 562.574 81.7519 561.987 80.8415C561.399 79.9018 561.091 78.6831 561.062 77.1854V55.8209L565.775 54.4994ZM573.352 60.9748V64.6751H556.833V60.9748H573.352ZM587.705 83.4405C585.502 83.4405 583.564 82.9853 581.89 82.0749C580.216 81.1646 578.909 79.8577 577.969 78.1545C577.059 76.4218 576.604 74.3661 576.604 71.9874C576.604 69.6087 577.059 67.5677 577.969 65.8644C578.909 64.1318 580.201 62.8103 581.846 61.8999C583.49 60.9895 585.355 60.5343 587.44 60.5343C589.584 60.5343 591.405 60.9748 592.903 61.8558C594.4 62.7368 595.546 63.9409 596.338 65.468C597.131 66.995 597.528 68.7277 597.528 70.6659C597.528 71.1945 597.513 71.6937 597.484 72.1636C597.454 72.6335 597.41 73.0446 597.352 73.397H579.643V69.7849H595.281L592.947 70.4897C592.947 68.4927 592.447 66.9657 591.449 65.9085C590.45 64.8219 589.085 64.2786 587.352 64.2786C586.089 64.2786 584.988 64.5723 584.048 65.1596C583.109 65.7469 582.389 66.628 581.89 67.8026C581.391 68.9479 581.141 70.3575 581.141 72.0315C581.141 73.676 581.405 75.0709 581.934 76.2162C582.463 77.3616 583.211 78.2279 584.181 78.8152C585.15 79.4026 586.295 79.6962 587.617 79.6962C589.085 79.6962 590.274 79.4172 591.185 78.8593C592.095 78.3013 592.814 77.5231 593.343 76.5246L597.087 78.2866C596.559 79.3438 595.839 80.2689 594.929 81.0618C594.048 81.8253 592.991 82.4127 591.757 82.8238C590.524 83.2349 589.173 83.4405 587.705 83.4405ZM603.48 83V60.9748H607.665L607.973 66.7014L607.357 66.0847C607.768 64.8219 608.355 63.7794 609.119 62.9571C609.911 62.1054 610.837 61.4887 611.894 61.107C612.98 60.7252 614.126 60.5343 615.33 60.5343C616.886 60.5343 618.281 60.8427 619.514 61.4594C620.777 62.0467 621.776 62.9424 622.51 64.1464C623.244 65.3505 623.611 66.8776 623.611 68.7277V83H618.898V70.1813C618.898 68.0082 618.443 66.5105 617.532 65.6882C616.651 64.8366 615.535 64.4107 614.184 64.4107C613.215 64.4107 612.276 64.6457 611.365 65.1156C610.455 65.5561 609.691 66.2755 609.075 67.274C608.487 68.2725 608.194 69.6087 608.194 71.2826V83H603.48ZM643.484 68.8598C643.484 67.3915 643.073 66.2609 642.251 65.468C641.458 64.6457 640.356 64.2345 638.947 64.2345C637.625 64.2345 636.495 64.5429 635.555 65.1596C634.615 65.7763 633.925 66.7748 633.485 68.155L629.52 66.4811C630.078 64.6897 631.165 63.2508 632.78 62.1642C634.424 61.0776 636.539 60.5343 639.123 60.5343C640.885 60.5343 642.442 60.828 643.792 61.4153C645.143 61.9733 646.2 62.8249 646.964 63.9702C647.757 65.1156 648.153 66.5839 648.153 68.3753V78.1985C648.153 79.2851 648.697 79.8284 649.783 79.8284C650.312 79.8284 650.826 79.755 651.325 79.6081L651.061 82.8678C650.385 83.1909 649.534 83.3524 648.506 83.3524C647.566 83.3524 646.714 83.1909 645.951 82.8678C645.217 82.5154 644.629 82.0015 644.189 81.3261C643.778 80.6213 643.572 79.755 643.572 78.7271V78.4188L644.541 78.3747C644.277 79.52 643.734 80.4744 642.911 81.238C642.089 81.9722 641.135 82.5301 640.048 82.9119C638.962 83.2643 637.86 83.4405 636.744 83.4405C635.364 83.4405 634.116 83.2203 633 82.7797C631.913 82.3392 631.047 81.6785 630.401 80.7975C629.784 79.8871 629.476 78.7712 629.476 77.4497C629.476 75.8051 630.005 74.4542 631.062 73.397C632.148 72.3398 633.676 71.6203 635.643 71.2386L644.189 69.5646L644.145 72.8684L637.934 74.1459C636.7 74.3808 635.775 74.7185 635.159 75.159C634.542 75.5995 634.233 76.2456 634.233 77.0973C634.233 77.9195 634.542 78.5803 635.159 79.0795C635.805 79.5494 636.656 79.7843 637.713 79.7843C638.448 79.7843 639.152 79.6962 639.828 79.52C640.533 79.3438 641.164 79.0648 641.722 78.6831C642.28 78.2719 642.706 77.758 642.999 77.1413C643.323 76.4952 643.484 75.7317 643.484 74.8507V68.8598ZM655.876 83V60.9748H660.061L660.369 66.7014L659.752 66.0847C660.164 64.8219 660.751 63.7794 661.514 62.9571C662.307 62.1054 663.232 61.4887 664.29 61.107C665.376 60.7252 666.521 60.5343 667.726 60.5343C669.282 60.5343 670.677 60.8427 671.91 61.4594C673.173 62.0467 674.172 62.9424 674.906 64.1464C675.64 65.3505 676.007 66.8776 676.007 68.7277V83H671.294V70.1813C671.294 68.0082 670.838 66.5105 669.928 65.6882C669.047 64.8366 667.931 64.4107 666.58 64.4107C665.611 64.4107 664.671 64.6457 663.761 65.1156C662.851 65.5561 662.087 66.2755 661.47 67.274C660.883 68.2725 660.589 69.6087 660.589 71.2826V83H655.876ZM692.664 60.5343C694.426 60.5343 695.924 60.7986 697.157 61.3272C698.42 61.8265 699.477 62.546 700.329 63.4857C701.181 64.4254 701.827 65.4973 702.267 66.7014L697.818 68.4634C697.436 67.1125 696.82 66.0847 695.968 65.3799C695.146 64.6457 694.059 64.2786 692.708 64.2786C691.387 64.2786 690.256 64.587 689.316 65.2037C688.377 65.791 687.657 66.6573 687.158 67.8026C686.688 68.9479 686.453 70.3575 686.453 72.0315C686.453 73.676 686.703 75.0709 687.202 76.2162C687.701 77.3616 688.421 78.2279 689.36 78.8152C690.3 79.4026 691.416 79.6962 692.708 79.6962C693.707 79.6962 694.573 79.5347 695.307 79.2117C696.041 78.8593 696.643 78.3747 697.113 77.758C697.613 77.1119 697.95 76.3337 698.126 75.4233L702.399 76.877C701.988 78.1985 701.342 79.3585 700.461 80.357C699.609 81.3261 698.538 82.0896 697.245 82.6476C695.953 83.1762 694.47 83.4405 692.796 83.4405C690.623 83.4405 688.7 82.9853 687.026 82.0749C685.352 81.1646 684.045 79.8577 683.105 78.1545C682.195 76.4218 681.74 74.3661 681.74 71.9874C681.74 69.6087 682.195 67.5677 683.105 65.8644C684.045 64.1318 685.337 62.8103 686.982 61.8999C688.656 60.9895 690.55 60.5343 692.664 60.5343ZM717.576 83.4405C715.373 83.4405 713.435 82.9853 711.761 82.0749C710.087 81.1646 708.78 79.8577 707.841 78.1545C706.93 76.4218 706.475 74.3661 706.475 71.9874C706.475 69.6087 706.93 67.5677 707.841 65.8644C708.78 64.1318 710.072 62.8103 711.717 61.8999C713.362 60.9895 715.226 60.5343 717.311 60.5343C719.455 60.5343 721.276 60.9748 722.774 61.8558C724.271 62.7368 725.417 63.9409 726.21 65.468C727.003 66.995 727.399 68.7277 727.399 70.6659C727.399 71.1945 727.384 71.6937 727.355 72.1636C727.326 72.6335 727.281 73.0446 727.223 73.397H709.515V69.7849H725.152L722.818 70.4897C722.818 68.4927 722.318 66.9657 721.32 65.9085C720.322 64.8219 718.956 64.2786 717.223 64.2786C715.961 64.2786 714.859 64.5723 713.92 65.1596C712.98 65.7469 712.26 66.628 711.761 67.8026C711.262 68.9479 711.012 70.3575 711.012 72.0315C711.012 73.676 711.277 75.0709 711.805 76.2162C712.334 77.3616 713.083 78.2279 714.052 78.8152C715.021 79.4026 716.166 79.6962 717.488 79.6962C718.956 79.6962 720.145 79.4172 721.056 78.8593C721.966 78.3013 722.686 77.5231 723.214 76.5246L726.958 78.2866C726.43 79.3438 725.71 80.2689 724.8 81.0618C723.919 81.8253 722.862 82.4127 721.628 82.8238C720.395 83.2349 719.044 83.4405 717.576 83.4405Z" fill="black"/>
<g id="maintenanceProduct">
<path d="M403.5 171L354 241.5L378.75 276.75L428.25 206.25L403.5 171Z" fill="black"/>
<path d="M409.75 323.75L459.25 253.25L434.5 218L385 288.5L409.75 323.75Z" fill="black"/>
<path d="M403.5 171L354 241.5L378.75 276.75L428.25 206.25L403.5 171Z" stroke="black" stroke-width="4"/>
<path d="M409.75 323.75L459.25 253.25L434.5 218L385 288.5L409.75 323.75Z" stroke="black" stroke-width="4"/>
</g>
<path id="maintenanceLineB" d="M440.767 2.98255C441.583 2.83483 442.124 2.05427 441.976 1.23912C441.828 0.423973 441.048 -0.117088 440.233 0.0306308L440.767 2.98255ZM347.5 170.387L346.619 169.173L346.599 169.187L346.579 169.203L347.5 170.387ZM483.613 187.5L484.797 186.579L483.613 187.5ZM425 82V35H422V82H425ZM425 35C425 26.144 426.479 18.5147 429.222 12.9102C431.957 7.3221 435.873 3.86943 440.767 2.98255L440.233 0.0306308C434.127 1.13713 429.543 5.43115 426.528 11.5914C423.521 17.7352 422 25.8559 422 35H425ZM422 82C422 93.5636 419.93 102.817 416.221 110.676C412.509 118.538 407.118 125.082 400.367 131.178C393.602 137.286 385.508 142.915 376.401 148.969C367.317 155.007 357.233 161.464 346.619 169.173L348.381 171.6C358.93 163.94 368.927 157.539 378.061 151.467C387.172 145.41 395.432 139.676 402.377 133.405C409.335 127.122 415.008 120.27 418.933 111.956C422.86 103.639 425 93.9364 425 82H422ZM502.5 247C502.5 299.743 459.743 342.5 407 342.5V345.5C461.4 345.5 505.5 301.4 505.5 247H502.5ZM407 342.5C354.257 342.5 311.5 299.743 311.5 247H308.5C308.5 301.4 352.6 345.5 407 345.5V342.5ZM311.5 247C311.5 216.335 325.951 189.046 348.421 171.571L346.579 169.203C323.41 187.222 308.5 215.37 308.5 247H311.5ZM446.381 159.972C460.597 166.415 472.956 176.24 482.429 188.421L484.797 186.579C475.028 174.018 462.283 163.885 447.619 157.239L446.381 159.972ZM482.429 188.421C495.009 204.596 502.5 224.921 502.5 247H505.5C505.5 224.23 497.772 203.262 484.797 186.579L482.429 188.421Z" fill="black"/>
<path id="maintenanceLine" d="M366.767 0.0306308C365.952 -0.117088 365.172 0.423973 365.024 1.23912C364.876 2.05427 365.417 2.83483 366.233 2.98255L366.767 0.0306308ZM328.678 142.37L329.598 143.554L329.649 143.514L329.697 143.47L328.678 142.37ZM460.49 126.787L459.78 128.108L460.49 126.787ZM508.993 165.005L510.176 164.083L508.993 165.005ZM385 82V35H382V82H385ZM385 35C385 25.8559 383.479 17.7352 380.472 11.5914C377.457 5.43115 372.873 1.13713 366.767 0.0306308L366.233 2.98255C371.127 3.86943 375.043 7.3221 377.778 12.9102C380.521 18.5147 382 26.144 382 35H385ZM534.5 247.703C534.5 317.729 477.642 374.5 407.5 374.5V377.5C479.295 377.5 537.5 319.39 537.5 247.703H534.5ZM407.5 374.5C337.358 374.5 280.5 317.729 280.5 247.703H277.5C277.5 319.39 335.705 377.5 407.5 377.5V374.5ZM280.5 247.703C280.5 206.939 299.757 166.727 329.598 143.554L327.758 141.185C297.14 164.961 277.5 206.072 277.5 247.703H280.5ZM459.78 128.108C478.704 138.275 495.246 149.798 507.81 165.926L510.176 164.083C497.248 147.486 480.296 135.725 461.2 125.466L459.78 128.108ZM507.81 165.926C524.51 187.366 534.5 218.342 534.5 247.703H537.5C537.5 217.745 527.329 186.102 510.176 164.083L507.81 165.926ZM382 82C382 87.1746 379.802 92.4741 376.069 97.8341C372.34 103.187 367.163 108.483 361.399 113.622C355.639 118.757 349.35 123.687 343.416 128.332C337.505 132.958 331.92 137.322 327.659 141.269L329.697 143.47C333.847 139.626 339.32 135.348 345.265 130.694C351.187 126.059 357.552 121.07 363.395 115.861C369.234 110.655 374.608 105.18 378.531 99.5487C382.448 93.9242 385 88.0254 385 82H382ZM422.013 82.1982C423.535 93.6138 426.41 101.66 432.312 108.61C438.161 115.497 446.883 121.18 459.78 128.108L461.2 125.466C448.326 118.549 440.052 113.089 434.599 106.668C429.199 100.311 426.465 92.8862 424.987 81.8017L422.013 82.1982ZM382.001 82.0492C382.907 109.635 392.957 126.314 406.185 137.629C419.283 148.832 435.518 154.746 448.356 160.854L449.644 158.146C436.456 151.871 420.834 146.211 408.135 135.349C395.566 124.598 385.879 108.718 384.999 81.9507L382.001 82.0492Z" fill="black"/>
</g>
</g>
</svg>
