<svg width="807" height="584" viewBox="0 0 807 584" fill="none" xmlns="http://www.w3.org/2000/svg">
<g id="Frame 27">
<g id="developmentGroup">
<path id="start2A" d="M403.5 469.5C403.5 502.5 383.5 504 383.5 521.5C383.5 539 383.5 548 383.5 548C383.5 565 376.394 578.406 366 581.5" stroke="black" stroke-width="4" stroke-linecap="round"/>
<path id="start2B" d="M403.5 469.5C403.5 506 422.999 501 423 522C423 543 423 548 423 548C423 575 432 578.5 439.5 581.5" stroke="black" stroke-width="4" stroke-linecap="round"/>
<path id="tails2" d="M403.5 470L403.5 374M403.5 470C403.5 384 470 406.5 470 374M403.5 470C403.5 384.5 536.5 417 536.5 374M403.5 470C403.5 384 336.5 406 336.5 374M403.5 470C403.5 384 270 415.5 270 374" stroke="black" stroke-width="4" stroke-linecap="round"/>
<g id="Development">
<g id="numbers2">
<text id="1" transform="translate(529 319)" fill="black" style="white-space: pre" font-family="Work Sans" font-size="34.2614" font-weight="500" letter-spacing="0em"><tspan x="0.107573" y="31.7688">1</tspan></text>
<text id="0" transform="translate(460 319)" fill="black" style="white-space: pre" font-family="Work Sans" font-size="34.2614" font-weight="500" letter-spacing="0em"><tspan x="0.243129" y="31.7688">0</tspan></text>
<text id="1_2" transform="translate(396 319)" fill="black" style="white-space: pre" font-family="Work Sans" font-size="34.2614" font-weight="500" letter-spacing="0em"><tspan x="0.107573" y="31.7688">1</tspan></text>
<text id="1_3" transform="translate(331 319)" fill="black" style="white-space: pre" font-family="Work Sans" font-size="34.2614" font-weight="500" letter-spacing="0em"><tspan x="0.107573" y="31.7688">1</tspan></text>
<text id="0_2" transform="translate(259 319)" fill="black" style="white-space: pre" font-family="Work Sans" font-size="34.2614" font-weight="500" letter-spacing="0em"><tspan x="0.243129" y="31.7688">0</tspan></text>
</g>
<text id="Development_2" transform="translate(260 255)" fill="black" style="white-space: pre" font-family="Work Sans" font-size="44.0504" font-weight="500" letter-spacing="0em"><tspan x="0.486908" y="41.1313">Development</tspan></text>
<g id="numbers1">
<text id="1_4" transform="translate(263 203)" fill="black" style="white-space: pre" font-family="Work Sans" font-size="34.2614" font-weight="500" letter-spacing="0em"><tspan x="0.107573" y="31.7688">1</tspan></text>
<text id="0_3" transform="translate(327 203)" fill="black" style="white-space: pre" font-family="Work Sans" font-size="34.2614" font-weight="500" letter-spacing="0em"><tspan x="0.243129" y="31.7688">0</tspan></text>
<text id="0_4" transform="translate(392 203)" fill="black" style="white-space: pre" font-family="Work Sans" font-size="34.2614" font-weight="500" letter-spacing="0em"><tspan x="0.243129" y="31.7688">0</tspan></text>
<text id="1_5" transform="translate(464 203)" fill="black" style="white-space: pre" font-family="Work Sans" font-size="34.2614" font-weight="500" letter-spacing="0em"><tspan x="0.107573" y="31.7688">1</tspan></text>
<text id="1_6" transform="translate(529 203)" fill="black" style="white-space: pre" font-family="Work Sans" font-size="34.2614" font-weight="500" letter-spacing="0em"><tspan x="0.107573" y="31.7688">1</tspan></text>
</g>
</g>
<path id="startA" d="M423 2C423 2 423 28 423 45.5C423 63 403 64.5 403 97.5" stroke="black" stroke-width="4" stroke-linecap="round"/>
<path id="startB" d="M383.5 2C383.5 2 383.5 24 383.5 45C383.501 66 403 61 403 97.5" stroke="black" stroke-width="4" stroke-linecap="round"/>
<path id="tails" d="M403 97V193M403 97C403 183 336.5 160.5 336.5 193M403 97C403 182.5 270 150 270 193M403 97C403 183 470 161 470 193M403 97C403 183 536.5 151.5 536.5 193" stroke="black" stroke-width="4" stroke-linecap="round"/>
</g>
</g>
</svg>
