<svg width="807" height="805" viewBox="0 0 807 805" fill="none" xmlns="http://www.w3.org/2000/svg">
<g id="Frame 20">
<g id="developmentGroup">
<path id="Vector" d="M403.25 701.5C403.25 725 423 722.5 423 746V772.5C423 790.5 427.5 799 439.5 803.5M403.25 701.5C403.25 725 383.5 722.5 383.5 746V772.5C383.5 786.5 377.5 801 366 803.5M403.25 701.5V682M403.25 682C403.25 616 270 633.5 270 595.5M403.25 682C403.25 616 336.787 619 336.625 595.5M403.25 682C403.25 616 469.875 618.608 469.875 595.5M403.25 682C403.25 616 536.208 632.14 536.5 595.5M403.25 682V595.5" stroke="black" stroke-width="3" stroke-linecap="round"/>
<g id="Development">
<g id="numbers2">
<path id="1" d="M536.063 573V557.48C536.063 557.023 536.063 556.555 536.063 556.075C536.085 555.572 536.108 555.047 536.131 554.499C535.355 555.253 534.464 555.904 533.459 556.452C532.477 556.977 531.46 557.354 530.41 557.582L529.724 554.396C530.204 554.328 530.764 554.168 531.403 553.916C532.043 553.665 532.705 553.345 533.39 552.957C534.075 552.569 534.704 552.158 535.275 551.724C535.846 551.267 536.291 550.821 536.611 550.387H539.694V573H536.063Z" fill="black"/>
<path id="0" d="M471.001 573.343C468.283 573.343 466.148 572.36 464.594 570.396C463.064 568.409 462.299 565.508 462.299 561.694C462.299 557.879 463.064 554.99 464.594 553.026C466.148 551.038 468.283 550.045 471.001 550.045C473.742 550.045 475.878 551.038 477.408 553.026C478.961 554.99 479.738 557.879 479.738 561.694C479.738 565.508 478.961 568.409 477.408 570.396C475.878 572.36 473.742 573.343 471.001 573.343ZM471.001 570.225C472.098 570.225 473.011 569.916 473.742 569.3C474.496 568.66 475.055 567.712 475.421 566.456C475.809 565.177 476.003 563.59 476.003 561.694C476.003 559.798 475.809 558.222 475.421 556.966C475.055 555.687 474.496 554.739 473.742 554.122C473.011 553.482 472.098 553.163 471.001 553.163C469.905 553.163 468.98 553.482 468.226 554.122C467.495 554.739 466.947 555.687 466.581 556.966C466.216 558.222 466.033 559.798 466.033 561.694C466.033 563.59 466.216 565.177 466.581 566.456C466.947 567.712 467.495 568.66 468.226 569.3C468.98 569.916 469.905 570.225 471.001 570.225Z" fill="black"/>
<path id="1_2" d="M403.063 573V557.48C403.063 557.023 403.063 556.555 403.063 556.075C403.085 555.572 403.108 555.047 403.131 554.499C402.355 555.253 401.464 555.904 400.459 556.452C399.477 556.977 398.46 557.354 397.41 557.582L396.724 554.396C397.204 554.328 397.764 554.168 398.403 553.916C399.043 553.665 399.705 553.345 400.39 552.957C401.075 552.569 401.704 552.158 402.275 551.724C402.846 551.267 403.291 550.821 403.611 550.387H406.694V573H403.063Z" fill="black"/>
<path id="1_3" d="M338.063 573V557.48C338.063 557.023 338.063 556.555 338.063 556.075C338.085 555.572 338.108 555.047 338.131 554.499C337.355 555.253 336.464 555.904 335.459 556.452C334.477 556.977 333.46 557.354 332.41 557.582L331.724 554.396C332.204 554.328 332.764 554.168 333.403 553.916C334.043 553.665 334.705 553.345 335.39 552.957C336.075 552.569 336.704 552.158 337.275 551.724C337.846 551.267 338.291 550.821 338.611 550.387H341.694V573H338.063Z" fill="black"/>
<path id="0_2" d="M270.001 573.343C267.283 573.343 265.148 572.36 263.594 570.396C262.064 568.409 261.299 565.508 261.299 561.694C261.299 557.879 262.064 554.99 263.594 553.026C265.148 551.038 267.283 550.045 270.001 550.045C272.742 550.045 274.878 551.038 276.408 553.026C277.961 554.99 278.738 557.879 278.738 561.694C278.738 565.508 277.961 568.409 276.408 570.396C274.878 572.36 272.742 573.343 270.001 573.343ZM270.001 570.225C271.098 570.225 272.011 569.916 272.742 569.3C273.496 568.66 274.055 567.712 274.421 566.456C274.809 565.177 275.003 563.59 275.003 561.694C275.003 559.798 274.809 558.222 274.421 556.966C274.055 555.687 273.496 554.739 272.742 554.122C272.011 553.482 271.098 553.163 270.001 553.163C268.905 553.163 267.98 553.482 267.226 554.122C266.495 554.739 265.947 555.687 265.581 556.966C265.216 558.222 265.033 559.798 265.033 561.694C265.033 563.59 265.216 565.177 265.581 566.456C265.947 567.712 266.495 568.66 267.226 569.3C267.98 569.916 268.905 570.225 270.001 570.225Z" fill="black"/>
</g>
<path id="Development_2" d="M275.068 488.927C279.619 488.927 283.158 490.19 285.684 492.715C288.239 495.211 289.516 498.794 289.516 503.463C289.516 508.133 288.239 511.73 285.684 514.256C283.158 516.752 279.619 518 275.068 518H264.804V488.927H275.068ZM275.068 513.991C278.151 513.991 280.5 513.081 282.116 511.26C283.76 509.41 284.582 506.811 284.582 503.463C284.582 500.116 283.76 497.531 282.116 495.711C280.5 493.86 278.151 492.935 275.068 492.935H269.517V513.991H275.068ZM305.538 518.441C303.336 518.441 301.398 517.985 299.724 517.075C298.05 516.165 296.743 514.858 295.803 513.154C294.893 511.422 294.438 509.366 294.438 506.987C294.438 504.609 294.893 502.568 295.803 500.864C296.743 499.132 298.035 497.81 299.68 496.9C301.324 495.99 303.189 495.534 305.274 495.534C307.418 495.534 309.239 495.975 310.736 496.856C312.234 497.737 313.379 498.941 314.172 500.468C314.965 501.995 315.362 503.728 315.362 505.666C315.362 506.195 315.347 506.694 315.318 507.164C315.288 507.633 315.244 508.045 315.185 508.397H297.477V504.785H313.115L310.78 505.49C310.78 503.493 310.281 501.966 309.283 500.908C308.284 499.822 306.919 499.279 305.186 499.279C303.923 499.279 302.822 499.572 301.882 500.16C300.942 500.747 300.223 501.628 299.724 502.803C299.224 503.948 298.975 505.358 298.975 507.031C298.975 508.676 299.239 510.071 299.768 511.216C300.296 512.362 301.045 513.228 302.014 513.815C302.983 514.403 304.129 514.696 305.45 514.696C306.919 514.696 308.108 514.417 309.018 513.859C309.929 513.301 310.648 512.523 311.177 511.525L314.921 513.287C314.392 514.344 313.673 515.269 312.763 516.062C311.882 516.825 310.824 517.413 309.591 517.824C308.358 518.235 307.007 518.441 305.538 518.441ZM335.161 495.975H340.095L331.329 518H326.175L317.365 495.975H322.519L328.774 513.903L335.161 495.975ZM353.675 518.441C351.473 518.441 349.535 517.985 347.861 517.075C346.187 516.165 344.88 514.858 343.94 513.154C343.03 511.422 342.575 509.366 342.575 506.987C342.575 504.609 343.03 502.568 343.94 500.864C344.88 499.132 346.172 497.81 347.817 496.9C349.461 495.99 351.326 495.534 353.411 495.534C355.555 495.534 357.376 495.975 358.873 496.856C360.371 497.737 361.516 498.941 362.309 500.468C363.102 501.995 363.499 503.728 363.499 505.666C363.499 506.195 363.484 506.694 363.455 507.164C363.425 507.633 363.381 508.045 363.322 508.397H345.614V504.785H361.252L358.917 505.49C358.917 503.493 358.418 501.966 357.42 500.908C356.421 499.822 355.056 499.279 353.323 499.279C352.06 499.279 350.959 499.572 350.019 500.16C349.08 500.747 348.36 501.628 347.861 502.803C347.362 503.948 347.112 505.358 347.112 507.031C347.112 508.676 347.376 510.071 347.905 511.216C348.433 512.362 349.182 513.228 350.151 513.815C351.121 514.403 352.266 514.696 353.587 514.696C355.056 514.696 356.245 514.417 357.155 513.859C358.066 513.301 358.785 512.523 359.314 511.525L363.058 513.287C362.53 514.344 361.81 515.269 360.9 516.062C360.019 516.825 358.961 517.413 357.728 517.824C356.495 518.235 355.144 518.441 353.675 518.441ZM374.032 486.063V511.833C374.032 512.92 374.223 513.668 374.605 514.08C374.987 514.491 375.618 514.696 376.499 514.696C377.028 514.696 377.468 514.667 377.821 514.608C378.202 514.52 378.672 514.373 379.23 514.168L378.702 517.692C378.202 517.927 377.63 518.103 376.984 518.22C376.338 518.367 375.691 518.441 375.045 518.441C373.078 518.441 371.624 517.941 370.684 516.943C369.774 515.915 369.319 514.344 369.319 512.229V486.063H374.032ZM392.733 495.534C394.876 495.534 396.771 495.99 398.415 496.9C400.06 497.81 401.337 499.132 402.247 500.864C403.187 502.568 403.657 504.609 403.657 506.987C403.657 509.366 403.187 511.422 402.247 513.154C401.337 514.858 400.06 516.165 398.415 517.075C396.771 517.985 394.876 518.441 392.733 518.441C390.589 518.441 388.695 517.985 387.05 517.075C385.406 516.165 384.113 514.858 383.174 513.154C382.234 511.422 381.764 509.366 381.764 506.987C381.764 504.609 382.234 502.568 383.174 500.864C384.113 499.132 385.406 497.81 387.05 496.9C388.695 495.99 390.589 495.534 392.733 495.534ZM392.733 499.235C391.411 499.235 390.28 499.543 389.341 500.16C388.43 500.747 387.726 501.613 387.226 502.759C386.727 503.904 386.477 505.313 386.477 506.987C386.477 508.632 386.727 510.042 387.226 511.216C387.726 512.362 388.43 513.243 389.341 513.859C390.28 514.447 391.411 514.74 392.733 514.74C394.054 514.74 395.17 514.447 396.08 513.859C396.991 513.243 397.696 512.362 398.195 511.216C398.694 510.042 398.944 508.632 398.944 506.987C398.944 505.313 398.694 503.904 398.195 502.759C397.696 501.613 396.991 500.747 396.08 500.16C395.17 499.543 394.054 499.235 392.733 499.235ZM409.587 527.251V495.975H413.771L414.124 502.142L413.507 501.393C413.86 500.248 414.403 499.235 415.137 498.354C415.871 497.473 416.782 496.782 417.868 496.283C418.984 495.784 420.203 495.534 421.524 495.534C423.316 495.534 424.946 495.99 426.414 496.9C427.882 497.81 429.042 499.117 429.894 500.82C430.746 502.494 431.171 504.535 431.171 506.943C431.171 509.351 430.731 511.422 429.85 513.154C428.998 514.858 427.824 516.165 426.326 517.075C424.857 517.985 423.213 518.441 421.392 518.441C419.513 518.441 417.912 517.956 416.591 516.987C415.269 515.988 414.329 514.726 413.771 513.199L414.3 512.45V527.251H409.587ZM420.379 514.608C422.288 514.608 423.771 513.933 424.828 512.582C425.915 511.231 426.458 509.366 426.458 506.987C426.458 504.609 425.929 502.744 424.872 501.393C423.815 500.013 422.347 499.323 420.467 499.323C419.234 499.323 418.147 499.646 417.207 500.292C416.297 500.908 415.578 501.789 415.049 502.935C414.55 504.051 414.3 505.402 414.3 506.987C414.3 508.544 414.55 509.895 415.049 511.04C415.548 512.185 416.253 513.066 417.163 513.683C418.074 514.3 419.146 514.608 420.379 514.608ZM437.204 518V495.975H441.389L441.609 499.675C442.373 498.265 443.386 497.223 444.649 496.547C445.941 495.872 447.306 495.534 448.745 495.534C450.331 495.534 451.785 495.901 453.106 496.636C454.457 497.34 455.47 498.412 456.146 499.851C456.616 498.882 457.262 498.075 458.084 497.428C458.906 496.782 459.817 496.313 460.815 496.019C461.814 495.696 462.797 495.534 463.767 495.534C465.176 495.534 466.498 495.828 467.731 496.415C468.965 497.003 469.963 497.898 470.727 499.102C471.49 500.306 471.872 501.848 471.872 503.728V518H467.158V504.477C467.158 502.685 466.733 501.393 465.881 500.6C465.029 499.807 463.943 499.411 462.621 499.411C461.593 499.411 460.639 499.66 459.758 500.16C458.906 500.659 458.216 501.408 457.688 502.406C457.159 503.375 456.895 504.579 456.895 506.018V518H452.181V504.477C452.181 502.685 451.755 501.393 450.904 500.6C450.052 499.807 448.966 499.411 447.644 499.411C446.763 499.411 445.882 499.646 445.001 500.116C444.12 500.585 443.386 501.32 442.799 502.318C442.211 503.317 441.918 504.638 441.918 506.283V518H437.204ZM488.709 518.441C486.506 518.441 484.568 517.985 482.894 517.075C481.22 516.165 479.913 514.858 478.974 513.154C478.063 511.422 477.608 509.366 477.608 506.987C477.608 504.609 478.063 502.568 478.974 500.864C479.913 499.132 481.205 497.81 482.85 496.9C484.495 495.99 486.359 495.534 488.444 495.534C490.588 495.534 492.409 495.975 493.907 496.856C495.404 497.737 496.55 498.941 497.343 500.468C498.135 501.995 498.532 503.728 498.532 505.666C498.532 506.195 498.517 506.694 498.488 507.164C498.459 507.633 498.414 508.045 498.356 508.397H480.647V504.785H496.285L493.951 505.49C493.951 503.493 493.451 501.966 492.453 500.908C491.454 499.822 490.089 499.279 488.356 499.279C487.094 499.279 485.992 499.572 485.053 500.16C484.113 500.747 483.393 501.628 482.894 502.803C482.395 503.948 482.145 505.358 482.145 507.031C482.145 508.676 482.409 510.071 482.938 511.216C483.467 512.362 484.216 513.228 485.185 513.815C486.154 514.403 487.299 514.696 488.621 514.696C490.089 514.696 491.278 514.417 492.189 513.859C493.099 513.301 493.819 512.523 494.347 511.525L498.091 513.287C497.563 514.344 496.843 515.269 495.933 516.062C495.052 516.825 493.995 517.413 492.761 517.824C491.528 518.235 490.177 518.441 488.709 518.441ZM504.484 518V495.975H508.669L508.977 501.701L508.361 501.085C508.772 499.822 509.359 498.779 510.123 497.957C510.916 497.105 511.841 496.489 512.898 496.107C513.984 495.725 515.13 495.534 516.334 495.534C517.89 495.534 519.285 495.843 520.519 496.459C521.781 497.047 522.78 497.942 523.514 499.146C524.248 500.35 524.615 501.878 524.615 503.728V518H519.902V505.181C519.902 503.008 519.447 501.51 518.536 500.688C517.655 499.837 516.539 499.411 515.188 499.411C514.219 499.411 513.28 499.646 512.369 500.116C511.459 500.556 510.695 501.276 510.079 502.274C509.491 503.272 509.198 504.609 509.198 506.283V518H504.484ZM537.931 489.499V511.392C537.931 512.479 538.21 513.272 538.768 513.771C539.355 514.27 540.133 514.52 541.102 514.52C541.895 514.52 542.585 514.403 543.173 514.168C543.76 513.903 544.303 513.551 544.803 513.11L545.86 516.546C545.184 517.134 544.347 517.604 543.349 517.956C542.38 518.279 541.293 518.441 540.089 518.441C538.827 518.441 537.667 518.235 536.609 517.824C535.552 517.413 534.73 516.752 534.142 515.842C533.555 514.902 533.247 513.683 533.217 512.185V490.821L537.931 489.499ZM545.507 495.975V499.675H528.989V495.975H545.507Z" fill="black"/>
<g id="numbers1">
<path id="1_4" d="M270.063 457V441.48C270.063 441.023 270.063 440.555 270.063 440.075C270.085 439.572 270.108 439.047 270.131 438.499C269.355 439.253 268.464 439.904 267.459 440.452C266.477 440.977 265.46 441.354 264.41 441.582L263.724 438.396C264.204 438.328 264.764 438.168 265.403 437.916C266.043 437.665 266.705 437.345 267.39 436.957C268.075 436.569 268.704 436.158 269.275 435.724C269.846 435.267 270.291 434.821 270.611 434.387H273.694V457H270.063Z" fill="black"/>
<path id="0_3" d="M338.001 457.343C335.283 457.343 333.148 456.36 331.594 454.396C330.064 452.409 329.299 449.508 329.299 445.694C329.299 441.879 330.064 438.99 331.594 437.026C333.148 435.038 335.283 434.045 338.001 434.045C340.742 434.045 342.878 435.038 344.408 437.026C345.961 438.99 346.738 441.879 346.738 445.694C346.738 449.508 345.961 452.409 344.408 454.396C342.878 456.36 340.742 457.343 338.001 457.343ZM338.001 454.225C339.098 454.225 340.011 453.916 340.742 453.3C341.496 452.66 342.055 451.712 342.421 450.456C342.809 449.177 343.003 447.59 343.003 445.694C343.003 443.798 342.809 442.222 342.421 440.966C342.055 439.687 341.496 438.739 340.742 438.122C340.011 437.482 339.098 437.163 338.001 437.163C336.905 437.163 335.98 437.482 335.226 438.122C334.495 438.739 333.947 439.687 333.581 440.966C333.216 442.222 333.033 443.798 333.033 445.694C333.033 447.59 333.216 449.177 333.581 450.456C333.947 451.712 334.495 452.66 335.226 453.3C335.98 453.916 336.905 454.225 338.001 454.225Z" fill="black"/>
<path id="0_4" d="M403.001 457.343C400.283 457.343 398.148 456.36 396.594 454.396C395.064 452.409 394.299 449.508 394.299 445.694C394.299 441.879 395.064 438.99 396.594 437.026C398.148 435.038 400.283 434.045 403.001 434.045C405.742 434.045 407.878 435.038 409.408 437.026C410.961 438.99 411.738 441.879 411.738 445.694C411.738 449.508 410.961 452.409 409.408 454.396C407.878 456.36 405.742 457.343 403.001 457.343ZM403.001 454.225C404.098 454.225 405.011 453.916 405.742 453.3C406.496 452.66 407.055 451.712 407.421 450.456C407.809 449.177 408.003 447.59 408.003 445.694C408.003 443.798 407.809 442.222 407.421 440.966C407.055 439.687 406.496 438.739 405.742 438.122C405.011 437.482 404.098 437.163 403.001 437.163C401.905 437.163 400.98 437.482 400.226 438.122C399.495 438.739 398.947 439.687 398.581 440.966C398.216 442.222 398.033 443.798 398.033 445.694C398.033 447.59 398.216 449.177 398.581 450.456C398.947 451.712 399.495 452.66 400.226 453.3C400.98 453.916 401.905 454.225 403.001 454.225Z" fill="black"/>
<path id="1_5" d="M471.063 457V441.48C471.063 441.023 471.063 440.555 471.063 440.075C471.085 439.572 471.108 439.047 471.131 438.499C470.355 439.253 469.464 439.904 468.459 440.452C467.477 440.977 466.46 441.354 465.41 441.582L464.724 438.396C465.204 438.328 465.764 438.168 466.403 437.916C467.043 437.665 467.705 437.345 468.39 436.957C469.075 436.569 469.704 436.158 470.275 435.724C470.846 435.267 471.291 434.821 471.611 434.387H474.694V457H471.063Z" fill="black"/>
<path id="1_6" d="M536.063 457V441.48C536.063 441.023 536.063 440.555 536.063 440.075C536.085 439.572 536.108 439.047 536.131 438.499C535.355 439.253 534.464 439.904 533.459 440.452C532.477 440.977 531.46 441.354 530.41 441.582L529.724 438.396C530.204 438.328 530.764 438.168 531.403 437.916C532.043 437.665 532.705 437.345 533.39 436.957C534.075 436.569 534.704 436.158 535.275 435.724C535.846 435.267 536.291 434.821 536.611 434.387H539.694V457H536.063Z" fill="black"/>
</g>
</g>
<path id="Vector_2" d="M423 224V264.5C423 288 403.25 285.5 403.25 309M403.25 309C403.25 285.5 383.5 288 383.5 264.5V224M403.25 309V328.5M403.25 328.5C403.25 394.5 270 377 270 415M403.25 328.5C403.25 394.5 336.787 391.5 336.625 415M403.25 328.5C403.25 394.5 469.875 391.892 469.875 415M403.25 328.5C403.25 394.5 536.208 378.36 536.5 415M403.25 328.5V415" stroke="black" stroke-width="3" stroke-linecap="round"/>
</g>
<g id="finalDesignGroup">
<path id="designProduct" d="M403.5 66L453 136.5L403.5 207L354 136.5L403.5 66Z" stroke="black" stroke-width="4"/>
<path id="Final Design" d="M298.425 15.9794H282.127V24.4371H294.901V28.4897H282.127V41H277.413V11.9268H298.425V15.9794ZM306.061 15.2746C305.033 15.2746 304.24 15.025 303.682 14.5257C303.153 13.9971 302.889 13.263 302.889 12.3232C302.889 11.3835 303.153 10.664 303.682 10.1648C304.24 9.66551 305.033 9.4159 306.061 9.4159C307.059 9.4159 307.823 9.66551 308.351 10.1648C308.909 10.664 309.188 11.3835 309.188 12.3232C309.188 13.263 308.909 13.9971 308.351 14.5257C307.823 15.025 307.059 15.2746 306.061 15.2746ZM308.395 18.9748V41H303.682V18.9748H308.395ZM315.77 41V18.9748H319.955L320.263 24.7014L319.646 24.0847C320.057 22.8219 320.645 21.7794 321.408 20.9571C322.201 20.1054 323.126 19.4887 324.184 19.107C325.27 18.7252 326.415 18.5343 327.619 18.5343C329.176 18.5343 330.571 18.8427 331.804 19.4594C333.067 20.0467 334.065 20.9424 334.8 22.1464C335.534 23.3505 335.901 24.8776 335.901 26.7277V41H331.188V28.1813C331.188 26.0082 330.732 24.5105 329.822 23.6882C328.941 22.8366 327.825 22.4107 326.474 22.4107C325.505 22.4107 324.565 22.6457 323.655 23.1156C322.745 23.5561 321.981 24.2755 321.364 25.274C320.777 26.2725 320.483 27.6087 320.483 29.2826V41H315.77ZM355.774 26.8598C355.774 25.3915 355.363 24.2609 354.54 23.468C353.748 22.6457 352.646 22.2345 351.237 22.2345C349.915 22.2345 348.784 22.5429 347.845 23.1596C346.905 23.7763 346.215 24.7748 345.774 26.155L341.81 24.4811C342.368 22.6897 343.454 21.2508 345.07 20.1642C346.714 19.0776 348.829 18.5343 351.413 18.5343C353.175 18.5343 354.731 18.828 356.082 19.4153C357.433 19.9733 358.49 20.8249 359.254 21.9702C360.047 23.1156 360.443 24.5839 360.443 26.3753V36.1985C360.443 37.2851 360.986 37.8284 362.073 37.8284C362.602 37.8284 363.116 37.755 363.615 37.6081L363.35 40.8678C362.675 41.1909 361.823 41.3524 360.796 41.3524C359.856 41.3524 359.004 41.1909 358.241 40.8678C357.506 40.5154 356.919 40.0015 356.479 39.3261C356.067 38.6213 355.862 37.755 355.862 36.7271V36.4188L356.831 36.3747C356.567 37.52 356.023 38.4744 355.201 39.238C354.379 39.9722 353.424 40.5301 352.338 40.9119C351.251 41.2643 350.15 41.4405 349.034 41.4405C347.654 41.4405 346.406 41.2203 345.29 40.7797C344.203 40.3392 343.337 39.6785 342.691 38.7975C342.074 37.8871 341.766 36.7712 341.766 35.4497C341.766 33.8051 342.294 32.4542 343.352 31.397C344.438 30.3398 345.965 29.6203 347.933 29.2386L356.479 27.5646L356.435 30.8684L350.223 32.1459C348.99 32.3808 348.065 32.7185 347.448 33.159C346.832 33.5995 346.523 34.2456 346.523 35.0973C346.523 35.9195 346.832 36.5803 347.448 37.0795C348.094 37.5494 348.946 37.7843 350.003 37.7843C350.737 37.7843 351.442 37.6962 352.118 37.52C352.822 37.3438 353.454 37.0648 354.012 36.6831C354.57 36.2719 354.996 35.758 355.289 35.1413C355.612 34.4952 355.774 33.7317 355.774 32.8507V26.8598ZM372.747 9.06349V34.833C372.747 35.9195 372.938 36.6684 373.32 37.0795C373.701 37.4907 374.333 37.6962 375.214 37.6962C375.742 37.6962 376.183 37.6669 376.535 37.6081C376.917 37.52 377.387 37.3732 377.945 37.1676L377.416 40.6916C376.917 40.9266 376.344 41.1028 375.698 41.2203C375.052 41.3671 374.406 41.4405 373.76 41.4405C371.793 41.4405 370.339 40.9413 369.399 39.9428C368.489 38.9149 368.034 37.3438 368.034 35.2294V9.06349L372.747 9.06349ZM405.847 11.9268C410.399 11.9268 413.938 13.1895 416.464 15.7151C419.018 18.2113 420.296 21.794 420.296 26.4634C420.296 31.1327 419.018 34.7302 416.464 37.2557C413.938 39.7519 410.399 41 405.847 41L395.584 41V11.9268H405.847ZM405.847 36.9914C408.931 36.9914 411.28 36.081 412.895 34.2603C414.54 32.4102 415.362 29.8112 415.362 26.4634C415.362 23.1156 414.54 20.5313 412.895 18.7105C411.28 16.8604 408.931 15.9353 405.847 15.9353H400.297V36.9914L405.847 36.9914ZM436.318 41.4405C434.116 41.4405 432.177 40.9853 430.504 40.0749C428.83 39.1646 427.523 37.8577 426.583 36.1545C425.673 34.4218 425.217 32.3661 425.217 29.9874C425.217 27.6087 425.673 25.5677 426.583 23.8644C427.523 22.1318 428.815 20.8103 430.459 19.8999C432.104 18.9895 433.969 18.5343 436.054 18.5343C438.198 18.5343 440.018 18.9748 441.516 19.8558C443.014 20.7368 444.159 21.9409 444.952 23.468C445.745 24.995 446.141 26.7277 446.141 28.6659C446.141 29.1945 446.127 29.6937 446.097 30.1636C446.068 30.6335 446.024 31.0446 445.965 31.397H428.257V27.7849H443.895L441.56 28.4897C441.56 26.4927 441.061 24.9657 440.062 23.9085C439.064 22.8219 437.698 22.2786 435.966 22.2786C434.703 22.2786 433.602 22.5723 432.662 23.1596C431.722 23.7469 431.003 24.628 430.504 25.8026C430.004 26.9479 429.755 28.3575 429.755 30.0315C429.755 31.676 430.019 33.0709 430.548 34.2162C431.076 35.3616 431.825 36.2279 432.794 36.8152C433.763 37.4026 434.909 37.6962 436.23 37.6962C437.698 37.6962 438.888 37.4172 439.798 36.8593C440.709 36.3013 441.428 35.5231 441.957 34.5246L445.701 36.2866C445.172 37.3438 444.453 38.2689 443.542 39.0618C442.661 39.8253 441.604 40.4127 440.371 40.8238C439.137 41.2349 437.787 41.4405 436.318 41.4405ZM460.463 41.4405C458.261 41.4405 456.249 41.0147 454.428 40.163C452.608 39.3114 451.169 38.1074 450.111 36.5509L453.371 33.7317C454.017 34.9357 454.942 35.9048 456.146 36.639C457.38 37.3438 458.848 37.6962 460.551 37.6962C461.902 37.6962 462.974 37.4613 463.767 36.9914C464.56 36.5215 464.956 35.8608 464.956 35.0092C464.956 34.4512 464.766 33.9666 464.384 33.5555C464.031 33.115 463.341 32.7773 462.313 32.5423L457.688 31.5732C455.339 31.1034 453.665 30.3545 452.666 29.3267C451.668 28.2694 451.169 26.9333 451.169 25.3181C451.169 24.114 451.521 22.9981 452.226 21.9702C452.931 20.9424 453.958 20.1201 455.309 19.5034C456.69 18.8574 458.334 18.5343 460.243 18.5343C462.446 18.5343 464.325 18.9308 465.881 19.7237C467.438 20.4872 468.627 21.5885 469.45 23.0275L466.19 25.7586C465.632 24.5839 464.81 23.7176 463.723 23.1596C462.636 22.5723 461.506 22.2786 460.331 22.2786C459.391 22.2786 458.584 22.3961 457.908 22.631C457.233 22.8659 456.719 23.189 456.367 23.6001C456.014 24.0112 455.838 24.4958 455.838 25.0538C455.838 25.6411 456.058 26.155 456.499 26.5955C456.939 27.036 457.732 27.3738 458.877 27.6087L463.899 28.6659C466.014 29.077 467.497 29.7818 468.348 30.7803C469.229 31.7494 469.67 32.9388 469.67 34.3484C469.67 35.758 469.303 37.0061 468.569 38.0927C467.834 39.1499 466.777 39.9722 465.397 40.5595C464.017 41.1468 462.372 41.4405 460.463 41.4405ZM477.788 15.2746C476.76 15.2746 475.967 15.025 475.409 14.5257C474.881 13.9971 474.617 13.263 474.617 12.3232C474.617 11.3835 474.881 10.664 475.409 10.1648C475.967 9.66551 476.76 9.4159 477.788 9.4159C478.787 9.4159 479.55 9.66551 480.079 10.1648C480.637 10.664 480.916 11.3835 480.916 12.3232C480.916 13.263 480.637 13.9971 480.079 14.5257C479.55 15.025 478.787 15.2746 477.788 15.2746ZM480.123 18.9748V41H475.409V18.9748H480.123ZM506.88 14.3495L507.628 18.0498C507.54 18.0498 507.452 18.0498 507.364 18.0498C507.276 18.0204 507.188 18.0057 507.1 18.0057C505.69 18.0057 504.618 18.3141 503.884 18.9308C503.15 19.5181 502.783 20.3844 502.783 21.5297L500.492 20.4725C500.492 19.2979 500.742 18.2553 501.241 17.345C501.74 16.4052 502.445 15.671 503.356 15.1424C504.295 14.6138 505.353 14.3495 506.527 14.3495C506.586 14.3495 506.645 14.3495 506.703 14.3495C506.762 14.3495 506.821 14.3495 506.88 14.3495ZM499.92 37.5641C502.152 37.5641 503.884 38.0633 505.118 39.0618C506.351 40.0309 506.968 41.3818 506.968 43.1144C506.968 44.6415 506.483 45.9483 505.514 47.0349C504.545 48.1508 503.223 49.0025 501.55 49.5898C499.905 50.1772 498.011 50.4708 495.867 50.4708C492.255 50.4708 489.583 49.9129 487.85 48.7969C486.117 47.681 485.251 46.286 485.251 44.6121C485.251 43.4375 485.662 42.4096 486.484 41.5286C487.336 40.6476 488.76 40.1484 490.757 40.0309L490.493 40.7357C489.259 40.4714 488.261 40.0015 487.497 39.3261C486.763 38.6213 486.396 37.6375 486.396 36.3747C486.396 35.1119 486.881 34.04 487.85 33.159C488.819 32.278 490.185 31.7641 491.947 31.6173L494.413 32.8066H493.885C492.534 32.9241 491.579 33.2325 491.021 33.7317C490.464 34.2309 490.185 34.7889 490.185 35.4056C490.185 36.1398 490.449 36.6831 490.977 37.0355C491.535 37.3879 492.314 37.5641 493.312 37.5641H499.92ZM495.867 46.9468C497.482 46.9468 498.804 46.7853 499.832 46.4622C500.889 46.1686 501.667 45.7721 502.166 45.2729C502.695 44.803 502.959 44.2744 502.959 43.6871C502.959 43.0116 502.68 42.4683 502.122 42.0572C501.594 41.6461 500.624 41.4405 499.215 41.4405H492.123C491.3 41.4405 490.61 41.6461 490.052 42.0572C489.494 42.4977 489.215 43.0851 489.215 43.8192C489.215 44.7883 489.803 45.5519 490.977 46.1098C492.152 46.6678 493.782 46.9468 495.867 46.9468ZM495.691 18.5343C497.629 18.5343 499.303 18.8427 500.713 19.4594C502.152 20.0761 503.253 20.9424 504.016 22.0583C504.809 23.1743 505.206 24.4811 505.206 25.9788C505.206 27.4765 504.809 28.7834 504.016 29.8993C503.253 31.0153 502.152 31.8816 500.713 32.4983C499.303 33.115 497.629 33.4233 495.691 33.4233C492.637 33.4233 490.287 32.7479 488.643 31.397C487.028 30.0168 486.22 28.2107 486.22 25.9788C486.22 24.4811 486.616 23.1743 487.409 22.0583C488.202 20.9424 489.304 20.0761 490.713 19.4594C492.152 18.8427 493.811 18.5343 495.691 18.5343ZM495.691 21.8381C494.34 21.8381 493.209 22.2199 492.299 22.9834C491.418 23.7176 490.977 24.7161 490.977 25.9788C490.977 27.2416 491.418 28.2548 492.299 29.0183C493.209 29.7818 494.34 30.1636 495.691 30.1636C497.071 30.1636 498.202 29.7818 499.083 29.0183C499.993 28.2548 500.448 27.2416 500.448 25.9788C500.448 24.7161 499.993 23.7176 499.083 22.9834C498.202 22.2199 497.071 21.8381 495.691 21.8381ZM511.286 41V18.9748H515.471L515.78 24.7014L515.163 24.0847C515.574 22.8219 516.161 21.7794 516.925 20.9571C517.718 20.1054 518.643 19.4887 519.7 19.107C520.787 18.7252 521.932 18.5343 523.136 18.5343C524.692 18.5343 526.087 18.8427 527.321 19.4594C528.583 20.0467 529.582 20.9424 530.316 22.1464C531.05 23.3505 531.417 24.8776 531.417 26.7277V41H526.704V28.1813C526.704 26.0082 526.249 24.5105 525.338 23.6882C524.457 22.8366 523.341 22.4107 521.991 22.4107C521.021 22.4107 520.082 22.6457 519.171 23.1156C518.261 23.5561 517.497 24.2755 516.881 25.274C516.293 26.2725 516 27.6087 516 29.2826V41H511.286Z" fill="black"/>
</g>
</g>
</svg>
