<svg width="810" height="1116" viewBox="0 0 810 1116" fill="none" xmlns="http://www.w3.org/2000/svg">
<g id="Frame 19">
<g id="iterationGroup">
<path id="Tri10" d="M382.506 764.69L465.074 836.031L362.007 871.866L382.506 764.69Z" stroke="black" stroke-width="4"/>
<path id="Tri9" d="M368.194 611.234L393.728 735.945L272.958 695.702L368.194 611.234Z" stroke="black" stroke-width="4" stroke-dasharray="35 10"/>
<path id="Tri8" d="M545.009 576.802C548.778 576.02 551.98 579.612 550.773 583.266L518.327 681.495C517.119 685.15 512.408 686.127 509.847 683.254L441.002 606.041C438.44 603.168 439.949 598.599 443.718 597.817L545.009 576.802Z" stroke="black" stroke-width="4" stroke-dasharray="20 10"/>
<path id="Tri7" d="M495.128 446.659C500.514 443.422 507.357 447.373 507.248 453.656L505.913 530.043C505.807 536.138 499.194 539.879 493.914 536.831L429.763 499.793C424.483 496.745 424.417 489.148 429.643 486.008L495.128 446.659Z" stroke="black" stroke-width="4" stroke-dasharray="20 10"/>
<path id="Tri6" d="M377.385 388.989C386.718 383.601 398.385 390.336 398.385 401.113L398.385 469.927C398.385 480.704 386.718 487.44 377.385 482.051L317.791 447.645C308.457 442.256 308.457 428.784 317.791 423.396L377.385 388.989Z" stroke="black" stroke-width="4" stroke-dasharray="10 10"/>
<path id="Arrow" d="M407.5 346C407.5 464.5 606 425 606 517.5C606 610 250.5 558 250.5 669.5C250.5 781 484 741 484 805C484 869 380.5 869 380.5 916.5C380.5 964 406.5 964 406.5 1055M406.5 1055L412 1047.5M406.5 1055L400.5 1047.5" stroke="url(#paint0_linear_652_2278)" stroke-width="3" stroke-linecap="round" stroke-dasharray="6 6"/>
<path id="Iteration" d="M486.058 346.927V376H481.345V346.927H486.058ZM500.451 347.499V369.392C500.451 370.479 500.73 371.272 501.288 371.771C501.875 372.27 502.653 372.52 503.622 372.52C504.415 372.52 505.105 372.403 505.693 372.168C506.28 371.903 506.823 371.551 507.323 371.11L508.38 374.546C507.704 375.134 506.867 375.604 505.869 375.956C504.9 376.279 503.813 376.441 502.609 376.441C501.346 376.441 500.186 376.235 499.129 375.824C498.072 375.413 497.25 374.752 496.662 373.842C496.075 372.902 495.767 371.683 495.737 370.185V348.821L500.451 347.499ZM508.027 353.975V357.675H491.509V353.975H508.027ZM522.38 376.441C520.178 376.441 518.24 375.985 516.566 375.075C514.892 374.165 513.585 372.858 512.645 371.154C511.735 369.422 511.28 367.366 511.28 364.987C511.28 362.609 511.735 360.568 512.645 358.864C513.585 357.132 514.877 355.81 516.522 354.9C518.166 353.99 520.031 353.534 522.116 353.534C524.26 353.534 526.081 353.975 527.578 354.856C529.076 355.737 530.221 356.941 531.014 358.468C531.807 359.995 532.203 361.728 532.203 363.666C532.203 364.195 532.189 364.694 532.159 365.164C532.13 365.633 532.086 366.045 532.027 366.397H514.319V362.785H529.957L527.622 363.49C527.622 361.493 527.123 359.966 526.125 358.908C525.126 357.822 523.761 357.279 522.028 357.279C520.765 357.279 519.664 357.572 518.724 358.16C517.784 358.747 517.065 359.628 516.566 360.803C516.066 361.948 515.817 363.358 515.817 365.031C515.817 366.676 516.081 368.071 516.61 369.216C517.138 370.362 517.887 371.228 518.856 371.815C519.825 372.403 520.971 372.696 522.292 372.696C523.761 372.696 524.95 372.417 525.86 371.859C526.771 371.301 527.49 370.523 528.019 369.525L531.763 371.287C531.234 372.344 530.515 373.269 529.605 374.062C528.724 374.825 527.666 375.413 526.433 375.824C525.199 376.235 523.849 376.441 522.38 376.441ZM538.156 376V353.975H542.164L542.605 357.939C543.192 356.5 544.059 355.414 545.204 354.68C546.379 353.916 547.818 353.534 549.521 353.534C549.961 353.534 550.402 353.578 550.842 353.666C551.283 353.725 551.65 353.828 551.944 353.975L551.283 358.116C550.96 357.998 550.593 357.91 550.182 357.851C549.8 357.763 549.271 357.719 548.596 357.719C547.685 357.719 546.79 357.969 545.909 358.468C545.028 358.938 544.293 359.657 543.706 360.626C543.148 361.596 542.869 362.829 542.869 364.327V376H538.156ZM568.653 361.86C568.653 360.391 568.242 359.261 567.419 358.468C566.626 357.646 565.525 357.235 564.116 357.235C562.794 357.235 561.663 357.543 560.724 358.16C559.784 358.776 559.094 359.775 558.653 361.155L554.689 359.481C555.247 357.69 556.333 356.251 557.949 355.164C559.593 354.078 561.707 353.534 564.292 353.534C566.054 353.534 567.61 353.828 568.961 354.415C570.312 354.973 571.369 355.825 572.133 356.97C572.926 358.116 573.322 359.584 573.322 361.375V371.199C573.322 372.285 573.865 372.828 574.952 372.828C575.481 372.828 575.994 372.755 576.494 372.608L576.229 375.868C575.554 376.191 574.702 376.352 573.675 376.352C572.735 376.352 571.883 376.191 571.12 375.868C570.385 375.515 569.798 375.002 569.358 374.326C568.946 373.621 568.741 372.755 568.741 371.727V371.419L569.71 371.375C569.446 372.52 568.902 373.474 568.08 374.238C567.258 374.972 566.303 375.53 565.217 375.912C564.13 376.264 563.029 376.441 561.913 376.441C560.533 376.441 559.285 376.22 558.169 375.78C557.082 375.339 556.216 374.678 555.57 373.797C554.953 372.887 554.645 371.771 554.645 370.45C554.645 368.805 555.173 367.454 556.231 366.397C557.317 365.34 558.844 364.62 560.812 364.239L569.358 362.565L569.314 365.868L563.102 367.146C561.869 367.381 560.944 367.719 560.327 368.159C559.711 368.6 559.402 369.246 559.402 370.097C559.402 370.92 559.711 371.58 560.327 372.08C560.973 372.549 561.825 372.784 562.882 372.784C563.616 372.784 564.321 372.696 564.997 372.52C565.701 372.344 566.333 372.065 566.891 371.683C567.449 371.272 567.875 370.758 568.168 370.141C568.491 369.495 568.653 368.732 568.653 367.851V361.86ZM586.616 347.499V369.392C586.616 370.479 586.895 371.272 587.453 371.771C588.04 372.27 588.818 372.52 589.787 372.52C590.58 372.52 591.27 372.403 591.858 372.168C592.445 371.903 592.988 371.551 593.488 371.11L594.545 374.546C593.869 375.134 593.032 375.604 592.034 375.956C591.065 376.279 589.978 376.441 588.774 376.441C587.511 376.441 586.351 376.235 585.294 375.824C584.237 375.413 583.415 374.752 582.827 373.842C582.24 372.902 581.932 371.683 581.902 370.185V348.821L586.616 347.499ZM594.192 353.975V357.675H577.673V353.975H594.192ZM601.233 350.275C600.205 350.275 599.412 350.025 598.854 349.526C598.325 348.997 598.061 348.263 598.061 347.323C598.061 346.383 598.325 345.664 598.854 345.165C599.412 344.666 600.205 344.416 601.233 344.416C602.231 344.416 602.995 344.666 603.523 345.165C604.081 345.664 604.36 346.383 604.36 347.323C604.36 348.263 604.081 348.997 603.523 349.526C602.995 350.025 602.231 350.275 601.233 350.275ZM603.567 353.975V376H598.854V353.975H603.567ZM620.501 353.534C622.645 353.534 624.539 353.99 626.184 354.9C627.828 355.81 629.106 357.132 630.016 358.864C630.956 360.568 631.426 362.609 631.426 364.987C631.426 367.366 630.956 369.422 630.016 371.154C629.106 372.858 627.828 374.165 626.184 375.075C624.539 375.985 622.645 376.441 620.501 376.441C618.357 376.441 616.463 375.985 614.819 375.075C613.174 374.165 611.882 372.858 610.942 371.154C610.002 369.422 609.533 367.366 609.533 364.987C609.533 362.609 610.002 360.568 610.942 358.864C611.882 357.132 613.174 355.81 614.819 354.9C616.463 353.99 618.357 353.534 620.501 353.534ZM620.501 357.235C619.18 357.235 618.049 357.543 617.109 358.16C616.199 358.747 615.494 359.613 614.995 360.759C614.496 361.904 614.246 363.313 614.246 364.987C614.246 366.632 614.496 368.042 614.995 369.216C615.494 370.362 616.199 371.243 617.109 371.859C618.049 372.447 619.18 372.74 620.501 372.74C621.823 372.74 622.939 372.447 623.849 371.859C624.759 371.243 625.464 370.362 625.963 369.216C626.463 368.042 626.712 366.632 626.712 364.987C626.712 363.313 626.463 361.904 625.963 360.759C625.464 359.613 624.759 358.747 623.849 358.16C622.939 357.543 621.823 357.235 620.501 357.235ZM637.355 376V353.975H641.54L641.848 359.701L641.232 359.085C641.643 357.822 642.23 356.779 642.994 355.957C643.786 355.105 644.712 354.489 645.769 354.107C646.855 353.725 648.001 353.534 649.205 353.534C650.761 353.534 652.156 353.843 653.389 354.459C654.652 355.047 655.651 355.942 656.385 357.146C657.119 358.35 657.486 359.878 657.486 361.728V376H652.773V363.181C652.773 361.008 652.318 359.51 651.407 358.688C650.526 357.837 649.41 357.411 648.059 357.411C647.09 357.411 646.151 357.646 645.24 358.116C644.33 358.556 643.566 359.276 642.95 360.274C642.362 361.272 642.069 362.609 642.069 364.283V376H637.355Z" fill="black"/>
<path id="Tri5" d="M272.216 403.651C259.576 411.009 243.71 401.924 243.658 387.298L243.476 335.805C243.424 321.179 259.225 311.982 271.918 319.25L316.603 344.839C329.295 352.107 329.36 370.389 316.719 377.747L272.216 403.651Z" stroke="black" stroke-width="4" stroke-dasharray="10 10"/>
<path id="Tri4" d="M351.517 338.905C339.236 339.85 330.538 327.147 335.859 316.039L356.852 272.216C362.174 261.108 377.524 259.926 384.483 270.089L411.938 310.181C418.898 320.344 412.246 334.229 399.965 335.174L351.517 338.905Z" stroke="black" stroke-width="4" stroke-dasharray="10 10"/>
<path id="Tri3" d="M444.56 190.285C460.56 181.047 480.56 192.594 480.56 211.069L480.56 237.05C480.56 255.525 460.56 267.072 444.56 257.835L422.06 244.844C406.06 235.607 406.06 212.513 422.06 203.275L444.56 190.285Z" stroke="black" stroke-width="4" stroke-dasharray="5 10"/>
<path id="Tri2" d="M358.56 149.285C374.56 140.047 394.56 151.594 394.56 170.069L394.56 196.05C394.56 214.525 374.56 226.072 358.56 216.835L336.06 203.844C320.06 194.607 320.06 171.513 336.06 162.275L358.56 149.285Z" stroke="black" stroke-width="4" stroke-dasharray="5 10"/>
<path id="Tri1" d="M388.31 74.7798C409.31 62.6554 435.56 77.8109 435.56 102.06V102.06C435.56 126.308 409.31 141.464 388.31 129.339V129.339C367.31 117.215 367.31 86.9042 388.31 74.7798V74.7798Z" stroke="black" stroke-width="4" stroke-dasharray="5 20"/>
<path id="Vector" d="M384.588 1114.5C384.588 893.5 181.19 633.5 119.19 550.5C57.1895 467.5 -5.81048 441 2.18952 324C8.58951 230.4 115.523 182.667 168.19 170.5C276.28 145.53 384.588 112 384.588 1.5M424.602 1114.5C424.602 893.5 628 633.5 690 550.5C752 467.5 815 441 807 324C800.6 230.4 693.667 182.667 641 170.5C532.91 145.53 424.602 112 424.602 1.5" stroke="black" stroke-width="3" stroke-linecap="round"/>
</g>
</g>
<defs>
<linearGradient id="paint0_linear_652_2278" x1="428.25" y1="346" x2="428" y2="685" gradientUnits="userSpaceOnUse">
<stop stop-opacity="0"/>
<stop offset="1"/>
</linearGradient>
</defs>
</svg>
