<?xml version="1.0" standalone="no"?>
<!DOCTYPE svg PUBLIC "-//W3C//DTD SVG 20010904//EN"
 "http://www.w3.org/TR/2001/REC-SVG-20010904/DTD/svg10.dtd">
<svg version="1.0" xmlns="http://www.w3.org/2000/svg"
 width="700.000000pt" height="700.000000pt" viewBox="0 0 700.000000 700.000000"
 preserveAspectRatio="xMidYMid meet">
<metadata>
Created by potrace 1.14, written by Peter Selinger 2001-2017
</metadata>
<g transform="translate(0.000000,700.000000) scale(0.100000,-0.100000)"
fill="#000000" stroke="none">
<path d="M3477 6094 c-1 -2 -34 -4 -72 -5 -224 -6 -454 -77 -635 -197 -69 -45
-195 -160 -246 -223 -178 -220 -312 -505 -444 -944 -27 -88 -63 -205 -80 -260
-17 -55 -44 -143 -59 -195 -16 -52 -50 -162 -75 -245 -26 -82 -49 -157 -51
-165 -6 -21 -116 -382 -160 -525 -20 -66 -52 -169 -69 -229 -21 -70 -35 -102
-39 -90 -3 10 -24 80 -47 154 -23 74 -54 178 -70 230 -15 52 -47 156 -70 230
-23 74 -59 194 -81 265 -22 72 -53 173 -69 225 -16 52 -57 185 -90 295 -34
110 -75 243 -91 296 l-30 96 -394 -1 c-216 -1 -396 -4 -399 -7 -3 -3 9 -55 28
-115 19 -60 57 -183 84 -274 28 -91 75 -246 105 -345 31 -99 96 -315 146 -480
50 -165 100 -327 111 -360 10 -33 62 -202 115 -375 120 -394 136 -445 234
-767 l81 -263 -30 -79 c-63 -172 -143 -294 -240 -365 -110 -81 -213 -106 -414
-101 -77 2 -152 6 -166 8 -14 3 -43 8 -65 11 -22 2 -63 8 -92 12 -51 6 -52 6
-48 -17 3 -13 7 -55 11 -94 3 -38 8 -78 9 -87 2 -9 7 -48 10 -85 4 -37 8 -84
11 -103 2 -19 6 -60 10 -90 3 -30 7 -68 9 -85 2 -16 6 -60 10 -97 8 -74 0 -68
120 -84 28 -3 52 -8 55 -9 9 -5 217 -18 290 -18 557 -1 934 233 1188 738 119
237 151 325 336 935 70 228 135 442 145 475 11 33 31 101 46 150 15 50 35 115
45 145 10 30 23 71 29 90 5 19 19 67 31 105 12 39 25 84 30 100 4 17 20 68 35
115 14 47 28 92 30 100 3 8 13 44 23 80 l19 64 16 -44 c18 -51 53 -161 92
-295 15 -49 40 -130 55 -180 86 -273 112 -357 115 -373 3 -9 32 -105 65 -212
34 -107 75 -240 91 -295 17 -55 53 -170 80 -256 l49 -155 437 0 437 1 34 105
c18 58 35 112 37 120 4 14 28 96 75 245 94 304 184 598 195 635 7 25 34 113
60 195 26 83 55 177 65 210 9 33 34 114 55 179 l37 120 100 -325 c180 -589
196 -642 278 -909 45 -146 102 -335 128 -420 l47 -155 445 0 444 0 19 60 c40
126 108 351 112 365 4 18 32 108 51 165 7 22 26 85 43 140 17 55 58 190 91
300 34 110 83 272 109 360 27 88 89 293 139 455 50 162 107 349 127 415 20 66
48 156 62 200 13 44 26 87 28 95 3 13 60 199 111 360 7 25 14 50 14 56 0 8
-117 11 -399 11 l-399 -1 -43 -140 c-23 -78 -52 -172 -64 -211 -12 -38 -34
-108 -48 -155 -14 -47 -41 -137 -61 -200 -93 -304 -233 -762 -279 -917 -29
-94 -55 -170 -58 -168 -3 2 -11 21 -17 42 -37 121 -72 235 -171 563 -61 201
-115 379 -121 395 -26 81 -153 496 -164 535 -7 25 -28 93 -46 151 l-32 106
-444 -1 -444 0 -12 -35 c-6 -20 -13 -40 -14 -46 -1 -5 -43 -143 -94 -305 -50
-162 -93 -299 -94 -305 -2 -10 -39 -129 -81 -265 -81 -262 -134 -434 -210
-685 -20 -66 -39 -127 -42 -135 -3 -9 -16 16 -30 60 -28 87 -309 993 -328
1060 -23 79 -51 170 -128 417 l-75 241 25 69 c104 287 233 421 452 467 63 13
308 15 371 2 14 -3 63 -10 110 -16 46 -6 88 -14 93 -17 5 -3 6 7 3 23 -3 16
-8 54 -11 84 -8 85 -15 152 -20 190 -3 19 -7 58 -10 85 -3 28 -7 73 -10 100
-3 28 -7 72 -10 98 -12 147 -15 155 -49 161 -115 22 -448 50 -459 40z"/>
</g>
</svg>
