<?xml version="1.0" standalone="no"?>
<!DOCTYPE svg PUBLIC "-//W3C//DTD SVG 20010904//EN"
 "http://www.w3.org/TR/2001/REC-SVG-20010904/DTD/svg10.dtd">
<svg version="1.0" xmlns="http://www.w3.org/2000/svg"
 width="700.000000pt" height="700.000000pt" viewBox="0 0 700.000000 700.000000"
 preserveAspectRatio="xMidYMid meet">
<metadata>
Created by potrace 1.14, written by Peter Selinger 2001-2017
</metadata>
<g transform="translate(0.000000,700.000000) scale(0.100000,-0.100000)"
fill="#000000" stroke="none">
<path d="M3385 6468 c-327 -28 -595 -155 -799 -380 -107 -118 -231 -319 -324
-528 -58 -130 -134 -360 -227 -680 -64 -221 -146 -503 -175 -600 -11 -36 -63
-213 -116 -395 -53 -181 -114 -391 -136 -465 -21 -74 -41 -142 -43 -150 -2 -8
-10 -35 -18 -60 l-14 -45 -21 70 c-21 73 -108 367 -187 640 -26 88 -74 252
-107 365 -33 113 -68 234 -78 270 -10 36 -37 128 -60 205 -23 77 -43 147 -45
155 -2 8 -18 62 -35 120 l-31 105 -410 1 c-225 0 -409 -2 -409 -4 0 -7 52
-189 121 -419 38 -131 72 -246 74 -257 4 -17 20 -71 65 -221 10 -33 46 -157
80 -275 34 -118 65 -226 70 -240 5 -14 16 -50 24 -80 8 -30 33 -116 55 -190
107 -363 184 -628 191 -655 5 -16 31 -106 58 -200 141 -477 183 -622 187 -638
8 -38 -89 -276 -147 -360 -71 -102 -188 -191 -285 -216 -134 -36 -337 -34
-558 5 -44 8 -81 14 -82 14 -2 0 -1 -17 2 -37 2 -21 7 -67 10 -103 6 -66 10
-109 19 -190 3 -25 8 -75 11 -111 4 -36 8 -79 10 -95 2 -16 7 -65 11 -109 3
-44 8 -87 10 -95 1 -8 3 -22 3 -31 1 -12 15 -18 54 -23 28 -4 66 -9 82 -12 17
-2 39 -6 50 -8 34 -8 215 -19 304 -19 119 1 212 11 321 35 278 60 486 192 676
430 30 37 54 71 54 77 0 5 4 11 9 13 11 4 116 186 149 258 120 262 153 362
397 1205 36 121 114 391 175 600 62 209 132 452 158 539 36 127 47 155 54 135
4 -13 59 -202 123 -419 64 -217 147 -501 185 -630 39 -129 112 -377 163 -550
l92 -315 442 -1 c243 0 446 2 451 5 4 3 37 103 71 221 35 118 83 280 106 360
134 455 171 582 285 970 29 96 63 216 77 265 14 50 28 94 32 98 4 4 25 -52 45
-125 21 -73 42 -144 46 -158 9 -24 112 -376 146 -495 9 -33 16 -60 15 -60 -1
0 3 -13 9 -29 6 -16 46 -151 90 -300 105 -362 177 -607 200 -687 l20 -65 455
0 c250 0 455 1 455 3 0 2 23 81 51 176 28 94 109 372 180 617 71 245 138 474
149 510 94 319 192 656 214 735 1 6 10 37 20 70 10 33 52 175 93 315 41 140
97 332 124 425 28 94 52 179 55 190 2 11 13 48 23 83 11 34 18 63 18 63 -6 5
-808 5 -815 0 -5 -3 -13 -24 -19 -46 -6 -22 -38 -134 -72 -250 -59 -199 -110
-375 -222 -760 -27 -93 -53 -183 -58 -200 -5 -16 -51 -172 -101 -345 -51 -173
-93 -316 -95 -318 -3 -3 -21 55 -89 288 -24 85 -57 196 -71 245 -15 50 -46
158 -70 240 -24 83 -80 274 -125 425 -44 151 -83 283 -85 293 -2 10 -15 55
-29 100 -14 45 -41 138 -61 207 l-36 125 -455 1 -454 1 -21 -71 c-12 -39 -27
-89 -34 -111 -6 -22 -124 -421 -261 -887 -136 -466 -250 -846 -251 -844 -3 3
-100 327 -108 357 -2 9 -33 115 -68 235 -57 191 -109 368 -212 719 -15 50 -39
133 -55 185 -15 52 -49 167 -75 255 l-47 160 27 83 c95 293 249 455 475 498
74 14 350 7 420 -11 8 -2 35 -6 60 -9 25 -4 58 -9 73 -11 24 -5 28 -3 23 12
-2 10 -8 50 -11 88 -4 39 -8 82 -10 97 -2 14 -6 59 -10 100 -4 40 -8 86 -10
103 -2 16 -7 64 -11 105 -3 41 -8 82 -9 91 -2 9 -6 52 -10 95 -4 43 -9 82 -11
85 -2 4 -25 10 -51 13 -27 4 -59 9 -73 11 -161 26 -353 35 -495 23z"/>
</g>
</svg>
